Hoogli-Semibold.ufo
<glyph name="exclam" format="1">
  <advance width="320"/>
  <unicode hex="0021"/>
  <outline>
    <contour>
      <point x="178" y="230"/>
      <point x="198" y="246"/>
      <point x="199" y="265" type="curve" smooth="yes"/>
      <point x="206" y="545" type="line" smooth="yes"/>
      <point x="207" y="564"/>
      <point x="186" y="580"/>
      <point x="166" y="581" type="curve" smooth="yes"/>
      <point x="146" y="582"/>
      <point x="126" y="566"/>
      <point x="125" y="546" type="curve" smooth="yes"/>
      <point x="118" y="266" type="line" smooth="yes"/>
      <point x="118" y="248"/>
      <point x="138" y="231"/>
      <point x="158" y="231" type="curve" smooth="yes"/>
    </contour>
    <contour>
      <point x="193" y="-18"/>
      <point x="221" y="-4"/>
      <point x="221" y="46" type="curve" smooth="yes"/>
      <point x="221" y="87"/>
      <point x="191" y="111"/>
      <point x="159" y="111" type="curve" smooth="yes"/>
      <point x="123" y="111"/>
      <point x="97" y="88"/>
      <point x="97" y="46" type="curve" smooth="yes"/>
      <point x="97" y="-2"/>
      <point x="133" y="-18"/>
      <point x="160" y="-18" type="curve" smooth="yes"/>
    </contour>
  </outline>
</glyph>
<glyph name="quotedbl" format="1">
  <advance width="401"/>
  <unicode hex="0022"/>
  <outline>
    <contour>
      <point x="269" y="346"/>
      <point x="293" y="358"/>
      <point x="297" y="376" type="curve" smooth="yes"/>
      <point x="339" y="553" type="line" smooth="yes"/>
      <point x="344" y="570"/>
      <point x="328" y="591"/>
      <point x="309" y="595" type="curve" smooth="yes"/>
      <point x="290" y="599"/>
      <point x="266" y="588"/>
      <point x="262" y="570" type="curve" smooth="yes"/>
      <point x="220" y="393" type="line" smooth="yes"/>
      <point x="216" y="375"/>
      <point x="231" y="355"/>
      <point x="250" y="351" type="curve" smooth="yes"/>
    </contour>
    <contour>
      <point x="102" y="346"/>
      <point x="126" y="358"/>
      <point x="130" y="376" type="curve" smooth="yes"/>
      <point x="172" y="553" type="line" smooth="yes"/>
      <point x="177" y="570"/>
      <point x="161" y="591"/>
      <point x="142" y="595" type="curve" smooth="yes"/>
      <point x="123" y="599"/>
      <point x="99" y="588"/>
      <point x="95" y="570" type="curve" smooth="yes"/>
      <point x="53" y="393" type="line" smooth="yes"/>
      <point x="49" y="375"/>
      <point x="64" y="355"/>
      <point x="83" y="351" type="curve" smooth="yes"/>
    </contour>
  </outline>
</glyph>
<glyph name="numbersign" format="1">
  <advance width="603"/>
  <unicode hex="0023"/>
  <outline>
    <contour>
      <point x="314" y="-16"/>
      <point x="339" y="-7"/>
      <point x="346" y="10" type="curve" smooth="yes"/>
      <point x="531" y="497" type="line" smooth="yes"/>
      <point x="537" y="515"/>
      <point x="525" y="536"/>
      <point x="506" y="543" type="curve" smooth="yes"/>
      <point x="488" y="549"/>
      <point x="463" y="541"/>
      <point x="456" y="523" type="curve" smooth="yes"/>
      <point x="271" y="36" type="line" smooth="yes"/>
      <point x="265" y="19"/>
      <point x="278" y="-3"/>
      <point x="296" y="-9" type="curve" smooth="yes"/>
    </contour>
    <contour>
      <point x="475" y="144" type="line" smooth="yes"/>
      <point x="495" y="144"/>
      <point x="511" y="161"/>
      <point x="511" y="180" type="curve" smooth="yes"/>
      <point x="511" y="198"/>
      <point x="495" y="214"/>
      <point x="475" y="214" type="curve" smooth="yes"/>
      <point x="51" y="214" type="line" smooth="yes"/>
      <point x="30" y="214"/>
      <point x="14" y="198"/>
      <point x="14" y="180" type="curve" smooth="yes"/>
      <point x="14" y="161"/>
      <point x="30" y="144"/>
      <point x="51" y="144" type="curve" smooth="yes"/>
    </contour>
    <contour>
      <point x="104" y="-16"/>
      <point x="129" y="-7"/>
      <point x="136" y="10" type="curve" smooth="yes"/>
      <point x="321" y="497" type="line" smooth="yes"/>
      <point x="327" y="515"/>
      <point x="315" y="536"/>
      <point x="296" y="543" type="curve" smooth="yes"/>
      <point x="278" y="549"/>
      <point x="253" y="541"/>
      <point x="246" y="523" type="curve" smooth="yes"/>
      <point x="61" y="36" type="line" smooth="yes"/>
      <point x="55" y="19"/>
      <point x="68" y="-3"/>
      <point x="86" y="-9" type="curve" smooth="yes"/>
    </contour>
    <contour>
      <point x="548" y="346" type="line" smooth="yes"/>
      <point x="568" y="346"/>
      <point x="584" y="362"/>
      <point x="584" y="381" type="curve" smooth="yes"/>
      <point x="584" y="400"/>
      <point x="568" y="416"/>
      <point x="548" y="416" type="curve" smooth="yes"/>
      <point x="123" y="416" type="line" smooth="yes"/>
      <point x="102" y="416"/>
      <point x="86" y="400"/>
      <point x="86" y="381" type="curve" smooth="yes"/>
      <point x="86" y="362"/>
      <point x="102" y="346"/>
      <point x="123" y="346" type="curve" smooth="yes"/>
    </contour>
  </outline>
</glyph>
<glyph name="percent" format="1">
  <advance width="832"/>
  <unicode hex="0025"/>
  <outline>
    <contour>
      <point x="267" y="-17"/>
      <point x="292" y="-12"/>
      <point x="302" y="4" type="curve" smooth="yes"/>
      <point x="600" y="493" type="line" smooth="yes"/>
      <point x="610" y="509"/>
      <point x="602" y="532"/>
      <point x="585" y="541" type="curve" smooth="yes"/>
      <point x="568" y="551"/>
      <point x="543" y="546"/>
      <point x="533" y="529" type="curve" smooth="yes"/>
      <point x="235" y="41" type="line" smooth="yes"/>
      <point x="225" y="26"/>
      <point x="233" y="2"/>
      <point x="250" y="-7" type="curve" smooth="yes"/>
    </contour>
    <contour>
      <point x="293" y="209"/>
      <point x="356" y="280"/>
      <point x="356" y="382" type="curve" smooth="yes"/>
      <point x="356" y="489"/>
      <point x="281" y="554"/>
      <point x="202" y="554" type="curve" smooth="yes"/>
      <point x="118" y="554"/>
      <point x="47" y="489"/>
      <point x="47" y="381" type="curve" smooth="yes"/>
      <point x="47" y="281"/>
      <point x="119" y="209"/>
      <point x="202" y="209" type="curve" smooth="yes"/>
    </contour>
    <contour>
      <point x="152" y="280"/>
      <point x="128" y="333"/>
      <point x="128" y="381" type="curve" smooth="yes"/>
      <point x="128" y="433"/>
      <point x="151" y="484"/>
      <point x="202" y="484" type="curve" smooth="yes"/>
      <point x="249" y="484"/>
      <point x="275" y="433"/>
      <point x="275" y="382" type="curve" smooth="yes"/>
      <point x="275" y="334"/>
      <point x="256" y="280"/>
      <point x="202" y="280" type="curve" smooth="yes"/>
    </contour>
    <contour>
      <point x="722" y="-23"/>
      <point x="785" y="50"/>
      <point x="785" y="150" type="curve" smooth="yes"/>
      <point x="785" y="257"/>
      <point x="711" y="321"/>
      <point x="632" y="321" type="curve" smooth="yes"/>
      <point x="546" y="321"/>
      <point x="476" y="257"/>
      <point x="476" y="149" type="curve" smooth="yes"/>
      <point x="476" y="51"/>
      <point x="547" y="-23"/>
      <point x="632" y="-23" type="curve" smooth="yes"/>
    </contour>
    <contour>
      <point x="582" y="48"/>
      <point x="557" y="101"/>
      <point x="557" y="149" type="curve" smooth="yes"/>
      <point x="557" y="201"/>
      <point x="581" y="252"/>
      <point x="632" y="252" type="curve" smooth="yes"/>
      <point x="679" y="252"/>
      <point x="704" y="201"/>
      <point x="704" y="150" type="curve" smooth="yes"/>
      <point x="704" y="102"/>
      <point x="685" y="48"/>
      <point x="632" y="48" type="curve" smooth="yes"/>
    </contour>
  </outline>
</glyph>
<glyph name="ampersand" format="1">
  <advance width="643"/>
  <unicode hex="0026"/>
  <outline>
    <contour>
      <point x="319" y="-20"/>
      <point x="386" y="13"/>
      <point x="475" y="135" type="curve" smooth="yes"/>
      <point x="565" y="258" type="line" smooth="yes"/>
      <point x="577" y="274"/>
      <point x="572" y="296"/>
      <point x="556" y="308" type="curve" smooth="yes"/>
      <point x="540" y="319"/>
      <point x="515" y="316"/>
      <point x="504" y="300" type="curve" smooth="yes"/>
      <point x="414" y="177" type="line" smooth="yes"/>
      <point x="347" y="86"/>
      <point x="300" y="51"/>
      <point x="234" y="51" type="curve" smooth="yes"/>
      <point x="172" y="51"/>
      <point x="126" y="85"/>
      <point x="126" y="133" type="curve" smooth="yes"/>
      <point x="126" y="190"/>
      <point x="163" y="229"/>
      <point x="289" y="278" type="curve" smooth="yes"/>
      <point x="374" y="313"/>
      <point x="411" y="361"/>
      <point x="411" y="422" type="curve" smooth="yes"/>
      <point x="411" y="495"/>
      <point x="345" y="554"/>
      <point x="260" y="554" type="curve" smooth="yes"/>
      <point x="176" y="554"/>
      <point x="111" y="502"/>
      <point x="111" y="418" type="curve" smooth="yes"/>
      <point x="111" y="354"/>
      <point x="158" y="305"/>
      <point x="231" y="243" type="curve" smooth="yes"/>
      <point x="526" y="-3" type="line" smooth="yes"/>
      <point x="541" y="-16"/>
      <point x="566" y="-14"/>
      <point x="578" y="1" type="curve" smooth="yes"/>
      <point x="591" y="14"/>
      <point x="590" y="37"/>
      <point x="575" y="51" type="curve" smooth="yes"/>
      <point x="280" y="296" type="line" smooth="yes"/>
      <point x="229" y="340"/>
      <point x="192" y="373"/>
      <point x="192" y="418" type="curve" smooth="yes"/>
      <point x="192" y="456"/>
      <point x="219" y="484"/>
      <point x="260" y="484" type="curve" smooth="yes"/>
      <point x="300" y="484"/>
      <point x="330" y="456"/>
      <point x="330" y="422" type="curve" smooth="yes"/>
      <point x="330" y="388"/>
      <point x="307" y="362"/>
      <point x="260" y="343" type="curve" smooth="yes"/>
      <point x="78" y="272"/>
      <point x="45" y="210"/>
      <point x="45" y="133" type="curve" smooth="yes"/>
      <point x="45" y="48"/>
      <point x="121" y="-20"/>
      <point x="234" y="-20" type="curve" smooth="yes"/>
    </contour>
  </outline>
</glyph>
<glyph name="quotesingle" format="1">
  <advance width="234"/>
  <unicode hex="0027"/>
  <outline>
    <contour>
      <point x="102" y="346"/>
      <point x="126" y="358"/>
      <point x="130" y="376" type="curve" smooth="yes"/>
      <point x="172" y="553" type="line" smooth="yes"/>
      <point x="177" y="570"/>
      <point x="161" y="591"/>
      <point x="142" y="595" type="curve" smooth="yes"/>
      <point x="123" y="599"/>
      <point x="99" y="588"/>
      <point x="95" y="570" type="curve" smooth="yes"/>
      <point x="53" y="393" type="line" smooth="yes"/>
      <point x="49" y="375"/>
      <point x="64" y="355"/>
      <point x="83" y="351" type="curve" smooth="yes"/>
    </contour>
  </outline>
</glyph>
<glyph name="parenleft" format="1">
  <advance width="329"/>
  <unicode hex="0028"/>
  <outline>
    <contour>
      <point x="265" y="-93"/>
      <point x="270" y="-74"/>
      <point x="260" y="-60" type="curve" smooth="yes"/>
      <point x="210" y="-6"/>
      <point x="174" y="74"/>
      <point x="172" y="159" type="curve" smooth="yes"/>
      <point x="148" y="268"/>
      <point x="169" y="386"/>
      <point x="220" y="479" type="curve" smooth="yes"/>
      <point x="231" y="531"/>
      <point x="248" y="589"/>
      <point x="259" y="625" type="curve" smooth="yes"/>
      <point x="249" y="638"/>
      <point x="228" y="641"/>
      <point x="214" y="632" type="curve" smooth="yes"/>
      <point x="152" y="571"/>
      <point x="97" y="477"/>
      <point x="95" y="373" type="curve" smooth="yes"/>
      <point x="70" y="246"/>
      <point x="99" y="114"/>
      <point x="162" y="9" type="curve" smooth="yes"/>
      <point x="173" y="-46"/>
      <point x="212" y="-86"/>
      <point x="251" y="-101" type="curve" smooth="yes"/>
    </contour>
  </outline>
</glyph>
<glyph name="parenright" format="1">
  <advance width="329"/>
  <unicode hex="0029"/>
  <outline>
    <contour>
      <point x="85" y="-115"/>
      <point x="109" y="-115"/>
      <point x="122" y="-101" type="curve" smooth="yes"/>
      <point x="212" y="-13"/>
      <point x="279" y="118"/>
      <point x="279" y="260" type="curve" smooth="yes"/>
      <point x="279" y="405"/>
      <point x="208" y="542"/>
      <point x="123" y="631" type="curve" smooth="yes"/>
      <point x="110" y="645"/>
      <point x="86" y="646"/>
      <point x="71" y="633" type="curve" smooth="yes"/>
      <point x="56" y="620"/>
      <point x="55" y="597"/>
      <point x="68" y="583" type="curve" smooth="yes"/>
      <point x="141" y="506"/>
      <point x="198" y="385"/>
      <point x="198" y="260" type="curve" smooth="yes"/>
      <point x="198" y="138"/>
      <point x="145" y="25"/>
      <point x="69" y="-52" type="curve" smooth="yes"/>
      <point x="55" y="-66"/>
      <point x="55" y="-89"/>
      <point x="70" y="-101" type="curve" smooth="yes"/>
    </contour>
  </outline>
</glyph>
<glyph name="asterisk" format="1">
  <advance width="430"/>
  <unicode hex="002A"/>
  <outline>
    <contour>
      <point x="356" y="446" type="line" smooth="yes"/>
      <point x="373" y="456"/>
      <point x="379" y="477"/>
      <point x="369" y="493" type="curve" smooth="yes"/>
      <point x="359" y="509"/>
      <point x="336" y="515"/>
      <point x="319" y="505" type="curve" smooth="yes"/>
      <point x="74" y="368" type="line" smooth="yes"/>
      <point x="51.22" y="354.6"/>
      <point x="47.26" y="342.44"/>
      <point x="62" y="321" type="curve" smooth="yes"/>
      <point x="71" y="305"/>
      <point x="94" y="300"/>
      <point x="111" y="309" type="curve" smooth="yes"/>
    </contour>
    <contour>
      <point x="336" y="300"/>
      <point x="359" y="305"/>
      <point x="369" y="321" type="curve" smooth="yes"/>
      <point x="379" y="337"/>
      <point x="373" y="358"/>
      <point x="356" y="368" type="curve" smooth="yes"/>
      <point x="111" y="505" type="line" smooth="yes"/>
      <point x="94" y="515"/>
      <point x="71" y="509"/>
      <point x="62" y="493" type="curve" smooth="yes"/>
      <point x="51" y="477"/>
      <point x="57" y="456"/>
      <point x="74" y="446" type="curve" smooth="yes"/>
      <point x="319" y="309" type="line" smooth="yes"/>
    </contour>
    <contour>
      <point x="234" y="251"/>
      <point x="251" y="266"/>
      <point x="251" y="285" type="curve" smooth="yes"/>
      <point x="251" y="534" type="line" smooth="yes"/>
      <point x="251" y="553"/>
      <point x="234" y="568"/>
      <point x="215" y="568" type="curve" smooth="yes"/>
      <point x="195" y="568"/>
      <point x="178" y="553"/>
      <point x="178" y="534" type="curve" smooth="yes"/>
      <point x="178" y="285" type="line" smooth="yes"/>
      <point x="178" y="266"/>
      <point x="195" y="251"/>
      <point x="215" y="251" type="curve" smooth="yes"/>
    </contour>
  </outline>
</glyph>
<glyph name="plus" format="1">
  <advance width="534"/>
  <unicode hex="002B"/>
  <outline>
    <contour>
      <point x="444" y="231" type="line" smooth="yes"/>
      <point x="464" y="231"/>
      <point x="480" y="247"/>
      <point x="480" y="265" type="curve" smooth="yes"/>
      <point x="480" y="285"/>
      <point x="464" y="301"/>
      <point x="444" y="301" type="curve" smooth="yes"/>
      <point x="90" y="301" type="line" smooth="yes"/>
      <point x="69" y="301"/>
      <point x="53" y="285"/>
      <point x="53" y="265" type="curve" smooth="yes"/>
      <point x="53" y="247"/>
      <point x="69" y="231"/>
      <point x="90" y="231" type="curve" smooth="yes"/>
    </contour>
    <contour>
      <point x="287" y="66"/>
      <point x="307" y="82"/>
      <point x="307" y="100" type="curve" smooth="yes"/>
      <point x="307" y="429" type="line" smooth="yes"/>
      <point x="307" y="449"/>
      <point x="287" y="465"/>
      <point x="267" y="465" type="curve" smooth="yes"/>
      <point x="246" y="465"/>
      <point x="226" y="449"/>
      <point x="226" y="429" type="curve" smooth="yes"/>
      <point x="226" y="100" type="line" smooth="yes"/>
      <point x="226" y="82"/>
      <point x="246" y="66"/>
      <point x="267" y="66" type="curve" smooth="yes"/>
    </contour>
  </outline>
</glyph>
<glyph name="hyphen" format="1">
  <advance width="413"/>
  <unicode hex="002D"/>
  <outline>
    <contour>
      <point x="311" y="187" type="line" smooth="yes"/>
      <point x="331" y="187"/>
      <point x="348" y="202"/>
      <point x="348" y="222" type="curve" smooth="yes"/>
      <point x="348" y="241"/>
      <point x="331" y="256"/>
      <point x="311" y="256" type="curve" smooth="yes"/>
      <point x="103" y="256" type="line" smooth="yes"/>
      <point x="82" y="256"/>
      <point x="66" y="241"/>
      <point x="66" y="222" type="curve" smooth="yes"/>
      <point x="66" y="202"/>
      <point x="82" y="187"/>
      <point x="103" y="187" type="curve" smooth="yes"/>
    </contour>
  </outline>
</glyph>
<glyph name="period" format="1">
  <advance width="213"/>
  <unicode hex="002E"/>
  <outline>
    <contour>
      <point x="140" y="-6"/>
      <point x="170" y="7"/>
      <point x="170" y="58" type="curve" smooth="yes"/>
      <point x="170" y="98"/>
      <point x="139" y="121"/>
      <point x="108" y="121" type="curve" smooth="yes"/>
      <point x="72" y="121"/>
      <point x="46" y="99"/>
      <point x="46" y="58" type="curve" smooth="yes"/>
      <point x="46" y="9"/>
      <point x="80" y="-6"/>
      <point x="109" y="-6" type="curve" smooth="yes"/>
    </contour>
  </outline>
</glyph>
<glyph name="slash" format="1">
  <advance width="392"/>
  <unicode hex="002F"/>
  <outline>
    <contour>
      <point x="68" y="-117"/>
      <point x="93" y="-108"/>
      <point x="100" y="-91" type="curve" smooth="yes"/>
      <point x="361" y="594" type="line" smooth="yes"/>
      <point x="367" y="612"/>
      <point x="355" y="633"/>
      <point x="336" y="640" type="curve" smooth="yes"/>
      <point x="318" y="646"/>
      <point x="293" y="638"/>
      <point x="286" y="619" type="curve" smooth="yes"/>
      <point x="25" y="-65" type="line" smooth="yes"/>
      <point x="19" y="-82"/>
      <point x="32" y="-103"/>
      <point x="50" y="-110" type="curve" smooth="yes"/>
    </contour>
  </outline>
</glyph>
<glyph name="zero" format="1">
  <advance width="571"/>
  <unicode hex="0030"/>
  <outline>
    <contour>
      <point x="438" y="-21"/>
      <point x="534" y="103"/>
      <point x="534" y="268" type="curve" smooth="yes"/>
      <point x="534" y="442"/>
      <point x="418" y="555"/>
      <point x="287" y="555" type="curve" smooth="yes"/>
      <point x="145" y="555"/>
      <point x="36" y="442"/>
      <point x="36" y="266" type="curve" smooth="yes"/>
      <point x="36" y="104"/>
      <point x="148" y="-21"/>
      <point x="287" y="-21" type="curve" smooth="yes"/>
    </contour>
    <contour>
      <point x="181" y="50"/>
      <point x="117" y="156"/>
      <point x="117" y="266" type="curve" smooth="yes"/>
      <point x="117" y="387"/>
      <point x="180" y="485"/>
      <point x="287" y="485" type="curve" smooth="yes"/>
      <point x="386" y="485"/>
      <point x="453" y="387"/>
      <point x="453" y="268" type="curve" smooth="yes"/>
      <point x="453" y="157"/>
      <point x="401" y="50"/>
      <point x="287" y="50" type="curve" smooth="yes"/>
    </contour>
  </outline>
</glyph>
<glyph name="one" format="1">
  <advance width="321"/>
  <unicode hex="0031"/>
  <outline>
    <contour>
      <point x="224" y="-12"/>
      <point x="244" y="4"/>
      <point x="244" y="24" type="curve" smooth="yes"/>
      <point x="244" y="505" type="line" smooth="yes"/>
      <point x="244" y="523"/>
      <point x="224" y="539"/>
      <point x="204" y="539" type="curve" smooth="yes"/>
      <point x="183" y="539"/>
      <point x="163" y="523"/>
      <point x="163" y="505" type="curve" smooth="yes"/>
      <point x="163" y="24" type="line" smooth="yes"/>
      <point x="163" y="4"/>
      <point x="183" y="-12"/>
      <point x="204" y="-12" type="curve" smooth="yes"/>
    </contour>
    <contour>
      <point x="221" y="480" type="line" smooth="yes"/>
      <point x="239" y="490"/>
      <point x="245" y="511"/>
      <point x="236" y="528" type="curve" smooth="yes"/>
      <point x="226" y="545"/>
      <point x="204" y="551"/>
      <point x="186" y="542" type="curve" smooth="yes"/>
      <point x="50" y="471" type="line" smooth="yes"/>
      <point x="32" y="462"/>
      <point x="26" y="440"/>
      <point x="35" y="423" type="curve" smooth="yes"/>
      <point x="45" y="407"/>
      <point x="68" y="400"/>
      <point x="85" y="409" type="curve" smooth="yes"/>
    </contour>
  </outline>
</glyph>
<glyph name="two" format="1">
  <advance width="510"/>
  <unicode hex="0032"/>
  <outline>
    <contour>
      <point x="279" y="167" type="line" smooth="yes"/>
      <point x="407" y="283"/>
      <point x="444" y="336"/>
      <point x="444" y="406" type="curve" smooth="yes"/>
      <point x="444" y="480"/>
      <point x="387" y="555"/>
      <point x="260" y="555" type="curve" smooth="yes"/>
      <point x="198" y="555"/>
      <point x="137" y="539"/>
      <point x="81" y="506" type="curve" smooth="yes"/>
      <point x="64" y="495"/>
      <point x="59" y="474"/>
      <point x="70" y="457" type="curve" smooth="yes"/>
      <point x="80" y="441"/>
      <point x="103" y="436"/>
      <point x="120" y="446" type="curve" smooth="yes"/>
      <point x="164" y="472"/>
      <point x="211" y="485"/>
      <point x="260" y="485" type="curve" smooth="yes"/>
      <point x="327" y="485"/>
      <point x="363" y="448"/>
      <point x="363" y="406" type="curve" smooth="yes"/>
      <point x="363" y="350"/>
      <point x="328" y="310"/>
      <point x="228" y="217" type="curve" smooth="yes"/>
      <point x="53" y="57" type="line" smooth="yes"/>
      <point x="38" y="45"/>
      <point x="38" y="22"/>
      <point x="52" y="7" type="curve" smooth="yes"/>
      <point x="66" y="-6"/>
      <point x="90" y="-7"/>
      <point x="104" y="6" type="curve" smooth="yes"/>
    </contour>
    <contour>
      <point x="438" y="-12" type="line" smooth="yes"/>
      <point x="458" y="-12"/>
      <point x="474" y="4"/>
      <point x="474" y="24" type="curve" smooth="yes"/>
      <point x="474" y="42"/>
      <point x="458" y="58"/>
      <point x="438" y="58" type="curve" smooth="yes"/>
      <point x="69" y="58" type="line" smooth="yes"/>
      <point x="48" y="58"/>
      <point x="32" y="42"/>
      <point x="32" y="24" type="curve" smooth="yes"/>
      <point x="32" y="4"/>
      <point x="48" y="-12"/>
      <point x="69" y="-12" type="curve" smooth="yes"/>
    </contour>
  </outline>
</glyph>
<glyph name="three" format="1">
  <advance width="515"/>
  <unicode hex="0033"/>
  <outline>
    <contour>
      <point x="410" y="-16"/>
      <point x="477" y="61"/>
      <point x="477" y="157" type="curve" smooth="yes"/>
      <point x="477" y="251"/>
      <point x="402" y="321"/>
      <point x="268" y="321" type="curve" smooth="yes"/>
      <point x="213" y="321"/>
      <point x="169" y="313"/>
      <point x="144" y="305" type="curve" smooth="yes"/>
      <point x="125" y="298"/>
      <point x="115" y="278"/>
      <point x="120" y="260" type="curve" smooth="yes"/>
      <point x="127" y="242"/>
      <point x="149" y="233"/>
      <point x="167" y="238" type="curve" smooth="yes"/>
      <point x="188" y="245"/>
      <point x="224" y="252"/>
      <point x="268" y="252" type="curve" smooth="yes"/>
      <point x="345" y="252"/>
      <point x="396" y="215"/>
      <point x="396" y="157" type="curve" smooth="yes"/>
      <point x="396" y="95"/>
      <point x="347" y="54"/>
      <point x="257" y="54" type="curve" smooth="yes"/>
      <point x="197" y="54"/>
      <point x="146" y="65"/>
      <point x="106" y="82" type="curve" smooth="yes"/>
      <point x="88" y="89"/>
      <point x="66" y="82"/>
      <point x="58" y="63" type="curve" smooth="yes"/>
      <point x="50" y="47"/>
      <point x="59" y="26"/>
      <point x="77" y="18" type="curve" smooth="yes"/>
      <point x="125" y="-1"/>
      <point x="186" y="-16"/>
      <point x="257" y="-16" type="curve" smooth="yes"/>
    </contour>
    <contour>
      <point x="437" y="477" type="line" smooth="yes"/>
      <point x="452" y="491"/>
      <point x="452" y="514"/>
      <point x="438" y="527" type="curve" smooth="yes"/>
      <point x="425" y="541"/>
      <point x="401" y="542"/>
      <point x="386" y="530" type="curve" smooth="yes"/>
      <point x="135" y="303" type="line" smooth="yes"/>
      <point x="120" y="289"/>
      <point x="120" y="266"/>
      <point x="134" y="253" type="curve" smooth="yes"/>
      <point x="147" y="238"/>
      <point x="171" y="237"/>
      <point x="186" y="250" type="curve" smooth="yes"/>
    </contour>
    <contour>
      <point x="422" y="476" type="line" smooth="yes"/>
      <point x="442" y="476"/>
      <point x="458" y="492"/>
      <point x="458" y="511" type="curve" smooth="yes"/>
      <point x="458" y="530"/>
      <point x="442" y="546"/>
      <point x="422" y="546" type="curve" smooth="yes"/>
      <point x="110" y="546" type="line" smooth="yes"/>
      <point x="89" y="546"/>
      <point x="73" y="530"/>
      <point x="73" y="511" type="curve" smooth="yes"/>
      <point x="73" y="492"/>
      <point x="89" y="476"/>
      <point x="110" y="476" type="curve" smooth="yes"/>
    </contour>
  </outline>
</glyph>
<glyph name="four" format="1">
  <advance width="535"/>
  <unicode hex="0034"/>
  <outline>
    <contour>
      <point x="44" y="109"/>
      <point x="69" y="110"/>
      <point x="82" y="125" type="curve" smooth="yes"/>
      <point x="396" y="489" type="line" smooth="yes"/>
      <point x="408" y="504"/>
      <point x="405" y="527"/>
      <point x="390" y="539" type="curve" smooth="yes"/>
      <point x="375" y="551"/>
      <point x="350" y="549"/>
      <point x="338" y="535" type="curve" smooth="yes"/>
      <point x="24" y="171" type="line" smooth="yes"/>
      <point x="11" y="156"/>
      <point x="14" y="132"/>
      <point x="29" y="121" type="curve" smooth="yes"/>
    </contour>
    <contour>
      <point x="488" y="113" type="line" smooth="yes"/>
      <point x="508" y="113"/>
      <point x="524" y="129"/>
      <point x="524" y="148" type="curve" smooth="yes"/>
      <point x="524" y="167"/>
      <point x="508" y="183"/>
      <point x="488" y="183" type="curve" smooth="yes"/>
      <point x="64" y="183" type="line" smooth="yes"/>
      <point x="43" y="183"/>
      <point x="27" y="167"/>
      <point x="27" y="148" type="curve" smooth="yes"/>
      <point x="27" y="129"/>
      <point x="43" y="113"/>
      <point x="64" y="113" type="curve" smooth="yes"/>
    </contour>
    <contour>
      <point x="394" y="-12"/>
      <point x="414" y="4"/>
      <point x="414" y="24" type="curve" smooth="yes"/>
      <point x="414" y="521" type="line" smooth="yes"/>
      <point x="414" y="540"/>
      <point x="394" y="556"/>
      <point x="374" y="556" type="curve" smooth="yes"/>
      <point x="353" y="556"/>
      <point x="333" y="540"/>
      <point x="333" y="521" type="curve" smooth="yes"/>
      <point x="333" y="24" type="line" smooth="yes"/>
      <point x="333" y="4"/>
      <point x="353" y="-12"/>
      <point x="374" y="-12" type="curve" smooth="yes"/>
    </contour>
  </outline>
</glyph>
<glyph name="five" format="1">
  <advance width="524"/>
  <unicode hex="0035"/>
  <outline>
    <contour>
      <point x="416" y="-16"/>
      <point x="483" y="66"/>
      <point x="483" y="168" type="curve" smooth="yes"/>
      <point x="483" y="265"/>
      <point x="406" y="340"/>
      <point x="273" y="340" type="curve" smooth="yes"/>
      <point x="195" y="340"/>
      <point x="140" y="321"/>
      <point x="103" y="304" type="curve" smooth="yes"/>
      <point x="85" y="296"/>
      <point x="77" y="275"/>
      <point x="85" y="257" type="curve" smooth="yes"/>
      <point x="94" y="240"/>
      <point x="116" y="233"/>
      <point x="135" y="240" type="curve" smooth="yes"/>
      <point x="165" y="255"/>
      <point x="210" y="270"/>
      <point x="273" y="270" type="curve" smooth="yes"/>
      <point x="351" y="270"/>
      <point x="402" y="228"/>
      <point x="402" y="168" type="curve" smooth="yes"/>
      <point x="402" y="103"/>
      <point x="359" y="54"/>
      <point x="268" y="54" type="curve" smooth="yes"/>
      <point x="204" y="54"/>
      <point x="146" y="68"/>
      <point x="105" y="87" type="curve" smooth="yes"/>
      <point x="87" y="94"/>
      <point x="64" y="87"/>
      <point x="56" y="70" type="curve" smooth="yes"/>
      <point x="48" y="53"/>
      <point x="56" y="31"/>
      <point x="74" y="23" type="curve" smooth="yes"/>
      <point x="123" y="2"/>
      <point x="193" y="-16"/>
      <point x="268" y="-16" type="curve" smooth="yes"/>
    </contour>
    <contour>
      <point x="135" y="241"/>
      <point x="157" y="257"/>
      <point x="159" y="275" type="curve" smooth="yes"/>
      <point x="179" y="501" type="line" smooth="yes"/>
      <point x="181" y="520"/>
      <point x="161" y="538"/>
      <point x="142" y="539" type="curve" smooth="yes"/>
      <point x="122" y="541"/>
      <point x="100" y="526"/>
      <point x="98" y="507" type="curve" smooth="yes"/>
      <point x="78" y="282" type="line" smooth="yes"/>
      <point x="77" y="262"/>
      <point x="96" y="245"/>
      <point x="115" y="243" type="curve" smooth="yes"/>
    </contour>
    <contour>
      <point x="410" y="476" type="line" smooth="yes"/>
      <point x="430" y="476"/>
      <point x="446" y="492"/>
      <point x="446" y="511" type="curve" smooth="yes"/>
      <point x="446" y="530"/>
      <point x="430" y="546"/>
      <point x="410" y="546" type="curve" smooth="yes"/>
      <point x="140" y="546" type="line" smooth="yes"/>
      <point x="119" y="546"/>
      <point x="103" y="530"/>
      <point x="103" y="511" type="curve" smooth="yes"/>
      <point x="103" y="492"/>
      <point x="119" y="476"/>
      <point x="140" y="476" type="curve" smooth="yes"/>
    </contour>
  </outline>
</glyph>
<glyph name="six" format="1">
  <advance width="543"/>
  <unicode hex="0036"/>
  <outline>
    <contour>
      <point x="442" y="-16"/>
      <point x="504" y="80"/>
      <point x="504" y="172" type="curve" smooth="yes"/>
      <point x="504" y="276"/>
      <point x="424" y="346"/>
      <point x="309" y="346" type="curve" smooth="yes"/>
      <point x="200" y="346"/>
      <point x="104" y="280"/>
      <point x="68" y="152" type="curve" smooth="yes"/>
      <point x="62" y="133"/>
      <point x="76" y="112"/>
      <point x="96" y="107" type="curve" smooth="yes"/>
      <point x="115" y="102"/>
      <point x="138" y="112"/>
      <point x="143" y="130" type="curve" smooth="yes"/>
      <point x="169" y="219"/>
      <point x="230" y="276"/>
      <point x="309" y="276" type="curve" smooth="yes"/>
      <point x="377" y="276"/>
      <point x="423" y="233"/>
      <point x="423" y="172" type="curve" smooth="yes"/>
      <point x="423" y="115"/>
      <point x="383" y="54"/>
      <point x="288" y="54" type="curve" smooth="yes"/>
      <point x="188" y="54"/>
      <point x="129" y="127"/>
      <point x="129" y="251" type="curve" smooth="yes"/>
      <point x="129" y="387"/>
      <point x="190" y="485"/>
      <point x="310" y="485" type="curve" smooth="yes"/>
      <point x="340" y="485"/>
      <point x="360" y="481"/>
      <point x="385" y="473" type="curve" smooth="yes"/>
      <point x="403" y="467"/>
      <point x="425" y="478"/>
      <point x="431" y="496" type="curve" smooth="yes"/>
      <point x="436" y="513"/>
      <point x="426" y="535"/>
      <point x="406" y="540" type="curve" smooth="yes"/>
      <point x="375" y="550"/>
      <point x="349" y="555"/>
      <point x="310" y="555" type="curve" smooth="yes"/>
      <point x="155" y="555"/>
      <point x="48" y="448"/>
      <point x="48" y="251" type="curve" smooth="yes"/>
      <point x="48" y="65"/>
      <point x="153" y="-16"/>
      <point x="288" y="-16" type="curve" smooth="yes"/>
    </contour>
  </outline>
</glyph>
<glyph name="eight" format="1">
  <advance width="563"/>
  <unicode hex="0038"/>
  <outline>
    <contour>
      <point x="458" y="-20"/>
      <point x="515" y="62"/>
      <point x="515" y="151" type="curve" smooth="yes"/>
      <point x="515" y="249"/>
      <point x="430" y="321"/>
      <point x="283" y="321" type="curve" smooth="yes"/>
      <point x="127" y="321"/>
      <point x="48" y="249"/>
      <point x="48" y="150" type="curve" smooth="yes"/>
      <point x="48" y="63"/>
      <point x="118" y="-20"/>
      <point x="283" y="-20" type="curve" smooth="yes"/>
    </contour>
    <contour>
      <point x="187" y="51"/>
      <point x="129" y="92"/>
      <point x="129" y="150" type="curve" smooth="yes"/>
      <point x="129" y="215"/>
      <point x="190" y="252"/>
      <point x="283" y="252" type="curve" smooth="yes"/>
      <point x="370" y="252"/>
      <point x="434" y="215"/>
      <point x="434" y="151" type="curve" smooth="yes"/>
      <point x="434" y="92"/>
      <point x="385" y="51"/>
      <point x="283" y="51" type="curve" smooth="yes"/>
    </contour>
    <contour>
      <point x="425" y="252"/>
      <point x="488" y="324"/>
      <point x="488" y="405" type="curve" smooth="yes"/>
      <point x="488" y="490"/>
      <point x="415" y="554"/>
      <point x="283" y="554" type="curve" smooth="yes"/>
      <point x="144" y="554"/>
      <point x="75" y="490"/>
      <point x="75" y="405" type="curve" smooth="yes"/>
      <point x="75" y="324"/>
      <point x="133" y="252"/>
      <point x="283" y="252" type="curve" smooth="yes"/>
    </contour>
    <contour>
      <point x="202" y="321"/>
      <point x="156" y="355"/>
      <point x="156" y="405" type="curve" smooth="yes"/>
      <point x="156" y="457"/>
      <point x="209" y="484"/>
      <point x="283" y="484" type="curve" smooth="yes"/>
      <point x="353" y="484"/>
      <point x="407" y="457"/>
      <point x="407" y="405" type="curve" smooth="yes"/>
      <point x="407" y="355"/>
      <point x="360" y="321"/>
      <point x="283" y="321" type="curve" smooth="yes"/>
    </contour>
  </outline>
</glyph>
<glyph name="colon" format="1">
  <advance width="241"/>
  <unicode hex="003A"/>
  <outline>
    <contour>
      <point x="153" y="259"/>
      <point x="182" y="273"/>
      <point x="182" y="323" type="curve" smooth="yes"/>
      <point x="182" y="361"/>
      <point x="153" y="387"/>
      <point x="120" y="387" type="curve" smooth="yes"/>
      <point x="86" y="387"/>
      <point x="58" y="362"/>
      <point x="58" y="323" type="curve" smooth="yes"/>
      <point x="58" y="275"/>
      <point x="94" y="259"/>
      <point x="121" y="259" type="curve" smooth="yes"/>
    </contour>
    <contour>
      <point x="154" y="-13"/>
      <point x="182" y="2"/>
      <point x="182" y="51" type="curve" smooth="yes"/>
      <point x="182" y="91"/>
      <point x="152" y="116"/>
      <point x="120" y="116" type="curve" smooth="yes"/>
      <point x="87" y="116"/>
      <point x="58" y="92"/>
      <point x="58" y="51" type="curve" smooth="yes"/>
      <point x="58" y="3"/>
      <point x="94" y="-13"/>
      <point x="121" y="-13" type="curve" smooth="yes"/>
    </contour>
  </outline>
</glyph>
<glyph name="less" format="1">
  <advance width="534"/>
  <unicode hex="003C"/>
  <outline>
    <contour>
      <point x="432" y="78"/>
      <point x="455" y="86"/>
      <point x="463" y="103" type="curve" smooth="yes"/>
      <point x="471" y="122"/>
      <point x="463" y="142"/>
      <point x="445" y="150" type="curve" smooth="yes"/>
      <point x="107" y="296" type="line" smooth="yes"/>
      <point x="89" y="305"/>
      <point x="66" y="296"/>
      <point x="58" y="279" type="curve" smooth="yes"/>
      <point x="50" y="261"/>
      <point x="58" y="241"/>
      <point x="77" y="233" type="curve" smooth="yes"/>
      <point x="415" y="86" type="line" smooth="yes"/>
    </contour>
    <contour>
      <point x="439" y="378" type="line" smooth="yes"/>
      <point x="457" y="385"/>
      <point x="465" y="406"/>
      <point x="457" y="423" type="curve" smooth="yes"/>
      <point x="449" y="441"/>
      <point x="427" y="450"/>
      <point x="409" y="441" type="curve" smooth="yes"/>
      <point x="83" y="300" type="line" smooth="yes"/>
      <point x="64" y="292"/>
      <point x="56" y="272"/>
      <point x="64" y="255" type="curve" smooth="yes"/>
      <point x="72" y="236"/>
      <point x="94" y="229"/>
      <point x="113" y="236" type="curve" smooth="yes"/>
    </contour>
  </outline>
</glyph>
<glyph name="equal" format="1">
  <advance width="534"/>
  <unicode hex="003D"/>
  <outline>
    <contour>
      <point x="444" y="325" type="line" smooth="yes"/>
      <point x="464" y="325"/>
      <point x="480" y="341"/>
      <point x="480" y="359" type="curve" smooth="yes"/>
      <point x="480" y="379"/>
      <point x="464" y="395"/>
      <point x="444" y="395" type="curve" smooth="yes"/>
      <point x="90" y="395" type="line" smooth="yes"/>
      <point x="69" y="395"/>
      <point x="53" y="379"/>
      <point x="53" y="359" type="curve" smooth="yes"/>
      <point x="53" y="341"/>
      <point x="69" y="325"/>
      <point x="90" y="325" type="curve" smooth="yes"/>
    </contour>
    <contour>
      <point x="444" y="126" type="line" smooth="yes"/>
      <point x="464" y="126"/>
      <point x="480" y="141"/>
      <point x="480" y="160" type="curve" smooth="yes"/>
      <point x="480" y="180"/>
      <point x="464" y="195"/>
      <point x="444" y="195" type="curve" smooth="yes"/>
      <point x="90" y="195" type="line" smooth="yes"/>
      <point x="69" y="195"/>
      <point x="53" y="180"/>
      <point x="53" y="160" type="curve" smooth="yes"/>
      <point x="53" y="141"/>
      <point x="69" y="126"/>
      <point x="90" y="126" type="curve" smooth="yes"/>
    </contour>
  </outline>
</glyph>
<glyph name="greater" format="1">
  <advance width="518"/>
  <unicode hex="003E"/>
  <outline>
    <contour>
      <point x="454" y="233" type="line" smooth="yes"/>
      <point x="472" y="241"/>
      <point x="480" y="261"/>
      <point x="472" y="279" type="curve" smooth="yes"/>
      <point x="464" y="296"/>
      <point x="441" y="305"/>
      <point x="424" y="296" type="curve" smooth="yes"/>
      <point x="86" y="150" type="line" smooth="yes"/>
      <point x="67" y="142"/>
      <point x="59" y="122"/>
      <point x="67" y="103" type="curve" smooth="yes"/>
      <point x="75" y="86"/>
      <point x="98" y="78"/>
      <point x="116" y="86" type="curve" smooth="yes"/>
    </contour>
    <contour>
      <point x="435" y="229"/>
      <point x="458" y="236"/>
      <point x="466" y="255" type="curve" smooth="yes"/>
      <point x="474" y="272"/>
      <point x="466" y="292"/>
      <point x="448" y="300" type="curve" smooth="yes"/>
      <point x="123" y="441" type="line" smooth="yes"/>
      <point x="105" y="450"/>
      <point x="82" y="441"/>
      <point x="74" y="423" type="curve" smooth="yes"/>
      <point x="66" y="406"/>
      <point x="74" y="385"/>
      <point x="93" y="378" type="curve" smooth="yes"/>
      <point x="418" y="236" type="line" smooth="yes"/>
    </contour>
  </outline>
</glyph>
<glyph name="A" format="1">
  <advance width="586"/>
  <unicode hex="0041"/>
  <outline>
    <contour>
      <point x="550" y="-2"/>
      <point x="563" y="19"/>
      <point x="555" y="38" type="curve" smooth="yes"/>
      <point x="505" y="162"/>
      <point x="401" y="381"/>
      <point x="325" y="536" type="curve" smooth="yes"/>
      <point x="316" y="553"/>
      <point x="292" y="560"/>
      <point x="274" y="552" type="curve" smooth="yes"/>
      <point x="256" y="544"/>
      <point x="246" y="522"/>
      <point x="254" y="505" type="curve" smooth="yes"/>
      <point x="330" y="351"/>
      <point x="432" y="133"/>
      <point x="482" y="11" type="curve" smooth="yes"/>
      <point x="489" y="-7"/>
      <point x="513" y="-16"/>
      <point x="532" y="-9" type="curve" smooth="yes"/>
    </contour>
    <contour>
      <point x="72" y="-15"/>
      <point x="96" y="-7"/>
      <point x="103" y="12" type="curve" smooth="yes"/>
      <point x="150" y="137"/>
      <point x="249" y="353"/>
      <point x="319" y="506" type="curve" smooth="yes"/>
      <point x="328" y="523"/>
      <point x="317" y="545"/>
      <point x="299" y="552" type="curve" smooth="yes"/>
      <point x="280" y="560"/>
      <point x="256" y="553"/>
      <point x="248" y="535" type="curve" smooth="yes"/>
      <point x="176" y="381"/>
      <point x="75" y="164"/>
      <point x="28" y="37" type="curve" smooth="yes"/>
      <point x="22" y="19"/>
      <point x="35" y="-3"/>
      <point x="53" y="-9" type="curve" smooth="yes"/>
    </contour>
    <contour>
      <point x="444" y="135" type="line" smooth="yes"/>
      <point x="464" y="135"/>
      <point x="480" y="150"/>
      <point x="480" y="170" type="curve" smooth="yes"/>
      <point x="480" y="189"/>
      <point x="464" y="204"/>
      <point x="444" y="204" type="curve" smooth="yes"/>
      <point x="138" y="204" type="line" smooth="yes"/>
      <point x="117" y="204"/>
      <point x="101" y="189"/>
      <point x="101" y="170" type="curve" smooth="yes"/>
      <point x="101" y="150"/>
      <point x="117" y="135"/>
      <point x="138" y="135" type="curve" smooth="yes"/>
    </contour>
    <contour>
      <point x="522" y="46" type="move" name="ogonek"/>
    </contour>
    <contour>
      <point x="286" y="558" type="move" name="top"/>
    </contour>
  </outline>
</glyph>
<glyph name="E" format="1">
  <advance width="488"/>
  <unicode hex="0045"/>
  <outline>
    <contour>
      <point x="138" y="-12"/>
      <point x="158" y="4"/>
      <point x="158" y="24" type="curve" smooth="yes"/>
      <point x="158" y="511" type="line" smooth="yes"/>
      <point x="158" y="530"/>
      <point x="138" y="546"/>
      <point x="118" y="546" type="curve" smooth="yes"/>
      <point x="97" y="546"/>
      <point x="77" y="530"/>
      <point x="77" y="511" type="curve" smooth="yes"/>
      <point x="77" y="24" type="line" smooth="yes"/>
      <point x="77" y="4"/>
      <point x="97" y="-12"/>
      <point x="118" y="-12" type="curve" smooth="yes"/>
    </contour>
    <contour>
      <point x="411" y="-12" type="line" smooth="yes"/>
      <point x="431" y="-12"/>
      <point x="447" y="4"/>
      <point x="447" y="24" type="curve" smooth="yes"/>
      <point x="447" y="42"/>
      <point x="431" y="58"/>
      <point x="411" y="58" type="curve" smooth="yes"/>
      <point x="127" y="58" type="line" smooth="yes"/>
      <point x="106" y="58"/>
      <point x="90" y="42"/>
      <point x="90" y="24" type="curve" smooth="yes"/>
      <point x="90" y="4"/>
      <point x="106" y="-12"/>
      <point x="127" y="-12" type="curve" smooth="yes"/>
    </contour>
    <contour>
      <point x="364" y="251" type="line" smooth="yes"/>
      <point x="384" y="251"/>
      <point x="400" y="266"/>
      <point x="400" y="286" type="curve" smooth="yes"/>
      <point x="400" y="305"/>
      <point x="384" y="320"/>
      <point x="364" y="320" type="curve" smooth="yes"/>
      <point x="127" y="320" type="line" smooth="yes"/>
      <point x="106" y="320"/>
      <point x="90" y="305"/>
      <point x="90" y="286" type="curve" smooth="yes"/>
      <point x="90" y="266"/>
      <point x="106" y="251"/>
      <point x="127" y="251" type="curve" smooth="yes"/>
    </contour>
    <contour>
      <point x="409" y="476" type="line" smooth="yes"/>
      <point x="429" y="476"/>
      <point x="445" y="492"/>
      <point x="445" y="511" type="curve" smooth="yes"/>
      <point x="445" y="530"/>
      <point x="429" y="546"/>
      <point x="409" y="546" type="curve" smooth="yes"/>
      <point x="127" y="546" type="line" smooth="yes"/>
      <point x="106" y="546"/>
      <point x="90" y="530"/>
      <point x="90" y="511" type="curve" smooth="yes"/>
      <point x="90" y="492"/>
      <point x="106" y="476"/>
      <point x="127" y="476" type="curve" smooth="yes"/>
    </contour>
    <contour>
      <point x="412" y="29" type="move" name="ogonek"/>
    </contour>
    <contour>
      <point x="256" y="547" type="move" name="top"/>
    </contour>
  </outline>
</glyph>
<glyph name="F" format="1">
  <advance width="476"/>
  <unicode hex="0046"/>
  <outline>
    <contour>
      <point x="138" y="-12"/>
      <point x="158" y="4"/>
      <point x="158" y="24" type="curve" smooth="yes"/>
      <point x="158" y="511" type="line" smooth="yes"/>
      <point x="158" y="530"/>
      <point x="138" y="546"/>
      <point x="118" y="546" type="curve" smooth="yes"/>
      <point x="97" y="546"/>
      <point x="77" y="530"/>
      <point x="77" y="511" type="curve" smooth="yes"/>
      <point x="77" y="24" type="line" smooth="yes"/>
      <point x="77" y="4"/>
      <point x="97" y="-12"/>
      <point x="118" y="-12" type="curve" smooth="yes"/>
    </contour>
    <contour>
      <point x="364" y="232" type="line" smooth="yes"/>
      <point x="384" y="232"/>
      <point x="400" y="248"/>
      <point x="400" y="266" type="curve" smooth="yes"/>
      <point x="400" y="286"/>
      <point x="384" y="302"/>
      <point x="364" y="302" type="curve" smooth="yes"/>
      <point x="127" y="302" type="line" smooth="yes"/>
      <point x="106" y="302"/>
      <point x="90" y="286"/>
      <point x="90" y="266" type="curve" smooth="yes"/>
      <point x="90" y="248"/>
      <point x="106" y="232"/>
      <point x="127" y="232" type="curve" smooth="yes"/>
    </contour>
    <contour>
      <point x="417" y="476" type="line" smooth="yes"/>
      <point x="437" y="476"/>
      <point x="453" y="492"/>
      <point x="453" y="511" type="curve" smooth="yes"/>
      <point x="453" y="530"/>
      <point x="437" y="546"/>
      <point x="417" y="546" type="curve" smooth="yes"/>
      <point x="127" y="546" type="line" smooth="yes"/>
      <point x="106" y="546"/>
      <point x="90" y="530"/>
      <point x="90" y="511" type="curve" smooth="yes"/>
      <point x="90" y="492"/>
      <point x="106" y="476"/>
      <point x="127" y="476" type="curve" smooth="yes"/>
    </contour>
  </outline>
</glyph>
<glyph name="G" format="1">
  <advance width="626"/>
  <unicode hex="0047"/>
  <outline>
    <contour>
      <point x="426" y="-22"/>
      <point x="491" y="2"/>
      <point x="546" y="35" type="curve" smooth="yes"/>
      <point x="562" y="43"/>
      <point x="567" y="66"/>
      <point x="557" y="83" type="curve" smooth="yes"/>
      <point x="546" y="98"/>
      <point x="522" y="103"/>
      <point x="505" y="92" type="curve" smooth="yes"/>
      <point x="462" y="66"/>
      <point x="409" y="49"/>
      <point x="338" y="49" type="curve" smooth="yes"/>
      <point x="197" y="49"/>
      <point x="119" y="146"/>
      <point x="119" y="263" type="curve" smooth="yes"/>
      <point x="119" y="394"/>
      <point x="210" y="486"/>
      <point x="341" y="486" type="curve" smooth="yes"/>
      <point x="394" y="486"/>
      <point x="440" y="475"/>
      <point x="480" y="460" type="curve" smooth="yes"/>
      <point x="499" y="453"/>
      <point x="520" y="463"/>
      <point x="528" y="480" type="curve" smooth="yes"/>
      <point x="535" y="498"/>
      <point x="525" y="519"/>
      <point x="507" y="526" type="curve" smooth="yes"/>
      <point x="459" y="543"/>
      <point x="405" y="556"/>
      <point x="341" y="556" type="curve" smooth="yes"/>
      <point x="169" y="556"/>
      <point x="38" y="440"/>
      <point x="38" y="263" type="curve" smooth="yes"/>
      <point x="38" y="103"/>
      <point x="150" y="-22"/>
      <point x="338" y="-22" type="curve" smooth="yes"/>
    </contour>
    <contour>
      <point x="515" y="213" type="line" smooth="yes"/>
      <point x="535" y="213"/>
      <point x="551" y="229"/>
      <point x="551" y="249" type="curve" smooth="yes"/>
      <point x="551" y="268"/>
      <point x="535" y="284"/>
      <point x="515" y="284" type="curve" smooth="yes"/>
      <point x="354" y="284" type="line" smooth="yes"/>
      <point x="333" y="284"/>
      <point x="317" y="268"/>
      <point x="317" y="249" type="curve" smooth="yes"/>
      <point x="317" y="229"/>
      <point x="333" y="213"/>
      <point x="354" y="213" type="curve" smooth="yes"/>
    </contour>
    <contour>
      <point x="547" y="37"/>
      <point x="567" y="54"/>
      <point x="567" y="73" type="curve" smooth="yes"/>
      <point x="567" y="249" type="line" smooth="yes"/>
      <point x="567" y="268"/>
      <point x="547" y="284"/>
      <point x="527" y="284" type="curve" smooth="yes"/>
      <point x="506" y="284"/>
      <point x="486" y="268"/>
      <point x="486" y="249" type="curve" smooth="yes"/>
      <point x="486" y="73" type="line" smooth="yes"/>
      <point x="486" y="54"/>
      <point x="506" y="37"/>
      <point x="527" y="37" type="curve" smooth="yes"/>
    </contour>
    <contour>
      <point x="315" y="555" type="move" name="top"/>
    </contour>
    <contour>
      <point x="320" y="-19" type="move" name="bottom"/>
    </contour>
  </outline>
</glyph>
<glyph name="I" format="1">
  <advance width="246"/>
  <unicode hex="0049"/>
  <outline>
    <contour>
      <point x="143" y="-12"/>
      <point x="163" y="4"/>
      <point x="163" y="24" type="curve" smooth="yes"/>
      <point x="163" y="511" type="line" smooth="yes"/>
      <point x="163" y="530"/>
      <point x="143" y="546"/>
      <point x="123" y="546" type="curve" smooth="yes"/>
      <point x="102" y="546"/>
      <point x="82" y="530"/>
      <point x="82" y="511" type="curve" smooth="yes"/>
      <point x="82" y="24" type="line" smooth="yes"/>
      <point x="82" y="4"/>
      <point x="102" y="-12"/>
      <point x="123" y="-12" type="curve" smooth="yes"/>
    </contour>
    <contour>
      <point x="127" y="49" type="move" name="ogonek"/>
    </contour>
    <contour>
      <point x="123" y="-13" type="move" name="bottom"/>
    </contour>
    <contour>
      <point x="123" y="546" type="move" name="top"/>
    </contour>
  </outline>
</glyph>
<glyph name="K" format="1">
  <advance width="562"/>
  <unicode hex="004B"/>
  <outline>
    <contour>
      <point x="194" y="210"/>
      <point x="392" y="381"/>
      <point x="498" y="486" type="curve" smooth="yes"/>
      <point x="511" y="500"/>
      <point x="511" y="523"/>
      <point x="496" y="536" type="curve" smooth="yes"/>
      <point x="481" y="549"/>
      <point x="457" y="549"/>
      <point x="443" y="535" type="curve" smooth="yes"/>
      <point x="339" y="431"/>
      <point x="143" y="262"/>
      <point x="93" y="218" type="curve" smooth="yes"/>
      <point x="78" y="206"/>
      <point x="77" y="183"/>
      <point x="90" y="168" type="curve" smooth="yes"/>
      <point x="103" y="155"/>
      <point x="127" y="153"/>
      <point x="142" y="166" type="curve" smooth="yes"/>
    </contour>
    <contour>
      <point x="138" y="-12"/>
      <point x="158" y="4"/>
      <point x="158" y="24" type="curve" smooth="yes"/>
      <point x="158" y="511" type="line" smooth="yes"/>
      <point x="158" y="530"/>
      <point x="138" y="546"/>
      <point x="118" y="546" type="curve" smooth="yes"/>
      <point x="97" y="546"/>
      <point x="77" y="530"/>
      <point x="77" y="511" type="curve" smooth="yes"/>
      <point x="77" y="24" type="line" smooth="yes"/>
      <point x="77" y="4"/>
      <point x="97" y="-12"/>
      <point x="118" y="-12" type="curve" smooth="yes"/>
    </contour>
    <contour>
      <point x="531" y="9"/>
      <point x="533" y="32"/>
      <point x="520" y="47" type="curve" smooth="yes"/>
      <point x="462" y="110"/>
      <point x="337" y="256"/>
      <point x="277" y="326" type="curve" smooth="yes"/>
      <point x="264" y="341"/>
      <point x="239" y="342"/>
      <point x="224" y="330" type="curve" smooth="yes"/>
      <point x="209" y="318"/>
      <point x="206" y="295"/>
      <point x="219" y="280" type="curve" smooth="yes"/>
      <point x="279" y="210"/>
      <point x="405" y="63"/>
      <point x="463" y="0" type="curve" smooth="yes"/>
      <point x="477" y="-15"/>
      <point x="501" y="-16"/>
      <point x="516" y="-3" type="curve" smooth="yes"/>
    </contour>
    <contour>
      <point x="280" y="24" type="move" name="bottom"/>
    </contour>
  </outline>
</glyph>
<glyph name="L" format="1">
  <advance width="459"/>
  <unicode hex="004C"/>
  <outline>
    <contour>
      <point x="138" y="-12"/>
      <point x="158" y="4"/>
      <point x="158" y="24" type="curve" smooth="yes"/>
      <point x="158" y="511" type="line" smooth="yes"/>
      <point x="158" y="530"/>
      <point x="138" y="546"/>
      <point x="118" y="546" type="curve" smooth="yes"/>
      <point x="97" y="546"/>
      <point x="77" y="530"/>
      <point x="77" y="511" type="curve" smooth="yes"/>
      <point x="77" y="24" type="line" smooth="yes"/>
      <point x="77" y="4"/>
      <point x="97" y="-12"/>
      <point x="118" y="-12" type="curve" smooth="yes"/>
    </contour>
    <contour>
      <point x="403" y="-12" type="line" smooth="yes"/>
      <point x="423" y="-12"/>
      <point x="439" y="4"/>
      <point x="439" y="24" type="curve" smooth="yes"/>
      <point x="439" y="42"/>
      <point x="423" y="58"/>
      <point x="403" y="58" type="curve" smooth="yes"/>
      <point x="127" y="58" type="line" smooth="yes"/>
      <point x="106" y="58"/>
      <point x="90" y="42"/>
      <point x="90" y="24" type="curve" smooth="yes"/>
      <point x="90" y="4"/>
      <point x="106" y="-12"/>
      <point x="127" y="-12" type="curve" smooth="yes"/>
    </contour>
    <contour>
      <point x="117" y="545" type="move" name="top"/>
    </contour>
    <contour>
      <point x="261" y="-10" type="move" name="bottom"/>
    </contour>
  </outline>
</glyph>
<glyph name="O" format="1">
  <advance width="649"/>
  <unicode hex="004F"/>
  <outline>
    <contour>
      <point x="502" y="-22"/>
      <point x="611" y="101"/>
      <point x="611" y="266" type="curve" smooth="yes"/>
      <point x="611" y="439"/>
      <point x="482" y="556"/>
      <point x="327" y="556" type="curve" smooth="yes"/>
      <point x="158" y="556"/>
      <point x="38" y="439"/>
      <point x="38" y="263" type="curve" smooth="yes"/>
      <point x="38" y="102"/>
      <point x="160" y="-22"/>
      <point x="327" y="-22" type="curve" smooth="yes"/>
    </contour>
    <contour>
      <point x="201" y="49"/>
      <point x="119" y="148"/>
      <point x="119" y="263" type="curve" smooth="yes"/>
      <point x="119" y="391"/>
      <point x="199" y="486"/>
      <point x="327" y="486" type="curve" smooth="yes"/>
      <point x="443" y="486"/>
      <point x="530" y="391"/>
      <point x="530" y="266" type="curve" smooth="yes"/>
      <point x="530" y="149"/>
      <point x="459" y="49"/>
      <point x="327" y="49" type="curve" smooth="yes"/>
    </contour>
    <contour>
      <point x="325" y="558" type="move" name="top"/>
    </contour>
    <contour>
      <point x="328" y="-19" type="move" name="bottom"/>
    </contour>
  </outline>
</glyph>
<glyph name="P" format="1">
  <advance width="513"/>
  <unicode hex="0050"/>
  <outline>
    <contour>
      <point x="138" y="-12"/>
      <point x="158" y="4"/>
      <point x="158" y="24" type="curve" smooth="yes"/>
      <point x="158" y="511" type="line"/>
      <point x="118" y="476" type="line"/>
      <point x="268" y="476" type="line" smooth="yes"/>
      <point x="349" y="476"/>
      <point x="407" y="427"/>
      <point x="407" y="356" type="curve" smooth="yes"/>
      <point x="407" y="289"/>
      <point x="360" y="236"/>
      <point x="268" y="236" type="curve" smooth="yes"/>
      <point x="145" y="236" type="line" smooth="yes"/>
      <point x="124" y="236"/>
      <point x="108" y="220"/>
      <point x="108" y="200" type="curve" smooth="yes"/>
      <point x="108" y="182"/>
      <point x="124" y="166"/>
      <point x="145" y="166" type="curve" smooth="yes"/>
      <point x="268" y="166" type="line" smooth="yes"/>
      <point x="413" y="166"/>
      <point x="488" y="252"/>
      <point x="488" y="356" type="curve" smooth="yes"/>
      <point x="488" y="468"/>
      <point x="398" y="546"/>
      <point x="268" y="546" type="curve" smooth="yes"/>
      <point x="118" y="546" type="line" smooth="yes"/>
      <point x="95" y="546"/>
      <point x="77" y="530"/>
      <point x="77" y="511" type="curve" smooth="yes"/>
      <point x="77" y="24" type="line" smooth="yes"/>
      <point x="77" y="4"/>
      <point x="97" y="-12"/>
      <point x="118" y="-12" type="curve" smooth="yes"/>
    </contour>
  </outline>
</glyph>
<glyph name="R" format="1">
  <advance width="545"/>
  <unicode hex="0052"/>
  <outline>
    <contour>
      <point x="138" y="-12"/>
      <point x="158" y="4"/>
      <point x="158" y="24" type="curve" smooth="yes"/>
      <point x="158" y="511" type="line"/>
      <point x="118" y="476" type="line"/>
      <point x="273" y="476" type="line" smooth="yes"/>
      <point x="352" y="476"/>
      <point x="406" y="432"/>
      <point x="406" y="367" type="curve" smooth="yes"/>
      <point x="406" y="307"/>
      <point x="360" y="258"/>
      <point x="273" y="258" type="curve" smooth="yes"/>
      <point x="135" y="258" type="line" smooth="yes"/>
      <point x="114" y="258"/>
      <point x="98" y="243"/>
      <point x="98" y="224" type="curve" smooth="yes"/>
      <point x="98" y="204"/>
      <point x="114" y="189"/>
      <point x="135" y="189" type="curve" smooth="yes"/>
      <point x="273" y="189" type="line" smooth="yes"/>
      <point x="417" y="189"/>
      <point x="487" y="271"/>
      <point x="487" y="367" type="curve" smooth="yes"/>
      <point x="487" y="472"/>
      <point x="403" y="546"/>
      <point x="273" y="546" type="curve" smooth="yes"/>
      <point x="118" y="546" type="line" smooth="yes"/>
      <point x="95" y="546"/>
      <point x="77" y="530"/>
      <point x="77" y="511" type="curve" smooth="yes"/>
      <point x="77" y="24" type="line" smooth="yes"/>
      <point x="77" y="4"/>
      <point x="97" y="-12"/>
      <point x="118" y="-12" type="curve" smooth="yes"/>
    </contour>
    <contour>
      <point x="515" y="9"/>
      <point x="517" y="31"/>
      <point x="504" y="46" type="curve" smooth="yes"/>
      <point x="331" y="241" type="line" smooth="yes"/>
      <point x="318" y="255"/>
      <point x="294" y="256"/>
      <point x="278" y="244" type="curve" smooth="yes"/>
      <point x="263" y="232"/>
      <point x="261" y="209"/>
      <point x="274" y="195" type="curve" smooth="yes"/>
      <point x="447" y="1" type="line" smooth="yes"/>
      <point x="460" y="-14"/>
      <point x="484" y="-16"/>
      <point x="500" y="-3" type="curve" smooth="yes"/>
    </contour>
    <contour>
      <point x="257" y="548" type="move" name="top"/>
    </contour>
    <contour>
      <point x="276" y="29" type="move" name="bottom"/>
    </contour>
  </outline>
</glyph>
<glyph name="S" format="1">
  <advance width="528"/>
  <unicode hex="0053"/>
  <outline>
    <contour>
      <point x="419" y="-21"/>
      <point x="477" y="58"/>
      <point x="477" y="137" type="curve" smooth="yes"/>
      <point x="477" y="215"/>
      <point x="433" y="280"/>
      <point x="272" y="314" type="curve" smooth="yes"/>
      <point x="169" y="334"/>
      <point x="141" y="373"/>
      <point x="141" y="412" type="curve" smooth="yes"/>
      <point x="141" y="451"/>
      <point x="185" y="483"/>
      <point x="244" y="483" type="curve" smooth="yes"/>
      <point x="310" y="483"/>
      <point x="342" y="472"/>
      <point x="388" y="454" type="curve" smooth="yes"/>
      <point x="407" y="448"/>
      <point x="428" y="457"/>
      <point x="436" y="475" type="curve" smooth="yes"/>
      <point x="443" y="492"/>
      <point x="433" y="513"/>
      <point x="415" y="520" type="curve" smooth="yes"/>
      <point x="361" y="541"/>
      <point x="323" y="553"/>
      <point x="244" y="553" type="curve" smooth="yes"/>
      <point x="125" y="553"/>
      <point x="60" y="481"/>
      <point x="60" y="412" type="curve" smooth="yes"/>
      <point x="60" y="352"/>
      <point x="82" y="278"/>
      <point x="259" y="246" type="curve" smooth="yes"/>
      <point x="354" y="225"/>
      <point x="396" y="189"/>
      <point x="396" y="137" type="curve" smooth="yes"/>
      <point x="396" y="88"/>
      <point x="350" y="50"/>
      <point x="265" y="50" type="curve" smooth="yes"/>
      <point x="208" y="50"/>
      <point x="154" y="61"/>
      <point x="106" y="88" type="curve" smooth="yes"/>
      <point x="89" y="97"/>
      <point x="66" y="91"/>
      <point x="56" y="75" type="curve" smooth="yes"/>
      <point x="46" y="59"/>
      <point x="52" y="36"/>
      <point x="69" y="28" type="curve" smooth="yes"/>
      <point x="129" y="-5"/>
      <point x="195" y="-21"/>
      <point x="265" y="-21" type="curve" smooth="yes"/>
    </contour>
    <contour>
      <point x="245" y="552" type="move" name="top"/>
    </contour>
    <contour>
      <point x="253" y="-22" type="move" name="bottom"/>
    </contour>
  </outline>
</glyph>
<glyph name="V" format="1">
  <advance width="591"/>
  <unicode hex="0056"/>
  <outline>
    <contour>
      <point x="297" y="-27"/>
      <point x="321" y="-21"/>
      <point x="331" y="-3" type="curve" smooth="yes"/>
      <point x="377" y="81"/>
      <point x="509" y="353"/>
      <point x="562" y="498" type="curve" smooth="yes"/>
      <point x="568" y="517"/>
      <point x="556" y="538"/>
      <point x="536" y="545" type="curve" smooth="yes"/>
      <point x="518" y="550"/>
      <point x="494" y="541"/>
      <point x="487" y="524" type="curve" smooth="yes"/>
      <point x="436" y="381"/>
      <point x="308" y="115"/>
      <point x="262" y="30" type="curve" smooth="yes"/>
      <point x="253" y="14"/>
      <point x="262" y="-9"/>
      <point x="280" y="-18" type="curve" smooth="yes"/>
    </contour>
    <contour>
      <point x="329" y="-2"/>
      <point x="337" y="20"/>
      <point x="328" y="36" type="curve" smooth="yes"/>
      <point x="286" y="111"/>
      <point x="147" y="401"/>
      <point x="105" y="524" type="curve" smooth="yes"/>
      <point x="99" y="541"/>
      <point x="75" y="551"/>
      <point x="56" y="546" type="curve" smooth="yes"/>
      <point x="38" y="540"/>
      <point x="24" y="519"/>
      <point x="30" y="500" type="curve" smooth="yes"/>
      <point x="72" y="374"/>
      <point x="217" y="77"/>
      <point x="259" y="1" type="curve" smooth="yes"/>
      <point x="269" y="-15"/>
      <point x="294" y="-21"/>
      <point x="311" y="-12" type="curve" smooth="yes"/>
    </contour>
  </outline>
</glyph>
<glyph name="W" format="1">
  <advance width="919"/>
  <unicode hex="0057"/>
  <outline>
    <contour>
      <point x="269" y="-26"/>
      <point x="294" y="-18"/>
      <point x="301" y="0" type="curve" smooth="yes"/>
      <point x="341" y="85"/>
      <point x="452" y="353"/>
      <point x="497" y="496" type="curve" smooth="yes"/>
      <point x="503" y="515"/>
      <point x="490" y="535"/>
      <point x="470" y="541" type="curve" smooth="yes"/>
      <point x="451" y="546"/>
      <point x="427" y="536"/>
      <point x="422" y="519" type="curve" smooth="yes"/>
      <point x="377" y="378"/>
      <point x="268" y="113"/>
      <point x="230" y="29" type="curve" smooth="yes"/>
      <point x="222" y="12"/>
      <point x="232" y="-10"/>
      <point x="251" y="-17" type="curve" smooth="yes"/>
    </contour>
    <contour>
      <point x="295" y="-3"/>
      <point x="306" y="20"/>
      <point x="296" y="36" type="curve" smooth="yes"/>
      <point x="260" y="110"/>
      <point x="157" y="397"/>
      <point x="123" y="521" type="curve" smooth="yes"/>
      <point x="118" y="538"/>
      <point x="94" y="549"/>
      <point x="75" y="544" type="curve" smooth="yes"/>
      <point x="56" y="539"/>
      <point x="41" y="518"/>
      <point x="46" y="500" type="curve" smooth="yes"/>
      <point x="82" y="374"/>
      <point x="189" y="80"/>
      <point x="227" y="4" type="curve" smooth="yes"/>
      <point x="235" y="-13"/>
      <point x="259" y="-20"/>
      <point x="278" y="-11" type="curve" smooth="yes"/>
    </contour>
    <contour>
      <point x="685" y="-3"/>
      <point x="695" y="19"/>
      <point x="685" y="36" type="curve" smooth="yes"/>
      <point x="648" y="110"/>
      <point x="542" y="386"/>
      <point x="502" y="507" type="curve" smooth="yes"/>
      <point x="497" y="525"/>
      <point x="473" y="534"/>
      <point x="454" y="529" type="curve" smooth="yes"/>
      <point x="435" y="524"/>
      <point x="421" y="502"/>
      <point x="427" y="485" type="curve" smooth="yes"/>
      <point x="467" y="361"/>
      <point x="577" y="78"/>
      <point x="616" y="2" type="curve" smooth="yes"/>
      <point x="624" y="-14"/>
      <point x="649" y="-21"/>
      <point x="667" y="-12" type="curve" smooth="yes"/>
    </contour>
    <contour>
      <point x="658" y="-27"/>
      <point x="683" y="-19"/>
      <point x="690" y="-1" type="curve" smooth="yes"/>
      <point x="730" y="84"/>
      <point x="830" y="355"/>
      <point x="873" y="500" type="curve" smooth="yes"/>
      <point x="879" y="518"/>
      <point x="865" y="539"/>
      <point x="846" y="544" type="curve" smooth="yes"/>
      <point x="826" y="549"/>
      <point x="803" y="539"/>
      <point x="798" y="521" type="curve" smooth="yes"/>
      <point x="755" y="378"/>
      <point x="657" y="112"/>
      <point x="619" y="28" type="curve" smooth="yes"/>
      <point x="611" y="11"/>
      <point x="621" y="-11"/>
      <point x="640" y="-18" type="curve" smooth="yes"/>
    </contour>
    <contour>
      <point x="459" y="539" type="move" name="top"/>
    </contour>
  </outline>
</glyph>
<glyph name="X" format="1">
  <advance width="568"/>
  <unicode hex="0058"/>
  <outline>
    <contour>
      <point x="529" y="5"/>
      <point x="534" y="28"/>
      <point x="522" y="44" type="curve" smooth="yes"/>
      <point x="461" y="128"/>
      <point x="224" y="390"/>
      <point x="123" y="532" type="curve" smooth="yes"/>
      <point x="111" y="548"/>
      <point x="87" y="551"/>
      <point x="71" y="540" type="curve" smooth="yes"/>
      <point x="55" y="529"/>
      <point x="49" y="507"/>
      <point x="60" y="491" type="curve" smooth="yes"/>
      <point x="161" y="350"/>
      <point x="398" y="87"/>
      <point x="461" y="2" type="curve" smooth="yes"/>
      <point x="472" y="-13"/>
      <point x="497" y="-17"/>
      <point x="513" y="-5" type="curve" smooth="yes"/>
    </contour>
    <contour>
      <point x="72" y="-16"/>
      <point x="97" y="-14"/>
      <point x="108" y="1" type="curve" smooth="yes"/>
      <point x="191" y="109"/>
      <point x="412" y="356"/>
      <point x="503" y="492" type="curve" smooth="yes"/>
      <point x="514" y="508"/>
      <point x="507" y="530"/>
      <point x="491" y="541" type="curve" smooth="yes"/>
      <point x="474" y="551"/>
      <point x="449" y="547"/>
      <point x="438" y="531" type="curve" smooth="yes"/>
      <point x="349" y="397"/>
      <point x="130" y="153"/>
      <point x="47" y="45" type="curve" smooth="yes"/>
      <point x="35" y="29"/>
      <point x="40" y="6"/>
      <point x="56" y="-4" type="curve" smooth="yes"/>
    </contour>
  </outline>
</glyph>
<glyph name="Y" format="1">
  <advance width="565"/>
  <unicode hex="0059"/>
  <outline>
    <contour>
      <point x="278" y="160"/>
      <point x="303" y="163"/>
      <point x="315" y="177" type="curve" smooth="yes"/>
      <point x="367" y="243"/>
      <point x="488" y="422"/>
      <point x="532" y="493" type="curve" smooth="yes"/>
      <point x="542" y="509"/>
      <point x="535" y="532"/>
      <point x="518" y="541" type="curve" smooth="yes"/>
      <point x="500" y="551"/>
      <point x="475" y="546"/>
      <point x="465" y="530" type="curve" smooth="yes"/>
      <point x="423" y="462"/>
      <point x="306" y="286"/>
      <point x="255" y="220" type="curve" smooth="yes"/>
      <point x="242" y="205"/>
      <point x="247" y="182"/>
      <point x="263" y="170" type="curve" smooth="yes"/>
    </contour>
    <contour>
      <point x="305" y="-12"/>
      <point x="325" y="4"/>
      <point x="325" y="24" type="curve" smooth="yes"/>
      <point x="325" y="192" type="line" smooth="yes"/>
      <point x="325" y="211"/>
      <point x="305" y="227"/>
      <point x="285" y="227" type="curve" smooth="yes"/>
      <point x="264" y="227"/>
      <point x="244" y="211"/>
      <point x="244" y="192" type="curve" smooth="yes"/>
      <point x="244" y="24" type="line" smooth="yes"/>
      <point x="244" y="4"/>
      <point x="264" y="-12"/>
      <point x="285" y="-12" type="curve" smooth="yes"/>
    </contour>
    <contour>
      <point x="319" y="188"/>
      <point x="324" y="211"/>
      <point x="312" y="225" type="curve" smooth="yes"/>
      <point x="267" y="283"/>
      <point x="143" y="461"/>
      <point x="100" y="530" type="curve" smooth="yes"/>
      <point x="89" y="546"/>
      <point x="65" y="551"/>
      <point x="47" y="541" type="curve" smooth="yes"/>
      <point x="30" y="531"/>
      <point x="23" y="509"/>
      <point x="33" y="493" type="curve" smooth="yes"/>
      <point x="78" y="421"/>
      <point x="206" y="240"/>
      <point x="251" y="183" type="curve" smooth="yes"/>
      <point x="263" y="168"/>
      <point x="287" y="165"/>
      <point x="303" y="176" type="curve" smooth="yes"/>
    </contour>
    <contour>
      <point x="282" y="516" type="move" name="top"/>
    </contour>
  </outline>
</glyph>
<glyph name="Z" format="1">
  <advance width="568"/>
  <unicode hex="005A"/>
  <outline>
    <contour>
      <point x="83" y="-9"/>
      <point x="108" y="-4"/>
      <point x="119" y="11" type="curve" smooth="yes"/>
      <point x="174" y="94"/>
      <point x="439" y="396"/>
      <point x="505" y="492" type="curve" smooth="yes"/>
      <point x="517" y="507"/>
      <point x="510" y="530"/>
      <point x="494" y="541" type="curve" smooth="yes"/>
      <point x="477" y="551"/>
      <point x="453" y="547"/>
      <point x="442" y="531" type="curve" smooth="yes"/>
      <point x="376" y="435"/>
      <point x="109" y="133"/>
      <point x="54" y="51" type="curve" smooth="yes"/>
      <point x="43" y="34"/>
      <point x="50" y="12"/>
      <point x="66" y="2" type="curve" smooth="yes"/>
    </contour>
    <contour>
      <point x="487" y="-12" type="line" smooth="yes"/>
      <point x="507" y="-12"/>
      <point x="523" y="4"/>
      <point x="523" y="24" type="curve" smooth="yes"/>
      <point x="523" y="42"/>
      <point x="507" y="58"/>
      <point x="487" y="58" type="curve" smooth="yes"/>
      <point x="82" y="58" type="line" smooth="yes"/>
      <point x="61" y="58"/>
      <point x="45" y="42"/>
      <point x="45" y="24" type="curve" smooth="yes"/>
      <point x="45" y="4"/>
      <point x="61" y="-12"/>
      <point x="82" y="-12" type="curve" smooth="yes"/>
    </contour>
    <contour>
      <point x="463" y="476" type="line" smooth="yes"/>
      <point x="483" y="476"/>
      <point x="499" y="492"/>
      <point x="499" y="511" type="curve" smooth="yes"/>
      <point x="499" y="530"/>
      <point x="483" y="546"/>
      <point x="463" y="546" type="curve" smooth="yes"/>
      <point x="96" y="546" type="line" smooth="yes"/>
      <point x="75" y="546"/>
      <point x="59" y="530"/>
      <point x="59" y="511" type="curve" smooth="yes"/>
      <point x="59" y="492"/>
      <point x="75" y="476"/>
      <point x="96" y="476" type="curve" smooth="yes"/>
    </contour>
    <contour>
      <point x="279" y="547" type="move" name="top"/>
    </contour>
  </outline>
</glyph>
<glyph name="bracketleft" format="1">
  <advance width="329"/>
  <unicode hex="005B"/>
  <outline>
    <contour>
      <point x="234" y="-112" type="line" smooth="yes"/>
      <point x="254" y="-112"/>
      <point x="270" y="-96"/>
      <point x="270" y="-76" type="curve" smooth="yes"/>
      <point x="270" y="-58"/>
      <point x="254" y="-42"/>
      <point x="234" y="-42" type="curve" smooth="yes"/>
      <point x="92" y="-42" type="line"/>
      <point x="132" y="-76" type="line"/>
      <point x="132" y="607" type="line"/>
      <point x="92" y="572" type="line"/>
      <point x="234" y="572" type="line" smooth="yes"/>
      <point x="254" y="572"/>
      <point x="270" y="588"/>
      <point x="270" y="607" type="curve" smooth="yes"/>
      <point x="270" y="626"/>
      <point x="254" y="642"/>
      <point x="234" y="642" type="curve" smooth="yes"/>
      <point x="92" y="642" type="line" smooth="yes"/>
      <point x="69" y="642"/>
      <point x="51" y="626"/>
      <point x="51" y="607" type="curve" smooth="yes"/>
      <point x="51" y="-76" type="line" smooth="yes"/>
      <point x="51" y="-96"/>
      <point x="69" y="-112"/>
      <point x="92" y="-112" type="curve" smooth="yes"/>
    </contour>
  </outline>
</glyph>
<glyph name="backslash" format="1">
  <advance width="392"/>
  <unicode hex="005C"/>
  <outline>
    <contour>
      <point x="361" y="-85"/>
      <point x="373" y="-64"/>
      <point x="367" y="-45" type="curve" smooth="yes"/>
      <point x="106" y="639" type="line" smooth="yes"/>
      <point x="99" y="657"/>
      <point x="74" y="665"/>
      <point x="56" y="659" type="curve" smooth="yes"/>
      <point x="38" y="652"/>
      <point x="25" y="631"/>
      <point x="31" y="613" type="curve" smooth="yes"/>
      <point x="292" y="-71" type="line" smooth="yes"/>
      <point x="299" y="-90"/>
      <point x="324" y="-97"/>
      <point x="342" y="-92" type="curve" smooth="yes"/>
    </contour>
  </outline>
</glyph>
<glyph name="underscore" format="1">
  <advance width="497"/>
  <unicode hex="005F"/>
  <outline>
    <contour>
      <point x="467" y="-120" type="line" smooth="yes"/>
      <point x="487" y="-120"/>
      <point x="503" y="-103"/>
      <point x="503" y="-84" type="curve" smooth="yes"/>
      <point x="503" y="-66"/>
      <point x="487" y="-49"/>
      <point x="467" y="-49" type="curve" smooth="yes"/>
      <point x="31" y="-49" type="line" smooth="yes"/>
      <point x="10" y="-49"/>
      <point x="-6" y="-66"/>
      <point x="-6" y="-84" type="curve" smooth="yes"/>
      <point x="-6" y="-103"/>
      <point x="10" y="-120"/>
      <point x="31" y="-120" type="curve" smooth="yes"/>
    </contour>
  </outline>
</glyph>
<glyph name="a" format="1">
  <advance width="453"/>
  <unicode hex="0061"/>
  <outline>
    <contour>
      <point x="436" y="13"/>
      <point x="438" y="36"/>
      <point x="425" y="51" type="curve" smooth="yes"/>
      <point x="405" y="72"/>
      <point x="398" y="98"/>
      <point x="398" y="141" type="curve" smooth="yes"/>
      <point x="398" y="233" type="line" smooth="yes"/>
      <point x="398" y="338"/>
      <point x="338" y="406"/>
      <point x="218" y="406" type="curve" smooth="yes"/>
      <point x="178" y="406"/>
      <point x="133" y="396"/>
      <point x="109" y="388" type="curve" smooth="yes"/>
      <point x="90" y="383"/>
      <point x="79" y="362"/>
      <point x="84" y="345" type="curve" smooth="yes"/>
      <point x="90" y="326"/>
      <point x="112" y="316"/>
      <point x="130" y="322" type="curve" smooth="yes"/>
      <point x="150" y="328"/>
      <point x="187" y="336"/>
      <point x="218" y="336" type="curve" smooth="yes"/>
      <point x="289" y="336"/>
      <point x="317" y="291"/>
      <point x="317" y="233" type="curve" smooth="yes"/>
      <point x="317" y="141" type="line" smooth="yes"/>
      <point x="317" y="73"/>
      <point x="338" y="35"/>
      <point x="368" y="3" type="curve" smooth="yes"/>
      <point x="382" y="-11"/>
      <point x="406" y="-12"/>
      <point x="421" y="1" type="curve" smooth="yes"/>
    </contour>
    <contour>
      <point x="261" y="-9"/>
      <point x="330" y="25"/>
      <point x="388" y="100" type="curve" smooth="yes"/>
      <point x="400" y="116"/>
      <point x="395" y="139"/>
      <point x="379" y="150" type="curve" smooth="yes"/>
      <point x="363" y="162"/>
      <point x="338" y="158"/>
      <point x="327" y="144" type="curve" smooth="yes"/>
      <point x="285" y="89"/>
      <point x="238" y="61"/>
      <point x="173" y="61" type="curve" smooth="yes"/>
      <point x="130" y="61"/>
      <point x="111" y="87"/>
      <point x="111" y="107" type="curve" smooth="yes"/>
      <point x="111" y="123"/>
      <point x="112" y="138"/>
      <point x="125" y="151" type="curve" smooth="yes"/>
      <point x="152" y="176"/>
      <point x="196" y="190"/>
      <point x="260" y="190" type="curve" smooth="yes"/>
      <point x="290" y="190"/>
      <point x="321" y="188"/>
      <point x="356" y="187" type="curve" smooth="yes"/>
      <point x="375" y="186"/>
      <point x="393" y="201"/>
      <point x="393" y="221" type="curve" smooth="yes"/>
      <point x="394" y="239"/>
      <point x="377" y="256"/>
      <point x="358" y="256" type="curve" smooth="yes"/>
      <point x="322" y="257"/>
      <point x="290" y="259"/>
      <point x="260" y="259" type="curve" smooth="yes"/>
      <point x="169" y="259"/>
      <point x="111" y="237"/>
      <point x="74" y="202" type="curve" smooth="yes"/>
      <point x="43" y="175"/>
      <point x="30" y="145"/>
      <point x="30" y="107" type="curve" smooth="yes"/>
      <point x="30" y="59"/>
      <point x="65" y="-9"/>
      <point x="173" y="-9" type="curve" smooth="yes"/>
    </contour>
    <contour>
      <point x="399" y="36" type="move" name="ogonek"/>
    </contour>
    <contour>
      <point x="213" y="406" type="move" name="top"/>
    </contour>
  </outline>
</glyph>
<glyph name="c" format="1">
  <advance width="445"/>
  <unicode hex="0063"/>
  <outline>
    <contour>
      <point x="319" y="-9"/>
      <point x="358" y="1"/>
      <point x="391" y="12" type="curve" smooth="yes"/>
      <point x="409" y="19"/>
      <point x="419" y="39"/>
      <point x="412" y="59" type="curve" smooth="yes"/>
      <point x="405" y="76"/>
      <point x="383" y="85"/>
      <point x="364" y="78" type="curve" smooth="yes"/>
      <point x="339" y="69"/>
      <point x="308" y="61"/>
      <point x="271" y="61" type="curve" smooth="yes"/>
      <point x="172" y="61"/>
      <point x="117" y="117"/>
      <point x="117" y="190" type="curve" smooth="yes"/>
      <point x="117" y="273"/>
      <point x="172" y="336"/>
      <point x="272" y="336" type="curve" smooth="yes"/>
      <point x="298" y="336"/>
      <point x="329" y="330"/>
      <point x="354" y="323" type="curve" smooth="yes"/>
      <point x="372" y="317"/>
      <point x="394" y="327"/>
      <point x="400" y="346" type="curve" smooth="yes"/>
      <point x="405" y="363"/>
      <point x="395" y="384"/>
      <point x="375" y="389" type="curve" smooth="yes"/>
      <point x="344" y="399"/>
      <point x="305" y="406"/>
      <point x="272" y="406" type="curve" smooth="yes"/>
      <point x="123" y="406"/>
      <point x="36" y="316"/>
      <point x="36" y="190" type="curve" smooth="yes"/>
      <point x="36" y="79"/>
      <point x="119" y="-9"/>
      <point x="271" y="-9" type="curve" smooth="yes"/>
    </contour>
    <contour>
      <point x="253" y="406" type="move" name="top"/>
    </contour>
    <contour>
      <point x="244" y="-5" type="move" name="bottom"/>
    </contour>
  </outline>
</glyph>
<glyph name="d" format="1">
  <advance width="517"/>
  <unicode hex="0064"/>
  <outline>
    <contour>
      <point x="326" y="-13"/>
      <point x="397" y="43"/>
      <point x="446" y="122" type="curve" smooth="yes"/>
      <point x="456" y="138"/>
      <point x="449" y="160"/>
      <point x="431" y="170" type="curve" smooth="yes"/>
      <point x="414" y="181"/>
      <point x="389" y="175"/>
      <point x="379" y="158" type="curve" smooth="yes"/>
      <point x="346" y="105"/>
      <point x="301" y="57"/>
      <point x="234" y="57" type="curve" smooth="yes"/>
      <point x="164" y="57"/>
      <point x="117" y="112"/>
      <point x="117" y="187" type="curve" smooth="yes"/>
      <point x="117" y="268"/>
      <point x="173" y="332"/>
      <point x="256" y="332" type="curve" smooth="yes"/>
      <point x="309" y="332"/>
      <point x="350" y="312"/>
      <point x="390" y="280" type="curve" smooth="yes"/>
      <point x="405" y="268"/>
      <point x="429" y="270"/>
      <point x="442" y="285" type="curve" smooth="yes"/>
      <point x="454" y="299"/>
      <point x="453" y="322"/>
      <point x="437" y="334" type="curve" smooth="yes"/>
      <point x="383" y="377"/>
      <point x="328" y="402"/>
      <point x="256" y="402" type="curve" smooth="yes"/>
      <point x="132" y="402"/>
      <point x="36" y="315"/>
      <point x="36" y="187" type="curve" smooth="yes"/>
      <point x="36" y="62"/>
      <point x="125" y="-13"/>
      <point x="234" y="-13" type="curve" smooth="yes"/>
    </contour>
    <contour>
      <point x="434" y="-13"/>
      <point x="454" y="3"/>
      <point x="454" y="23" type="curve" smooth="yes"/>
      <point x="454" y="537" type="line" smooth="yes"/>
      <point x="454" y="556"/>
      <point x="434" y="572"/>
      <point x="414" y="572" type="curve" smooth="yes"/>
      <point x="393" y="572"/>
      <point x="373" y="556"/>
      <point x="373" y="537" type="curve" smooth="yes"/>
      <point x="373" y="23" type="line" smooth="yes"/>
      <point x="373" y="3"/>
      <point x="393" y="-13"/>
      <point x="414" y="-13" type="curve" smooth="yes"/>
    </contour>
  </outline>
</glyph>
<glyph name="e" format="1">
  <advance width="477"/>
  <unicode hex="0065"/>
  <outline>
    <contour>
      <point x="314" y="-10"/>
      <point x="354" y="3"/>
      <point x="385" y="11" type="curve" smooth="yes"/>
      <point x="404" y="17"/>
      <point x="414" y="38"/>
      <point x="407" y="55" type="curve" smooth="yes"/>
      <point x="400" y="73"/>
      <point x="379" y="82"/>
      <point x="360" y="76" type="curve" smooth="yes"/>
      <point x="336" y="68"/>
      <point x="303" y="61"/>
      <point x="271" y="61" type="curve" smooth="yes"/>
      <point x="179" y="61"/>
      <point x="114" y="105"/>
      <point x="114" y="193" type="curve" smooth="yes"/>
      <point x="114" y="274"/>
      <point x="171" y="336"/>
      <point x="250" y="336" type="curve" smooth="yes"/>
      <point x="309" y="336"/>
      <point x="352" y="294"/>
      <point x="352" y="259" type="curve" smooth="yes"/>
      <point x="352" y="238"/>
      <point x="334" y="232"/>
      <point x="307" y="232" type="curve" smooth="yes"/>
      <point x="87" y="232" type="line" smooth="yes"/>
      <point x="66" y="232"/>
      <point x="50" y="216"/>
      <point x="50" y="197" type="curve" smooth="yes"/>
      <point x="50" y="178"/>
      <point x="66" y="162"/>
      <point x="87" y="162" type="curve" smooth="yes"/>
      <point x="307" y="162" type="line" smooth="yes"/>
      <point x="405" y="162"/>
      <point x="433" y="203"/>
      <point x="433" y="259" type="curve" smooth="yes"/>
      <point x="433" y="321"/>
      <point x="364" y="405"/>
      <point x="250" y="405" type="curve" smooth="yes"/>
      <point x="132" y="405"/>
      <point x="33" y="323"/>
      <point x="33" y="193" type="curve" smooth="yes"/>
      <point x="33" y="62"/>
      <point x="130" y="-10"/>
      <point x="271" y="-10" type="curve" smooth="yes"/>
    </contour>
    <contour>
      <point x="374" y="53" type="move" name="ogonek"/>
    </contour>
    <contour>
      <point x="249" y="-12" type="move" name="bottom"/>
    </contour>
    <contour>
      <point x="241" y="406" type="move" name="top"/>
    </contour>
  </outline>
</glyph>
<glyph name="f" format="1">
  <advance width="311"/>
  <unicode hex="0066"/>
  <outline>
    <contour>
      <point x="150" y="-13"/>
      <point x="170" y="3"/>
      <point x="170" y="23" type="curve" smooth="yes"/>
      <point x="170" y="439" type="line" smooth="yes"/>
      <point x="170" y="492"/>
      <point x="196" y="523"/>
      <point x="274" y="527" type="curve" smooth="yes"/>
      <point x="294" y="528"/>
      <point x="310" y="545"/>
      <point x="309" y="564" type="curve" smooth="yes"/>
      <point x="308" y="583"/>
      <point x="290" y="598"/>
      <point x="271" y="597" type="curve" smooth="yes"/>
      <point x="129" y="590"/>
      <point x="89" y="529"/>
      <point x="89" y="439" type="curve" smooth="yes"/>
      <point x="89" y="23" type="line" smooth="yes"/>
      <point x="89" y="3"/>
      <point x="109" y="-13"/>
      <point x="130" y="-13" type="curve" smooth="yes"/>
    </contour>
    <contour>
      <point x="275" y="332" type="line" smooth="yes"/>
      <point x="295" y="332"/>
      <point x="311" y="348"/>
      <point x="311" y="366" type="curve" smooth="yes"/>
      <point x="311" y="386"/>
      <point x="295" y="402"/>
      <point x="275" y="402" type="curve" smooth="yes"/>
      <point x="37" y="402" type="line" smooth="yes"/>
      <point x="16" y="402"/>
      <point x="0" y="386"/>
      <point x="0" y="366" type="curve" smooth="yes"/>
      <point x="0" y="348"/>
      <point x="16" y="332"/>
      <point x="37" y="332" type="curve" smooth="yes"/>
    </contour>
  </outline>
</glyph>
<glyph name="g" format="1">
  <advance width="515"/>
  <unicode hex="0067"/>
  <outline>
    <contour>
      <point x="362" y="-187"/>
      <point x="452" y="-84"/>
      <point x="452" y="77" type="curve" smooth="yes"/>
      <point x="452" y="375" type="line" smooth="yes"/>
      <point x="452" y="394"/>
      <point x="432" y="410"/>
      <point x="412" y="410" type="curve" smooth="yes"/>
      <point x="391" y="410"/>
      <point x="371" y="394"/>
      <point x="371" y="375" type="curve" smooth="yes"/>
      <point x="371" y="77" type="line" smooth="yes"/>
      <point x="371" y="-39"/>
      <point x="311" y="-116"/>
      <point x="169" y="-116" type="curve" smooth="yes"/>
      <point x="148" y="-116"/>
      <point x="132" y="-133"/>
      <point x="132" y="-151" type="curve" smooth="yes"/>
      <point x="132" y="-170"/>
      <point x="148" y="-187"/>
      <point x="169" y="-187" type="curve" smooth="yes"/>
    </contour>
    <contour>
      <point x="305" y="8"/>
      <point x="388" y="48"/>
      <point x="443" y="131" type="curve" smooth="yes"/>
      <point x="454" y="147"/>
      <point x="447" y="170"/>
      <point x="431" y="181" type="curve" smooth="yes"/>
      <point x="414" y="190"/>
      <point x="389" y="186"/>
      <point x="378" y="170" type="curve" smooth="yes"/>
      <point x="339" y="112"/>
      <point x="284" y="79"/>
      <point x="226" y="79" type="curve" smooth="yes"/>
      <point x="168" y="79"/>
      <point x="117" y="117"/>
      <point x="117" y="194" type="curve" smooth="yes"/>
      <point x="117" y="281"/>
      <point x="186" y="340"/>
      <point x="262" y="340" type="curve" smooth="yes"/>
      <point x="314" y="340"/>
      <point x="347" y="328"/>
      <point x="396" y="306" type="curve" smooth="yes"/>
      <point x="414" y="298"/>
      <point x="436" y="306"/>
      <point x="445" y="322" type="curve" smooth="yes"/>
      <point x="453" y="340"/>
      <point x="445" y="361"/>
      <point x="428" y="370" type="curve" smooth="yes"/>
      <point x="366" y="397"/>
      <point x="325" y="410"/>
      <point x="262" y="410" type="curve" smooth="yes"/>
      <point x="149" y="410"/>
      <point x="36" y="329"/>
      <point x="36" y="194" type="curve" smooth="yes"/>
      <point x="36" y="61"/>
      <point x="133" y="8"/>
      <point x="226" y="8" type="curve" smooth="yes"/>
    </contour>
    <contour>
      <point x="261" y="412" type="move" name="top"/>
    </contour>
  </outline>
</glyph>
<glyph name="i" format="1">
  <advance width="221"/>
  <unicode hex="0069"/>
  <outline>
    <contour>
      <point x="131" y="-14"/>
      <point x="151" y="1"/>
      <point x="151" y="22" type="curve" smooth="yes"/>
      <point x="151" y="365" type="line" smooth="yes"/>
      <point x="151" y="385"/>
      <point x="131" y="401"/>
      <point x="111" y="401" type="curve" smooth="yes"/>
      <point x="90" y="401"/>
      <point x="70" y="385"/>
      <point x="70" y="365" type="curve" smooth="yes"/>
      <point x="70" y="22" type="line" smooth="yes"/>
      <point x="70" y="1"/>
      <point x="90" y="-14"/>
      <point x="111" y="-14" type="curve" smooth="yes"/>
    </contour>
    <contour>
      <point x="139" y="490"/>
      <point x="170" y="509"/>
      <point x="170" y="549" type="curve" smooth="yes"/>
      <point x="170" y="590"/>
      <point x="139" y="611"/>
      <point x="111" y="611" type="curve" smooth="yes"/>
      <point x="81" y="611"/>
      <point x="51" y="590"/>
      <point x="51" y="549" type="curve" smooth="yes"/>
      <point x="51" y="511"/>
      <point x="79" y="490"/>
      <point x="112" y="490" type="curve" smooth="yes"/>
    </contour>
    <contour>
      <point x="111" y="-12" type="move" name="bottom"/>
    </contour>
  </outline>
</glyph>
<glyph name="j" format="1">
  <advance width="221"/>
  <unicode hex="006A"/>
  <outline>
    <contour>
      <point x="95" y="-134"/>
      <point x="151" y="-76"/>
      <point x="151" y="44" type="curve" smooth="yes"/>
      <point x="151" y="369" type="line" smooth="yes"/>
      <point x="151" y="388"/>
      <point x="131" y="405"/>
      <point x="111" y="405" type="curve" smooth="yes"/>
      <point x="90" y="405"/>
      <point x="70" y="388"/>
      <point x="70" y="369" type="curve" smooth="yes"/>
      <point x="70" y="44" type="line" smooth="yes"/>
      <point x="70" y="-35"/>
      <point x="42" y="-78"/>
      <point x="-19" y="-102" type="curve" smooth="yes"/>
      <point x="-37" y="-108"/>
      <point x="-47" y="-130"/>
      <point x="-40" y="-147" type="curve" smooth="yes"/>
      <point x="-32" y="-164"/>
      <point x="-11" y="-174"/>
      <point x="8" y="-166" type="curve" smooth="yes"/>
    </contour>
    <contour>
      <point x="139" y="494"/>
      <point x="170" y="513"/>
      <point x="170" y="553" type="curve" smooth="yes"/>
      <point x="170" y="594"/>
      <point x="139" y="615"/>
      <point x="111" y="615" type="curve" smooth="yes"/>
      <point x="81" y="615"/>
      <point x="51" y="594"/>
      <point x="51" y="553" type="curve" smooth="yes"/>
      <point x="51" y="515"/>
      <point x="79" y="494"/>
      <point x="112" y="494" type="curve" smooth="yes"/>
    </contour>
  </outline>
</glyph>
<glyph name="l" format="1">
  <advance width="221"/>
  <unicode hex="006C"/>
  <outline>
    <contour>
      <point x="131" y="-13"/>
      <point x="151" y="3"/>
      <point x="151" y="23" type="curve" smooth="yes"/>
      <point x="151" y="537" type="line" smooth="yes"/>
      <point x="151" y="556"/>
      <point x="131" y="572"/>
      <point x="111" y="572" type="curve" smooth="yes"/>
      <point x="90" y="572"/>
      <point x="70" y="556"/>
      <point x="70" y="537" type="curve" smooth="yes"/>
      <point x="70" y="23" type="line" smooth="yes"/>
      <point x="70" y="3"/>
      <point x="90" y="-13"/>
      <point x="111" y="-13" type="curve" smooth="yes"/>
    </contour>
    <contour>
      <point x="110" y="571" type="move" name="top"/>
    </contour>
    <contour>
      <point x="109" y="-13" type="move" name="bottom"/>
    </contour>
  </outline>
</glyph>
<glyph name="m" format="1">
  <advance width="767"/>
  <unicode hex="006D"/>
  <outline>
    <contour>
      <point x="694" y="-9"/>
      <point x="714" y="8"/>
      <point x="714" y="27" type="curve" smooth="yes"/>
      <point x="714" y="239" type="line" smooth="yes"/>
      <point x="714" y="378"/>
      <point x="639" y="407"/>
      <point x="559" y="407" type="curve" smooth="yes"/>
      <point x="489" y="407"/>
      <point x="416" y="364"/>
      <point x="362" y="305" type="curve" smooth="yes"/>
      <point x="349" y="292"/>
      <point x="350" y="269"/>
      <point x="365" y="255" type="curve" smooth="yes"/>
      <point x="380" y="243"/>
      <point x="405" y="244"/>
      <point x="417" y="258" type="curve" smooth="yes"/>
      <point x="457" y="299"/>
      <point x="508" y="337"/>
      <point x="559" y="337" type="curve" smooth="yes"/>
      <point x="606" y="337"/>
      <point x="633" y="306"/>
      <point x="633" y="239" type="curve" smooth="yes"/>
      <point x="633" y="27" type="line" smooth="yes"/>
      <point x="633" y="8"/>
      <point x="653" y="-9"/>
      <point x="674" y="-9" type="curve" smooth="yes"/>
    </contour>
    <contour>
      <point x="125" y="-9"/>
      <point x="145" y="8"/>
      <point x="145" y="27" type="curve" smooth="yes"/>
      <point x="145" y="372" type="line" smooth="yes"/>
      <point x="145" y="391"/>
      <point x="125" y="407"/>
      <point x="105" y="407" type="curve" smooth="yes"/>
      <point x="84" y="407"/>
      <point x="64" y="391"/>
      <point x="64" y="372" type="curve" smooth="yes"/>
      <point x="64" y="27" type="line" smooth="yes"/>
      <point x="64" y="8"/>
      <point x="84" y="-9"/>
      <point x="105" y="-9" type="curve" smooth="yes"/>
    </contour>
    <contour>
      <point x="410" y="-9"/>
      <point x="430" y="8"/>
      <point x="430" y="27" type="curve" smooth="yes"/>
      <point x="430" y="239" type="line" smooth="yes"/>
      <point x="430" y="378"/>
      <point x="356" y="407"/>
      <point x="276" y="407" type="curve" smooth="yes"/>
      <point x="206" y="407"/>
      <point x="132" y="363"/>
      <point x="78" y="305" type="curve" smooth="yes"/>
      <point x="65" y="291"/>
      <point x="67" y="269"/>
      <point x="82" y="255" type="curve" smooth="yes"/>
      <point x="97" y="243"/>
      <point x="122" y="244"/>
      <point x="135" y="258" type="curve" smooth="yes"/>
      <point x="173" y="300"/>
      <point x="225" y="337"/>
      <point x="276" y="337" type="curve" smooth="yes"/>
      <point x="323" y="337"/>
      <point x="349" y="306"/>
      <point x="349" y="239" type="curve" smooth="yes"/>
      <point x="349" y="27" type="line" smooth="yes"/>
      <point x="349" y="8"/>
      <point x="369" y="-9"/>
      <point x="390" y="-9" type="curve" smooth="yes"/>
    </contour>
  </outline>
</glyph>
<glyph name="n" format="1">
  <advance width="499"/>
  <unicode hex="006E"/>
  <outline>
    <contour>
      <point x="426" y="-9"/>
      <point x="446" y="7"/>
      <point x="446" y="27" type="curve" smooth="yes"/>
      <point x="446" y="227" type="line" smooth="yes"/>
      <point x="446" y="370"/>
      <point x="371" y="406"/>
      <point x="288" y="406" type="curve" smooth="yes"/>
      <point x="212" y="406"/>
      <point x="139" y="364"/>
      <point x="82" y="308" type="curve" smooth="yes"/>
      <point x="68" y="294"/>
      <point x="68" y="271"/>
      <point x="83" y="258" type="curve" smooth="yes"/>
      <point x="97" y="245"/>
      <point x="121" y="245"/>
      <point x="135" y="258" type="curve" smooth="yes"/>
      <point x="178" y="300"/>
      <point x="231" y="336"/>
      <point x="288" y="336" type="curve" smooth="yes"/>
      <point x="338" y="336"/>
      <point x="365" y="298"/>
      <point x="365" y="227" type="curve" smooth="yes"/>
      <point x="365" y="27" type="line" smooth="yes"/>
      <point x="365" y="7"/>
      <point x="385" y="-9"/>
      <point x="406" y="-9" type="curve" smooth="yes"/>
    </contour>
    <contour>
      <point x="125" y="-9"/>
      <point x="145" y="7"/>
      <point x="145" y="27" type="curve" smooth="yes"/>
      <point x="145" y="371" type="line" smooth="yes"/>
      <point x="145" y="390"/>
      <point x="125" y="406"/>
      <point x="105" y="406" type="curve" smooth="yes"/>
      <point x="84" y="406"/>
      <point x="64" y="390"/>
      <point x="64" y="371" type="curve" smooth="yes"/>
      <point x="64" y="27" type="line" smooth="yes"/>
      <point x="64" y="7"/>
      <point x="84" y="-9"/>
      <point x="105" y="-9" type="curve" smooth="yes"/>
    </contour>
    <contour>
      <point x="262" y="410" type="move" name="top"/>
    </contour>
    <contour>
      <point x="244" y="33" type="move" name="bottom"/>
    </contour>
  </outline>
</glyph>
<glyph name="o" format="1">
  <advance width="514"/>
  <unicode hex="006F"/>
  <outline>
    <contour>
      <point x="393" y="-13"/>
      <point x="481" y="76"/>
      <point x="481" y="194" type="curve" smooth="yes"/>
      <point x="481" y="315"/>
      <point x="392" y="410"/>
      <point x="258" y="410" type="curve" smooth="yes"/>
      <point x="122" y="410"/>
      <point x="35" y="315"/>
      <point x="35" y="195" type="curve" smooth="yes"/>
      <point x="35" y="77"/>
      <point x="124" y="-13"/>
      <point x="258" y="-13" type="curve" smooth="yes"/>
    </contour>
    <contour>
      <point x="169" y="57"/>
      <point x="116" y="120"/>
      <point x="116" y="195" type="curve" smooth="yes"/>
      <point x="116" y="272"/>
      <point x="167" y="340"/>
      <point x="258" y="340" type="curve" smooth="yes"/>
      <point x="349" y="340"/>
      <point x="400" y="272"/>
      <point x="400" y="194" type="curve" smooth="yes"/>
      <point x="400" y="119"/>
      <point x="346" y="57"/>
      <point x="258" y="57" type="curve" smooth="yes"/>
    </contour>
    <contour>
      <point x="257" y="411" type="move" name="top"/>
    </contour>
    <contour>
      <point x="259" y="-11" type="move" name="bottom"/>
    </contour>
  </outline>
</glyph>
<glyph name="p" format="1">
  <advance width="515"/>
  <unicode hex="0070"/>
  <outline>
    <contour>
      <point x="390" y="-4"/>
      <point x="481" y="83"/>
      <point x="481" y="203" type="curve" smooth="yes"/>
      <point x="481" y="342"/>
      <point x="382" y="410"/>
      <point x="280" y="410" type="curve" smooth="yes"/>
      <point x="201" y="410"/>
      <point x="130" y="364"/>
      <point x="74" y="288" type="curve" smooth="yes"/>
      <point x="63" y="273"/>
      <point x="68" y="250"/>
      <point x="85" y="239" type="curve" smooth="yes"/>
      <point x="100" y="228"/>
      <point x="125" y="231"/>
      <point x="137" y="247" type="curve" smooth="yes"/>
      <point x="175" y="300"/>
      <point x="222" y="340"/>
      <point x="280" y="340" type="curve" smooth="yes"/>
      <point x="347" y="340"/>
      <point x="400" y="288"/>
      <point x="400" y="203" type="curve" smooth="yes"/>
      <point x="400" y="128"/>
      <point x="349" y="66"/>
      <point x="267" y="66" type="curve" smooth="yes"/>
      <point x="218" y="66"/>
      <point x="169" y="90"/>
      <point x="128" y="122" type="curve" smooth="yes"/>
      <point x="113" y="135"/>
      <point x="89" y="132"/>
      <point x="76" y="118" type="curve" smooth="yes"/>
      <point x="64" y="102"/>
      <point x="65" y="79"/>
      <point x="81" y="67" type="curve" smooth="yes"/>
      <point x="136" y="25"/>
      <point x="203" y="-4"/>
      <point x="267" y="-4" type="curve" smooth="yes"/>
    </contour>
    <contour>
      <point x="125" y="-195"/>
      <point x="145" y="-180"/>
      <point x="145" y="-161" type="curve" smooth="yes"/>
      <point x="145" y="375" type="line" smooth="yes"/>
      <point x="145" y="394"/>
      <point x="125" y="410"/>
      <point x="105" y="410" type="curve" smooth="yes"/>
      <point x="84" y="410"/>
      <point x="64" y="394"/>
      <point x="64" y="375" type="curve" smooth="yes"/>
      <point x="64" y="-161" type="line" smooth="yes"/>
      <point x="64" y="-180"/>
      <point x="84" y="-195"/>
      <point x="105" y="-195" type="curve" smooth="yes"/>
    </contour>
  </outline>
</glyph>
<glyph name="q" format="1">
  <advance width="517"/>
  <unicode hex="0071"/>
  <outline>
    <contour>
      <point x="309" y="-4"/>
      <point x="388" y="35"/>
      <point x="445" y="121" type="curve" smooth="yes"/>
      <point x="456" y="137"/>
      <point x="449" y="159"/>
      <point x="432" y="170" type="curve" smooth="yes"/>
      <point x="415" y="181"/>
      <point x="390" y="176"/>
      <point x="380" y="159" type="curve" smooth="yes"/>
      <point x="341" y="99"/>
      <point x="288" y="66"/>
      <point x="232" y="66" type="curve" smooth="yes"/>
      <point x="169" y="66"/>
      <point x="117" y="115"/>
      <point x="117" y="189" type="curve" smooth="yes"/>
      <point x="117" y="280"/>
      <point x="182" y="340"/>
      <point x="263" y="340" type="curve" smooth="yes"/>
      <point x="314" y="340"/>
      <point x="356" y="327"/>
      <point x="393" y="304" type="curve" smooth="yes"/>
      <point x="410" y="294"/>
      <point x="434" y="299"/>
      <point x="445" y="315" type="curve" smooth="yes"/>
      <point x="455" y="330"/>
      <point x="450" y="353"/>
      <point x="434" y="363" type="curve" smooth="yes"/>
      <point x="385" y="394"/>
      <point x="331" y="410"/>
      <point x="263" y="410" type="curve" smooth="yes"/>
      <point x="143" y="410"/>
      <point x="36" y="330"/>
      <point x="36" y="189" type="curve" smooth="yes"/>
      <point x="36" y="64"/>
      <point x="134" y="-4"/>
      <point x="232" y="-4" type="curve" smooth="yes"/>
    </contour>
    <contour>
      <point x="434" y="-195"/>
      <point x="454" y="-180"/>
      <point x="454" y="-161" type="curve" smooth="yes"/>
      <point x="454" y="375" type="line" smooth="yes"/>
      <point x="454" y="394"/>
      <point x="434" y="410"/>
      <point x="414" y="410" type="curve" smooth="yes"/>
      <point x="393" y="410"/>
      <point x="373" y="394"/>
      <point x="373" y="375" type="curve" smooth="yes"/>
      <point x="373" y="-161" type="line" smooth="yes"/>
      <point x="373" y="-180"/>
      <point x="393" y="-195"/>
      <point x="414" y="-195" type="curve" smooth="yes"/>
    </contour>
  </outline>
</glyph>
<glyph name="s" format="1">
  <advance width="456"/>
  <unicode hex="0073"/>
  <outline>
    <contour>
      <point x="381" y="-13"/>
      <point x="419" y="53"/>
      <point x="419" y="113" type="curve" smooth="yes"/>
      <point x="419" y="171"/>
      <point x="381" y="229"/>
      <point x="268" y="241" type="curve" smooth="yes"/>
      <point x="225" y="246" type="line" smooth="yes"/>
      <point x="172" y="250"/>
      <point x="136" y="263"/>
      <point x="136" y="290" type="curve" smooth="yes"/>
      <point x="136" y="319"/>
      <point x="173" y="339"/>
      <point x="230" y="339" type="curve" smooth="yes"/>
      <point x="270" y="339"/>
      <point x="307" y="332"/>
      <point x="335" y="325" type="curve" smooth="yes"/>
      <point x="354" y="320"/>
      <point x="376" y="331"/>
      <point x="380" y="350" type="curve" smooth="yes"/>
      <point x="385" y="368"/>
      <point x="373" y="388"/>
      <point x="354" y="393" type="curve" smooth="yes"/>
      <point x="320" y="401"/>
      <point x="277" y="409"/>
      <point x="230" y="409" type="curve" smooth="yes"/>
      <point x="92" y="409"/>
      <point x="55" y="344"/>
      <point x="55" y="290" type="curve" smooth="yes"/>
      <point x="55" y="241"/>
      <point x="81" y="188"/>
      <point x="218" y="175" type="curve" smooth="yes"/>
      <point x="259" y="170" type="line" smooth="yes"/>
      <point x="310" y="166"/>
      <point x="338" y="143"/>
      <point x="338" y="113" type="curve" smooth="yes"/>
      <point x="338" y="80"/>
      <point x="300" y="57"/>
      <point x="237" y="57" type="curve" smooth="yes"/>
      <point x="192" y="57"/>
      <point x="145" y="66"/>
      <point x="105" y="83" type="curve" smooth="yes"/>
      <point x="86" y="90"/>
      <point x="64" y="83"/>
      <point x="56" y="65" type="curve" smooth="yes"/>
      <point x="48" y="48"/>
      <point x="57" y="27"/>
      <point x="75" y="19" type="curve" smooth="yes"/>
      <point x="126" y="-2"/>
      <point x="181" y="-13"/>
      <point x="237" y="-13" type="curve" smooth="yes"/>
    </contour>
    <contour>
      <point x="229" y="408" type="move" name="top"/>
    </contour>
    <contour>
      <point x="232" y="-12" type="move" name="bottom"/>
    </contour>
  </outline>
</glyph>
<glyph name="u" format="1">
  <advance width="499"/>
  <unicode hex="0075"/>
  <outline>
    <contour>
      <point x="287" y="-9"/>
      <point x="370" y="45"/>
      <point x="421" y="113" type="curve" smooth="yes"/>
      <point x="433" y="129"/>
      <point x="428" y="152"/>
      <point x="412" y="163" type="curve" smooth="yes"/>
      <point x="396" y="175"/>
      <point x="371" y="171"/>
      <point x="360" y="156" type="curve" smooth="yes"/>
      <point x="323" y="107"/>
      <point x="268" y="61"/>
      <point x="212" y="61" type="curve" smooth="yes"/>
      <point x="160" y="61"/>
      <point x="134" y="99"/>
      <point x="134" y="170" type="curve" smooth="yes"/>
      <point x="134" y="371" type="line" smooth="yes"/>
      <point x="134" y="390"/>
      <point x="114" y="406"/>
      <point x="94" y="406" type="curve" smooth="yes"/>
      <point x="73" y="406"/>
      <point x="53" y="390"/>
      <point x="53" y="371" type="curve" smooth="yes"/>
      <point x="53" y="170" type="line" smooth="yes"/>
      <point x="53" y="28"/>
      <point x="127" y="-9"/>
      <point x="212" y="-9" type="curve" smooth="yes"/>
    </contour>
    <contour>
      <point x="415" y="-9"/>
      <point x="435" y="7"/>
      <point x="435" y="27" type="curve" smooth="yes"/>
      <point x="435" y="371" type="line" smooth="yes"/>
      <point x="435" y="390"/>
      <point x="415" y="406"/>
      <point x="395" y="406" type="curve" smooth="yes"/>
      <point x="374" y="406"/>
      <point x="354" y="390"/>
      <point x="354" y="371" type="curve" smooth="yes"/>
      <point x="354" y="27" type="line" smooth="yes"/>
      <point x="354" y="7"/>
      <point x="374" y="-9"/>
      <point x="395" y="-9" type="curve" smooth="yes"/>
    </contour>
    <contour>
      <point x="399" y="37" type="move" name="ogonek"/>
    </contour>
    <contour>
      <point x="239" y="401" type="move" name="top"/>
    </contour>
  </outline>
</glyph>
<glyph name="w" format="1">
  <advance width="711"/>
  <unicode hex="0077"/>
  <outline>
    <contour>
      <point x="515" y="-13" type="line" smooth="yes"/>
      <point x="529" y="-13"/>
      <point x="545" y="-4"/>
      <point x="550" y="7" type="curve" smooth="yes"/>
      <point x="592" y="96"/>
      <point x="650" y="237"/>
      <point x="685" y="359" type="curve" smooth="yes"/>
      <point x="690" y="378"/>
      <point x="675" y="398"/>
      <point x="656" y="403" type="curve" smooth="yes"/>
      <point x="637" y="408"/>
      <point x="614" y="397"/>
      <point x="608" y="379" type="curve" smooth="yes"/>
      <point x="575" y="260"/>
      <point x="519" y="123"/>
      <point x="479" y="37" type="curve"/>
      <point x="515" y="57" type="line"/>
      <point x="513" y="57" type="line"/>
      <point x="547" y="39" type="line"/>
      <point x="499" y="125"/>
      <point x="445" y="240"/>
      <point x="397" y="373" type="curve" smooth="yes"/>
      <point x="390" y="390"/>
      <point x="366" y="399"/>
      <point x="347" y="393" type="curve" smooth="yes"/>
      <point x="329" y="386"/>
      <point x="316" y="365"/>
      <point x="322" y="347" type="curve" smooth="yes"/>
      <point x="372" y="211"/>
      <point x="430" y="94"/>
      <point x="478" y="4" type="curve" smooth="yes"/>
      <point x="484" y="-4"/>
      <point x="499" y="-13"/>
      <point x="513" y="-13" type="curve" smooth="yes"/>
    </contour>
    <contour>
      <point x="200" y="-12" type="line" smooth="yes"/>
      <point x="214" y="-12"/>
      <point x="229" y="-3"/>
      <point x="234" y="6" type="curve" smooth="yes"/>
      <point x="280" y="96"/>
      <point x="354" y="238"/>
      <point x="389" y="349" type="curve" smooth="yes"/>
      <point x="395" y="367"/>
      <point x="382" y="387"/>
      <point x="362" y="393" type="curve" smooth="yes"/>
      <point x="343" y="399"/>
      <point x="319" y="389"/>
      <point x="314" y="371" type="curve" smooth="yes"/>
      <point x="279" y="263"/>
      <point x="209" y="125"/>
      <point x="165" y="40" type="curve"/>
      <point x="200" y="58" type="line"/>
      <point x="198" y="58" type="line"/>
      <point x="233" y="39" type="line"/>
      <point x="190" y="125"/>
      <point x="142" y="249"/>
      <point x="103" y="380" type="curve" smooth="yes"/>
      <point x="98" y="399"/>
      <point x="75" y="409"/>
      <point x="56" y="404" type="curve" smooth="yes"/>
      <point x="36" y="399"/>
      <point x="22" y="379"/>
      <point x="28" y="360" type="curve" smooth="yes"/>
      <point x="67" y="223"/>
      <point x="119" y="96"/>
      <point x="162" y="7" type="curve" smooth="yes"/>
      <point x="168" y="-3"/>
      <point x="184" y="-12"/>
      <point x="198" y="-12" type="curve" smooth="yes"/>
    </contour>
    <contour>
      <point x="354" y="395" type="move" name="top"/>
    </contour>
  </outline>
</glyph>
<glyph name="x" format="1">
  <advance width="446"/>
  <unicode hex="0078"/>
  <outline>
    <contour>
      <point x="431" y="12"/>
      <point x="433" y="35"/>
      <point x="420" y="50" type="curve" smooth="yes"/>
      <point x="326" y="154"/>
      <point x="180" y="301"/>
      <point x="98" y="394" type="curve" smooth="yes"/>
      <point x="84" y="408"/>
      <point x="60" y="410"/>
      <point x="45" y="398" type="curve" smooth="yes"/>
      <point x="29" y="386"/>
      <point x="27" y="362"/>
      <point x="40" y="348" type="curve" smooth="yes"/>
      <point x="122" y="256"/>
      <point x="269" y="107"/>
      <point x="363" y="2" type="curve" smooth="yes"/>
      <point x="376" y="-12"/>
      <point x="401" y="-13"/>
      <point x="416" y="0" type="curve" smooth="yes"/>
    </contour>
    <contour>
      <point x="45" y="-13"/>
      <point x="70" y="-12"/>
      <point x="83" y="2" type="curve" smooth="yes"/>
      <point x="151" y="78"/>
      <point x="318" y="250"/>
      <point x="401" y="349" type="curve" smooth="yes"/>
      <point x="412" y="363"/>
      <point x="409" y="387"/>
      <point x="393" y="398" type="curve" smooth="yes"/>
      <point x="378" y="410"/>
      <point x="353" y="408"/>
      <point x="341" y="393" type="curve" smooth="yes"/>
      <point x="260" y="295"/>
      <point x="94" y="123"/>
      <point x="26" y="50" type="curve" smooth="yes"/>
      <point x="13" y="35"/>
      <point x="15" y="12"/>
      <point x="30" y="0" type="curve" smooth="yes"/>
    </contour>
  </outline>
</glyph>
<glyph name="bar" format="1">
  <advance width="292"/>
  <unicode hex="007C"/>
  <outline>
    <contour>
      <point x="167" y="-114"/>
      <point x="187" y="-98"/>
      <point x="187" y="-78" type="curve" smooth="yes"/>
      <point x="187" y="608" type="line" smooth="yes"/>
      <point x="187" y="627"/>
      <point x="167" y="643"/>
      <point x="147" y="643" type="curve" smooth="yes"/>
      <point x="126" y="643"/>
      <point x="106" y="627"/>
      <point x="106" y="608" type="curve" smooth="yes"/>
      <point x="106" y="-78" type="line" smooth="yes"/>
      <point x="106" y="-98"/>
      <point x="126" y="-114"/>
      <point x="147" y="-114" type="curve" smooth="yes"/>
    </contour>
  </outline>
</glyph>
<glyph name="braceright" format="1">
  <advance width="410"/>
  <unicode hex="007D"/>
  <outline>
    <contour>
      <point x="117" y="-113" type="line" smooth="yes"/>
      <point x="253" y="-113"/>
      <point x="323" y="-39"/>
      <point x="323" y="30" type="curve" smooth="yes"/>
      <point x="323" y="96"/>
      <point x="253" y="131"/>
      <point x="253" y="190" type="curve" smooth="yes"/>
      <point x="253" y="214"/>
      <point x="288" y="222"/>
      <point x="325" y="227" type="curve" smooth="yes"/>
      <point x="344" y="230"/>
      <point x="360" y="246"/>
      <point x="360" y="261" type="curve" smooth="yes"/>
      <point x="360" y="267" type="line" smooth="yes"/>
      <point x="360" y="283"/>
      <point x="344" y="299"/>
      <point x="325" y="302" type="curve" smooth="yes"/>
      <point x="288" y="308"/>
      <point x="253" y="315"/>
      <point x="253" y="340" type="curve" smooth="yes"/>
      <point x="253" y="398"/>
      <point x="323" y="432"/>
      <point x="323" y="499" type="curve" smooth="yes"/>
      <point x="323" y="569"/>
      <point x="253" y="642"/>
      <point x="117" y="642" type="curve" smooth="yes"/>
      <point x="96" y="642" type="line" smooth="yes"/>
      <point x="75" y="642"/>
      <point x="59" y="626"/>
      <point x="59" y="607" type="curve" smooth="yes"/>
      <point x="59" y="588"/>
      <point x="75" y="572"/>
      <point x="96" y="572" type="curve" smooth="yes"/>
      <point x="117" y="572" type="line" smooth="yes"/>
      <point x="186" y="572"/>
      <point x="242" y="542"/>
      <point x="242" y="499" type="curve" smooth="yes"/>
      <point x="242" y="432"/>
      <point x="172" y="398"/>
      <point x="172" y="340" type="curve" smooth="yes"/>
      <point x="172" y="291"/>
      <point x="207" y="249"/>
      <point x="314" y="233" type="curve"/>
      <point x="279" y="267" type="line"/>
      <point x="279" y="261" type="line"/>
      <point x="314" y="296" type="line"/>
      <point x="207" y="281"/>
      <point x="172" y="239"/>
      <point x="172" y="190" type="curve" smooth="yes"/>
      <point x="172" y="131"/>
      <point x="242" y="96"/>
      <point x="242" y="30" type="curve" smooth="yes"/>
      <point x="242" y="-12"/>
      <point x="186" y="-43"/>
      <point x="117" y="-43" type="curve" smooth="yes"/>
      <point x="96" y="-43" type="line" smooth="yes"/>
      <point x="75" y="-43"/>
      <point x="59" y="-59"/>
      <point x="59" y="-77" type="curve" smooth="yes"/>
      <point x="59" y="-97"/>
      <point x="75" y="-113"/>
      <point x="96" y="-113" type="curve" smooth="yes"/>
    </contour>
  </outline>
</glyph>
<glyph name="asciitilde" format="1">
  <advance width="620"/>
  <unicode hex="007E"/>
  <outline>
    <contour>
      <point x="468" y="167"/>
      <point x="513" y="201"/>
      <point x="565" y="306" type="curve" smooth="yes"/>
      <point x="575" y="323"/>
      <point x="564" y="345"/>
      <point x="547" y="354" type="curve" smooth="yes"/>
      <point x="528" y="362"/>
      <point x="504" y="355"/>
      <point x="496" y="338" type="curve" smooth="yes"/>
      <point x="466" y="279"/>
      <point x="449" y="237"/>
      <point x="409" y="237" type="curve" smooth="yes"/>
      <point x="382" y="237"/>
      <point x="364" y="257"/>
      <point x="341" y="284" type="curve" smooth="yes"/>
      <point x="302" y="326"/>
      <point x="269" y="353"/>
      <point x="222" y="353" type="curve" smooth="yes"/>
      <point x="167" y="353"/>
      <point x="120" y="319"/>
      <point x="73" y="225" type="curve" smooth="yes"/>
      <point x="64" y="208"/>
      <point x="74" y="186"/>
      <point x="92" y="177" type="curve" smooth="yes"/>
      <point x="109" y="169"/>
      <point x="134" y="176"/>
      <point x="142" y="193" type="curve" smooth="yes"/>
      <point x="167" y="243"/>
      <point x="186" y="284"/>
      <point x="222" y="284" type="curve" smooth="yes"/>
      <point x="250" y="284"/>
      <point x="263" y="259"/>
      <point x="284" y="236" type="curve" smooth="yes"/>
      <point x="327" y="190"/>
      <point x="363" y="167"/>
      <point x="409" y="167" type="curve" smooth="yes"/>
    </contour>
  </outline>
</glyph>
<glyph name="exclamdown" format="1">
  <advance width="320"/>
  <unicode hex="00A1"/>
  <outline>
    <contour>
      <point x="186" y="-23"/>
      <point x="207" y="-6"/>
      <point x="206" y="12" type="curve" smooth="yes"/>
      <point x="199" y="292" type="line" smooth="yes"/>
      <point x="198" y="312"/>
      <point x="178" y="327"/>
      <point x="158" y="326" type="curve" smooth="yes"/>
      <point x="138" y="326"/>
      <point x="118" y="310"/>
      <point x="118" y="291" type="curve" smooth="yes"/>
      <point x="125" y="11" type="line" smooth="yes"/>
      <point x="126" y="-8"/>
      <point x="146" y="-25"/>
      <point x="166" y="-24" type="curve" smooth="yes"/>
    </contour>
    <contour>
      <point x="191" y="447"/>
      <point x="221" y="471"/>
      <point x="221" y="511" type="curve" smooth="yes"/>
      <point x="221" y="561"/>
      <point x="193" y="575"/>
      <point x="160" y="575" type="curve" smooth="yes"/>
      <point x="133" y="575"/>
      <point x="97" y="560"/>
      <point x="97" y="511" type="curve" smooth="yes"/>
      <point x="97" y="469"/>
      <point x="123" y="447"/>
      <point x="159" y="447" type="curve" smooth="yes"/>
    </contour>
  </outline>
</glyph>
<glyph name="currency" format="1">
  <advance width="524"/>
  <unicode hex="00A4"/>
  <outline>
    <contour>
      <point x="385" y="36"/>
      <point x="468" y="117"/>
      <point x="468" y="226" type="curve" smooth="yes"/>
      <point x="468" y="338"/>
      <point x="385" y="425"/>
      <point x="262" y="425" type="curve" smooth="yes"/>
      <point x="136" y="425"/>
      <point x="55" y="337"/>
      <point x="55" y="227" type="curve" smooth="yes"/>
      <point x="55" y="118"/>
      <point x="138" y="36"/>
      <point x="262" y="36" type="curve" smooth="yes"/>
    </contour>
    <contour>
      <point x="60" y="-13"/>
      <point x="85" y="-12"/>
      <point x="98" y="2" type="curve" smooth="yes"/>
      <point x="169" y="78" type="line" smooth="yes"/>
      <point x="181" y="92"/>
      <point x="180" y="116"/>
      <point x="165" y="128" type="curve" smooth="yes"/>
      <point x="150" y="141"/>
      <point x="126" y="140"/>
      <point x="112" y="125" type="curve" smooth="yes"/>
      <point x="41" y="50" type="line" smooth="yes"/>
      <point x="29" y="36"/>
      <point x="30" y="12"/>
      <point x="45" y="0" type="curve" smooth="yes"/>
    </contour>
    <contour>
      <point x="494" y="12"/>
      <point x="495" y="36"/>
      <point x="483" y="50" type="curve" smooth="yes"/>
      <point x="409" y="128" type="line" smooth="yes"/>
      <point x="396" y="143"/>
      <point x="371" y="144"/>
      <point x="356" y="131" type="curve" smooth="yes"/>
      <point x="341" y="119"/>
      <point x="340" y="95"/>
      <point x="352" y="81" type="curve" smooth="yes"/>
      <point x="426" y="2" type="line" smooth="yes"/>
      <point x="440" y="-12"/>
      <point x="464" y="-13"/>
      <point x="479" y="0" type="curve" smooth="yes"/>
    </contour>
    <contour>
      <point x="183" y="105"/>
      <point x="136" y="160"/>
      <point x="136" y="227" type="curve" smooth="yes"/>
      <point x="136" y="295"/>
      <point x="181" y="356"/>
      <point x="262" y="356" type="curve" smooth="yes"/>
      <point x="342" y="356"/>
      <point x="387" y="294"/>
      <point x="387" y="226" type="curve" smooth="yes"/>
      <point x="387" y="159"/>
      <point x="340" y="105"/>
      <point x="262" y="105" type="curve" smooth="yes"/>
    </contour>
    <contour>
      <point x="182" y="339"/>
      <point x="183" y="363"/>
      <point x="170" y="376" type="curve" smooth="yes"/>
      <point x="102" y="449" type="line" smooth="yes"/>
      <point x="89" y="463"/>
      <point x="65" y="464"/>
      <point x="50" y="451" type="curve" smooth="yes"/>
      <point x="35" y="439"/>
      <point x="34" y="415"/>
      <point x="47" y="401" type="curve" smooth="yes"/>
      <point x="115" y="329" type="line" smooth="yes"/>
      <point x="128" y="315"/>
      <point x="152" y="314"/>
      <point x="167" y="327" type="curve" smooth="yes"/>
    </contour>
    <contour>
      <point x="371" y="315"/>
      <point x="396" y="316"/>
      <point x="409" y="330" type="curve" smooth="yes"/>
      <point x="477" y="403" type="line" smooth="yes"/>
      <point x="489" y="417"/>
      <point x="488" y="441"/>
      <point x="473" y="453" type="curve" smooth="yes"/>
      <point x="458" y="466"/>
      <point x="434" y="465"/>
      <point x="420" y="451" type="curve" smooth="yes"/>
      <point x="352" y="377" type="line" smooth="yes"/>
      <point x="340" y="363"/>
      <point x="341" y="340"/>
      <point x="356" y="328" type="curve" smooth="yes"/>
    </contour>
  </outline>
</glyph>
<glyph name="brokenbar" format="1">
  <advance width="292"/>
  <unicode hex="00A6"/>
  <outline>
    <contour>
      <point x="167" y="277"/>
      <point x="187" y="293"/>
      <point x="187" y="312" type="curve" smooth="yes"/>
      <point x="187" y="540" type="line" smooth="yes"/>
      <point x="187" y="559"/>
      <point x="167" y="575"/>
      <point x="147" y="575" type="curve" smooth="yes"/>
      <point x="126" y="575"/>
      <point x="106" y="559"/>
      <point x="106" y="540" type="curve" smooth="yes"/>
      <point x="106" y="312" type="line" smooth="yes"/>
      <point x="106" y="293"/>
      <point x="126" y="277"/>
      <point x="147" y="277" type="curve" smooth="yes"/>
    </contour>
    <contour>
      <point x="167" y="-112"/>
      <point x="187" y="-96"/>
      <point x="187" y="-76" type="curve" smooth="yes"/>
      <point x="187" y="152" type="line" smooth="yes"/>
      <point x="187" y="171"/>
      <point x="167" y="187"/>
      <point x="147" y="187" type="curve" smooth="yes"/>
      <point x="126" y="187"/>
      <point x="106" y="171"/>
      <point x="106" y="152" type="curve" smooth="yes"/>
      <point x="106" y="-76" type="line" smooth="yes"/>
      <point x="106" y="-96"/>
      <point x="126" y="-112"/>
      <point x="147" y="-112" type="curve" smooth="yes"/>
    </contour>
  </outline>
</glyph>
<glyph name="section" format="1">
  <advance width="528"/>
  <unicode hex="00A7"/>
  <outline>
    <contour>
      <point x="414" y="-132"/>
      <point x="467" y="-63"/>
      <point x="467" y="4" type="curve" smooth="yes"/>
      <point x="467" y="68"/>
      <point x="432" y="116"/>
      <point x="261" y="143" type="curve" smooth="yes"/>
      <point x="163" y="159"/>
      <point x="131" y="190"/>
      <point x="131" y="226" type="curve" smooth="yes"/>
      <point x="131" y="269"/>
      <point x="175" y="292"/>
      <point x="234" y="292" type="curve" smooth="yes"/>
      <point x="254" y="292"/>
      <point x="270" y="307"/>
      <point x="270" y="326" type="curve" smooth="yes"/>
      <point x="270" y="345"/>
      <point x="254" y="361"/>
      <point x="234" y="361" type="curve" smooth="yes"/>
      <point x="112" y="361"/>
      <point x="50" y="304"/>
      <point x="50" y="226" type="curve" smooth="yes"/>
      <point x="50" y="171"/>
      <point x="66" y="103"/>
      <point x="250" y="74" type="curve" smooth="yes"/>
      <point x="335" y="60"/>
      <point x="386" y="47"/>
      <point x="386" y="4" type="curve" smooth="yes"/>
      <point x="386" y="-38"/>
      <point x="333" y="-63"/>
      <point x="255" y="-63" type="curve" smooth="yes"/>
      <point x="197" y="-63"/>
      <point x="142" y="-53"/>
      <point x="92" y="-32" type="curve" smooth="yes"/>
      <point x="74" y="-23"/>
      <point x="51" y="-32"/>
      <point x="43" y="-49" type="curve" smooth="yes"/>
      <point x="35" y="-66"/>
      <point x="43" y="-87"/>
      <point x="62" y="-95" type="curve" smooth="yes"/>
      <point x="121" y="-122"/>
      <point x="186" y="-132"/>
      <point x="255" y="-132" type="curve" smooth="yes"/>
    </contour>
    <contour>
      <point x="428" y="73"/>
      <point x="477" y="139"/>
      <point x="477" y="205" type="curve" smooth="yes"/>
      <point x="477" y="269"/>
      <point x="438" y="327"/>
      <point x="271" y="360" type="curve" smooth="yes"/>
      <point x="176" y="374"/>
      <point x="141" y="402"/>
      <point x="141" y="433" type="curve" smooth="yes"/>
      <point x="141" y="465"/>
      <point x="191" y="485"/>
      <point x="244" y="485" type="curve" smooth="yes"/>
      <point x="311" y="485"/>
      <point x="344" y="477"/>
      <point x="391" y="463" type="curve" smooth="yes"/>
      <point x="409" y="457"/>
      <point x="431" y="467"/>
      <point x="437" y="485" type="curve" smooth="yes"/>
      <point x="442" y="503"/>
      <point x="432" y="524"/>
      <point x="412" y="529" type="curve" smooth="yes"/>
      <point x="359" y="546"/>
      <point x="322" y="555"/>
      <point x="244" y="555" type="curve" smooth="yes"/>
      <point x="118" y="555"/>
      <point x="60" y="490"/>
      <point x="60" y="433" type="curve" smooth="yes"/>
      <point x="60" y="383"/>
      <point x="75" y="318"/>
      <point x="260" y="291" type="curve" smooth="yes"/>
      <point x="349" y="273"/>
      <point x="396" y="247"/>
      <point x="396" y="205" type="curve" smooth="yes"/>
      <point x="396" y="164"/>
      <point x="341" y="144"/>
      <point x="265" y="144" type="curve" smooth="yes"/>
      <point x="244" y="144"/>
      <point x="228" y="127"/>
      <point x="228" y="108" type="curve" smooth="yes"/>
      <point x="228" y="90"/>
      <point x="244" y="73"/>
      <point x="265" y="73" type="curve" smooth="yes"/>
    </contour>
  </outline>
</glyph>
<glyph name="copyright" format="1">
  <advance width="663"/>
  <unicode hex="00A9"/>
  <outline>
    <contour>
      <point x="522" y="-21"/>
      <point x="633" y="105"/>
      <point x="633" y="266" type="curve" smooth="yes"/>
      <point x="633" y="436"/>
      <point x="500" y="555"/>
      <point x="334" y="555" type="curve" smooth="yes"/>
      <point x="152" y="555"/>
      <point x="30" y="436"/>
      <point x="30" y="263" type="curve" smooth="yes"/>
      <point x="30" y="106"/>
      <point x="155" y="-21"/>
      <point x="334" y="-21" type="curve" smooth="yes"/>
    </contour>
    <contour>
      <point x="377" y="102"/>
      <point x="408" y="110"/>
      <point x="433" y="123" type="curve" smooth="yes"/>
      <point x="450" y="131"/>
      <point x="458" y="152"/>
      <point x="449" y="168" type="curve" smooth="yes"/>
      <point x="440" y="185"/>
      <point x="418" y="192"/>
      <point x="401" y="183" type="curve" smooth="yes"/>
      <point x="385" y="176"/>
      <point x="366" y="171"/>
      <point x="344" y="171" type="curve" smooth="yes"/>
      <point x="280" y="171"/>
      <point x="241" y="211"/>
      <point x="241" y="265" type="curve" smooth="yes"/>
      <point x="241" y="324"/>
      <point x="287" y="363"/>
      <point x="341" y="363" type="curve" smooth="yes"/>
      <point x="363" y="363"/>
      <point x="384" y="357"/>
      <point x="398" y="351" type="curve" smooth="yes"/>
      <point x="415" y="342"/>
      <point x="437" y="350"/>
      <point x="446" y="366" type="curve" smooth="yes"/>
      <point x="455" y="383"/>
      <point x="447" y="404"/>
      <point x="430" y="412" type="curve" smooth="yes"/>
      <point x="407" y="422"/>
      <point x="376" y="432"/>
      <point x="341" y="432" type="curve" smooth="yes"/>
      <point x="250" y="432"/>
      <point x="168" y="365"/>
      <point x="168" y="265" type="curve" smooth="yes"/>
      <point x="168" y="173"/>
      <point x="233" y="102"/>
      <point x="344" y="102" type="curve" smooth="yes"/>
    </contour>
    <contour>
      <point x="198" y="48"/>
      <point x="103" y="143"/>
      <point x="103" y="263" type="curve" smooth="yes"/>
      <point x="103" y="395"/>
      <point x="195" y="486"/>
      <point x="334" y="486" type="curve" smooth="yes"/>
      <point x="459" y="486"/>
      <point x="560" y="395"/>
      <point x="560" y="266" type="curve" smooth="yes"/>
      <point x="560" y="144"/>
      <point x="477" y="48"/>
      <point x="334" y="48" type="curve" smooth="yes"/>
    </contour>
  </outline>
</glyph>
<glyph name="logicalnot" format="1">
  <advance width="482"/>
  <unicode hex="00AC"/>
  <outline>
    <contour>
      <point x="380" y="219" type="line" smooth="yes"/>
      <point x="400" y="219"/>
      <point x="416" y="235"/>
      <point x="416" y="254" type="curve" smooth="yes"/>
      <point x="416" y="274"/>
      <point x="400" y="289"/>
      <point x="380" y="289" type="curve" smooth="yes"/>
      <point x="103" y="289" type="line" smooth="yes"/>
      <point x="82" y="289"/>
      <point x="66" y="274"/>
      <point x="66" y="254" type="curve" smooth="yes"/>
      <point x="66" y="235"/>
      <point x="82" y="219"/>
      <point x="103" y="219" type="curve" smooth="yes"/>
    </contour>
    <contour>
      <point x="400" y="111"/>
      <point x="420" y="127"/>
      <point x="420" y="146" type="curve" smooth="yes"/>
      <point x="420" y="248" type="line" smooth="yes"/>
      <point x="420" y="267"/>
      <point x="400" y="283"/>
      <point x="380" y="283" type="curve" smooth="yes"/>
      <point x="359" y="283"/>
      <point x="339" y="267"/>
      <point x="339" y="248" type="curve" smooth="yes"/>
      <point x="339" y="146" type="line" smooth="yes"/>
      <point x="339" y="127"/>
      <point x="359" y="111"/>
      <point x="380" y="111" type="curve" smooth="yes"/>
    </contour>
  </outline>
</glyph>
<glyph name="degree" format="1">
  <advance width="439"/>
  <unicode hex="00B0"/>
  <outline>
    <contour>
      <point x="328" y="200"/>
      <point x="407" y="274"/>
      <point x="407" y="370" type="curve" smooth="yes"/>
      <point x="407" y="471"/>
      <point x="327" y="546"/>
      <point x="219" y="546" type="curve" smooth="yes"/>
      <point x="109" y="546"/>
      <point x="32" y="468"/>
      <point x="32" y="370" type="curve" smooth="yes"/>
      <point x="32" y="275"/>
      <point x="110" y="200"/>
      <point x="220" y="200" type="curve" smooth="yes"/>
    </contour>
    <contour>
      <point x="155" y="270"/>
      <point x="113" y="316"/>
      <point x="113" y="370" type="curve" smooth="yes"/>
      <point x="113" y="426"/>
      <point x="152" y="476"/>
      <point x="219" y="476" type="curve" smooth="yes"/>
      <point x="284" y="476"/>
      <point x="326" y="429"/>
      <point x="326" y="370" type="curve" smooth="yes"/>
      <point x="326" y="315"/>
      <point x="283" y="270"/>
      <point x="220" y="270" type="curve" smooth="yes"/>
    </contour>
  </outline>
</glyph>
<glyph name="uni00B3" format="1">
  <advance width="378"/>
  <unicode hex="00B3"/>
  <outline>
    <contour>
      <point x="291" y="208"/>
      <point x="328" y="260"/>
      <point x="328" y="316" type="curve" smooth="yes"/>
      <point x="328" y="374"/>
      <point x="285" y="421"/>
      <point x="195" y="421" type="curve" smooth="yes"/>
      <point x="159" y="421"/>
      <point x="132" y="415"/>
      <point x="118" y="411" type="curve" smooth="yes"/>
      <point x="99" y="405"/>
      <point x="89" y="384"/>
      <point x="95" y="367" type="curve" smooth="yes"/>
      <point x="102" y="349"/>
      <point x="123" y="339"/>
      <point x="141" y="345" type="curve" smooth="yes"/>
      <point x="151" y="349"/>
      <point x="170" y="353"/>
      <point x="195" y="353" type="curve" smooth="yes"/>
      <point x="226" y="353"/>
      <point x="255" y="342"/>
      <point x="255" y="316" type="curve" smooth="yes"/>
      <point x="255" y="289"/>
      <point x="224" y="278"/>
      <point x="187" y="278" type="curve" smooth="yes"/>
      <point x="155" y="278"/>
      <point x="126" y="284"/>
      <point x="104" y="291" type="curve" smooth="yes"/>
      <point x="86" y="297"/>
      <point x="64" y="287"/>
      <point x="58" y="271" type="curve" smooth="yes"/>
      <point x="51" y="254"/>
      <point x="61" y="232"/>
      <point x="79" y="227" type="curve" smooth="yes"/>
      <point x="107" y="217"/>
      <point x="144" y="208"/>
      <point x="187" y="208" type="curve" smooth="yes"/>
    </contour>
    <contour>
      <point x="117" y="343"/>
      <point x="140" y="349"/>
      <point x="155" y="361" type="curve" smooth="yes"/>
      <point x="301" y="476" type="line" smooth="yes"/>
      <point x="316" y="488"/>
      <point x="318" y="510"/>
      <point x="304" y="524" type="curve" smooth="yes"/>
      <point x="292" y="538"/>
      <point x="269" y="532"/>
      <point x="254" y="520" type="curve" smooth="yes"/>
      <point x="108" y="406" type="line" smooth="yes"/>
      <point x="92" y="394"/>
      <point x="91" y="371"/>
      <point x="105" y="357" type="curve" smooth="yes"/>
    </contour>
    <contour>
      <point x="283" y="472" type="line" smooth="yes"/>
      <point x="302" y="472"/>
      <point x="319" y="488"/>
      <point x="319" y="507" type="curve" smooth="yes"/>
      <point x="319" y="525"/>
      <point x="302" y="541"/>
      <point x="283" y="541" type="curve" smooth="yes"/>
      <point x="102" y="541" type="line" smooth="yes"/>
      <point x="82" y="541"/>
      <point x="65" y="525"/>
      <point x="65" y="507" type="curve" smooth="yes"/>
      <point x="65" y="488"/>
      <point x="82" y="472"/>
      <point x="102" y="472" type="curve" smooth="yes"/>
    </contour>
  </outline>
</glyph>
<glyph name="uni00B5" format="1">
  <advance width="499"/>
  <unicode hex="00B5"/>
  <outline>
    <contour>
      <point x="287" y="-9"/>
      <point x="370" y="45"/>
      <point x="421" y="113" type="curve" smooth="yes"/>
      <point x="433" y="129"/>
      <point x="428" y="152"/>
      <point x="412" y="163" type="curve" smooth="yes"/>
      <point x="396" y="175"/>
      <point x="371" y="171"/>
      <point x="360" y="156" type="curve" smooth="yes"/>
      <point x="323" y="107"/>
      <point x="268" y="61"/>
      <point x="212" y="61" type="curve" smooth="yes"/>
      <point x="160" y="61"/>
      <point x="134" y="99"/>
      <point x="134" y="170" type="curve" smooth="yes"/>
      <point x="134" y="371" type="line" smooth="yes"/>
      <point x="134" y="390"/>
      <point x="114" y="406"/>
      <point x="94" y="406" type="curve" smooth="yes"/>
      <point x="73" y="406"/>
      <point x="53" y="390"/>
      <point x="53" y="371" type="curve" smooth="yes"/>
      <point x="53" y="170" type="line" smooth="yes"/>
      <point x="53" y="28"/>
      <point x="127" y="-9"/>
      <point x="212" y="-9" type="curve" smooth="yes"/>
    </contour>
    <contour>
      <point x="114" y="-156"/>
      <point x="134" y="-141"/>
      <point x="134" y="-120" type="curve" smooth="yes"/>
      <point x="134" y="224" type="line" smooth="yes"/>
      <point x="134" y="243"/>
      <point x="114" y="259"/>
      <point x="94" y="259" type="curve" smooth="yes"/>
      <point x="73" y="259"/>
      <point x="53" y="243"/>
      <point x="53" y="224" type="curve" smooth="yes"/>
      <point x="53" y="-120" type="line" smooth="yes"/>
      <point x="53" y="-141"/>
      <point x="73" y="-156"/>
      <point x="94" y="-156" type="curve" smooth="yes"/>
    </contour>
    <contour>
      <point x="415" y="-9"/>
      <point x="435" y="7"/>
      <point x="435" y="27" type="curve" smooth="yes"/>
      <point x="435" y="371" type="line" smooth="yes"/>
      <point x="435" y="390"/>
      <point x="415" y="406"/>
      <point x="395" y="406" type="curve" smooth="yes"/>
      <point x="374" y="406"/>
      <point x="354" y="390"/>
      <point x="354" y="371" type="curve" smooth="yes"/>
      <point x="354" y="27" type="line" smooth="yes"/>
      <point x="354" y="7"/>
      <point x="374" y="-9"/>
      <point x="395" y="-9" type="curve" smooth="yes"/>
    </contour>
  </outline>
</glyph>
<glyph name="paragraph" format="1">
  <advance width="561"/>
  <unicode hex="00B6"/>
  <outline>
    <contour>
      <point x="464" y="-12"/>
      <point x="484" y="4"/>
      <point x="484" y="24" type="curve" smooth="yes"/>
      <point x="484" y="511" type="line" smooth="yes"/>
      <point x="484" y="530"/>
      <point x="466" y="546"/>
      <point x="444" y="546" type="curve" smooth="yes"/>
      <point x="246" y="546" type="line" smooth="yes"/>
      <point x="115" y="546"/>
      <point x="29" y="468"/>
      <point x="29" y="356" type="curve" smooth="yes"/>
      <point x="29" y="251"/>
      <point x="101" y="166"/>
      <point x="246" y="166" type="curve" smooth="yes"/>
      <point x="305" y="166" type="line" smooth="yes"/>
      <point x="325" y="166"/>
      <point x="341" y="182"/>
      <point x="341" y="200" type="curve" smooth="yes"/>
      <point x="341" y="220"/>
      <point x="325" y="236"/>
      <point x="305" y="236" type="curve" smooth="yes"/>
      <point x="246" y="236" type="line" smooth="yes"/>
      <point x="154" y="236"/>
      <point x="110" y="290"/>
      <point x="110" y="356" type="curve" smooth="yes"/>
      <point x="110" y="427"/>
      <point x="164" y="476"/>
      <point x="246" y="476" type="curve" smooth="yes"/>
      <point x="444" y="476" type="line"/>
      <point x="403" y="511" type="line"/>
      <point x="403" y="24" type="line" smooth="yes"/>
      <point x="403" y="4"/>
      <point x="423" y="-12"/>
      <point x="444" y="-12" type="curve" smooth="yes"/>
    </contour>
    <contour>
      <point x="325" y="-12"/>
      <point x="345" y="4"/>
      <point x="345" y="24" type="curve" smooth="yes"/>
      <point x="345" y="509" type="line" smooth="yes"/>
      <point x="345" y="528"/>
      <point x="325" y="544"/>
      <point x="305" y="544" type="curve" smooth="yes"/>
      <point x="284" y="544"/>
      <point x="264" y="528"/>
      <point x="264" y="509" type="curve" smooth="yes"/>
      <point x="264" y="24" type="line" smooth="yes"/>
      <point x="264" y="4"/>
      <point x="284" y="-12"/>
      <point x="305" y="-12" type="curve" smooth="yes"/>
    </contour>
  </outline>
</glyph>
<glyph name="periodcentered" format="1">
  <advance width="213"/>
  <unicode hex="00B7"/>
  <outline>
    <contour>
      <point x="140" y="158"/>
      <point x="170" y="171"/>
      <point x="170" y="222" type="curve" smooth="yes"/>
      <point x="170" y="262"/>
      <point x="139" y="286"/>
      <point x="108" y="286" type="curve" smooth="yes"/>
      <point x="72" y="286"/>
      <point x="46" y="263"/>
      <point x="46" y="222" type="curve" smooth="yes"/>
      <point x="46" y="173"/>
      <point x="80" y="158"/>
      <point x="109" y="158" type="curve" smooth="yes"/>
    </contour>
  </outline>
</glyph>
<glyph name="guillemotright" format="1">
  <advance width="437"/>
  <unicode hex="00BB"/>
  <outline>
    <contour>
      <point x="73" y="3"/>
      <point x="98" y="5"/>
      <point x="109" y="21" type="curve" smooth="yes"/>
      <point x="226" y="172" type="line" smooth="yes"/>
      <point x="238" y="188"/>
      <point x="233" y="211"/>
      <point x="217" y="221" type="curve" smooth="yes"/>
      <point x="201" y="234"/>
      <point x="176" y="230"/>
      <point x="165" y="216" type="curve" smooth="yes"/>
      <point x="48" y="63" type="line" smooth="yes"/>
      <point x="36" y="49"/>
      <point x="41" y="26"/>
      <point x="57" y="14" type="curve" smooth="yes"/>
    </contour>
    <contour>
      <point x="233" y="182"/>
      <point x="238" y="205"/>
      <point x="226" y="220" type="curve" smooth="yes"/>
      <point x="109" y="372" type="line" smooth="yes"/>
      <point x="98" y="386"/>
      <point x="73" y="390"/>
      <point x="57" y="378" type="curve" smooth="yes"/>
      <point x="41" y="367"/>
      <point x="36" y="344"/>
      <point x="48" y="329" type="curve" smooth="yes"/>
      <point x="165" y="177" type="line" smooth="yes"/>
      <point x="176" y="163"/>
      <point x="201" y="159"/>
      <point x="217" y="170" type="curve" smooth="yes"/>
    </contour>
    <contour>
      <point x="252" y="3"/>
      <point x="277" y="5"/>
      <point x="288" y="21" type="curve" smooth="yes"/>
      <point x="404" y="172" type="line" smooth="yes"/>
      <point x="416" y="188"/>
      <point x="411" y="211"/>
      <point x="395" y="221" type="curve" smooth="yes"/>
      <point x="379" y="234"/>
      <point x="354" y="230"/>
      <point x="343" y="216" type="curve" smooth="yes"/>
      <point x="227" y="63" type="line" smooth="yes"/>
      <point x="215" y="49"/>
      <point x="220" y="26"/>
      <point x="236" y="14" type="curve" smooth="yes"/>
    </contour>
    <contour>
      <point x="411" y="182"/>
      <point x="416" y="205"/>
      <point x="404" y="220" type="curve" smooth="yes"/>
      <point x="288" y="372" type="line" smooth="yes"/>
      <point x="277" y="386"/>
      <point x="252" y="390"/>
      <point x="236" y="378" type="curve" smooth="yes"/>
      <point x="220" y="367"/>
      <point x="215" y="344"/>
      <point x="227" y="329" type="curve" smooth="yes"/>
      <point x="343" y="177" type="line" smooth="yes"/>
      <point x="354" y="163"/>
      <point x="379" y="159"/>
      <point x="395" y="170" type="curve" smooth="yes"/>
    </contour>
  </outline>
</glyph>
<glyph name="onequarter" format="1">
  <advance width="727"/>
  <unicode hex="00BC"/>
  <outline>
    <contour>
      <point x="206" y="-16"/>
      <point x="229" y="-10"/>
      <point x="239" y="5" type="curve" smooth="yes"/>
      <point x="537" y="494" type="line" smooth="yes"/>
      <point x="547" y="509"/>
      <point x="541" y="531"/>
      <point x="524" y="541" type="curve" smooth="yes"/>
      <point x="507" y="550"/>
      <point x="484" y="545"/>
      <point x="475" y="529" type="curve" smooth="yes"/>
      <point x="177" y="41" type="line" smooth="yes"/>
      <point x="166" y="25"/>
      <point x="172" y="3"/>
      <point x="189" y="-6" type="curve" smooth="yes"/>
    </contour>
    <contour>
      <point x="220" y="224"/>
      <point x="237" y="239"/>
      <point x="237" y="258" type="curve" smooth="yes"/>
      <point x="237" y="518" type="line" smooth="yes"/>
      <point x="237" y="537"/>
      <point x="220" y="552"/>
      <point x="201" y="552" type="curve" smooth="yes"/>
      <point x="181" y="552"/>
      <point x="164" y="537"/>
      <point x="164" y="518" type="curve" smooth="yes"/>
      <point x="164" y="258" type="line" smooth="yes"/>
      <point x="164" y="239"/>
      <point x="181" y="224"/>
      <point x="201" y="224" type="curve" smooth="yes"/>
    </contour>
    <contour>
      <point x="636" y="66" type="line" smooth="yes"/>
      <point x="655" y="66"/>
      <point x="672" y="80"/>
      <point x="672" y="98" type="curve" smooth="yes"/>
      <point x="672" y="117"/>
      <point x="655" y="130"/>
      <point x="636" y="130" type="curve" smooth="yes"/>
      <point x="410" y="130" type="line" smooth="yes"/>
      <point x="390" y="130"/>
      <point x="374" y="119"/>
      <point x="374" y="99" type="curve" smooth="yes"/>
      <point x="374" y="81"/>
      <point x="390" y="66"/>
      <point x="410" y="66" type="curve" smooth="yes"/>
    </contour>
    <contour>
      <point x="217" y="490" type="line" smooth="yes"/>
      <point x="235" y="499"/>
      <point x="242" y="521"/>
      <point x="233" y="537" type="curve" smooth="yes"/>
      <point x="223" y="553"/>
      <point x="201" y="560"/>
      <point x="184" y="551" type="curve" smooth="yes"/>
      <point x="98" y="507" type="line" smooth="yes"/>
      <point x="80" y="498"/>
      <point x="73" y="476"/>
      <point x="83" y="461" type="curve" smooth="yes"/>
      <point x="92" y="444"/>
      <point x="115" y="437"/>
      <point x="131" y="446" type="curve" smooth="yes"/>
    </contour>
    <contour>
      <point x="396" y="62"/>
      <point x="415" y="65"/>
      <point x="428" y="78" type="curve" smooth="yes"/>
      <point x="592" y="262" type="line" smooth="yes"/>
      <point x="605" y="276"/>
      <point x="605" y="295"/>
      <point x="590" y="307" type="curve" smooth="yes"/>
      <point x="575" y="319"/>
      <point x="551" y="318"/>
      <point x="539" y="303" type="curve" smooth="yes"/>
      <point x="377" y="122" type="line" smooth="yes"/>
      <point x="365" y="108"/>
      <point x="366" y="85"/>
      <point x="381" y="73" type="curve" smooth="yes"/>
    </contour>
    <contour>
      <point x="590" y="-10"/>
      <point x="606" y="5"/>
      <point x="606" y="25" type="curve" smooth="yes"/>
      <point x="606" y="286" type="line" smooth="yes"/>
      <point x="606" y="304"/>
      <point x="590" y="320"/>
      <point x="570" y="320" type="curve" smooth="yes"/>
      <point x="551" y="320"/>
      <point x="534" y="304"/>
      <point x="534" y="286" type="curve" smooth="yes"/>
      <point x="534" y="25" type="line" smooth="yes"/>
      <point x="534" y="5"/>
      <point x="551" y="-10"/>
      <point x="570" y="-10" type="curve" smooth="yes"/>
    </contour>
  </outline>
</glyph>
<glyph name="onehalf" format="1">
  <advance width="796"/>
  <unicode hex="00BD"/>
  <outline>
    <contour>
      <point x="205" y="-17"/>
      <point x="230" y="-12"/>
      <point x="240" y="4" type="curve" smooth="yes"/>
      <point x="538" y="493" type="line" smooth="yes"/>
      <point x="548" y="509"/>
      <point x="541" y="532"/>
      <point x="523" y="541" type="curve" smooth="yes"/>
      <point x="507" y="551"/>
      <point x="482" y="546"/>
      <point x="472" y="529" type="curve" smooth="yes"/>
      <point x="174" y="41" type="line" smooth="yes"/>
      <point x="164" y="26"/>
      <point x="171" y="2"/>
      <point x="188" y="-7" type="curve" smooth="yes"/>
    </contour>
    <contour>
      <point x="221" y="223"/>
      <point x="237" y="238"/>
      <point x="237" y="257" type="curve" smooth="yes"/>
      <point x="237" y="517" type="line" smooth="yes"/>
      <point x="237" y="535"/>
      <point x="221" y="551"/>
      <point x="201" y="551" type="curve" smooth="yes"/>
      <point x="182" y="551"/>
      <point x="165" y="535"/>
      <point x="165" y="517" type="curve" smooth="yes"/>
      <point x="165" y="257" type="line" smooth="yes"/>
      <point x="165" y="238"/>
      <point x="182" y="223"/>
      <point x="201" y="223" type="curve" smooth="yes"/>
    </contour>
    <contour>
      <point x="677" y="-11" type="line" smooth="yes"/>
      <point x="697" y="-11"/>
      <point x="713" y="4"/>
      <point x="713" y="23" type="curve" smooth="yes"/>
      <point x="713" y="42"/>
      <point x="697" y="57"/>
      <point x="677" y="57" type="curve" smooth="yes"/>
      <point x="478" y="57" type="line" smooth="yes"/>
      <point x="459" y="57"/>
      <point x="442" y="42"/>
      <point x="442" y="23" type="curve" smooth="yes"/>
      <point x="442" y="4"/>
      <point x="459" y="-11"/>
      <point x="478" y="-11" type="curve" smooth="yes"/>
    </contour>
    <contour>
      <point x="219" y="490" type="line" smooth="yes"/>
      <point x="236" y="498"/>
      <point x="242" y="520"/>
      <point x="233" y="537" type="curve" smooth="yes"/>
      <point x="224" y="553"/>
      <point x="201" y="560"/>
      <point x="184" y="551" type="curve" smooth="yes"/>
      <point x="98" y="506" type="line" smooth="yes"/>
      <point x="81" y="498"/>
      <point x="74" y="476"/>
      <point x="83" y="459" type="curve" smooth="yes"/>
      <point x="92" y="443"/>
      <point x="115" y="436"/>
      <point x="133" y="445" type="curve" smooth="yes"/>
    </contour>
    <contour>
      <point x="602" y="87" type="line" smooth="yes"/>
      <point x="677" y="155"/>
      <point x="693" y="182"/>
      <point x="693" y="221" type="curve" smooth="yes"/>
      <point x="693" y="265"/>
      <point x="663" y="314"/>
      <point x="578" y="314" type="curve" smooth="yes"/>
      <point x="541" y="314"/>
      <point x="510" y="305"/>
      <point x="477" y="285" type="curve" smooth="yes"/>
      <point x="461" y="274"/>
      <point x="456" y="253"/>
      <point x="467" y="237" type="curve" smooth="yes"/>
      <point x="478" y="221"/>
      <point x="501" y="217"/>
      <point x="517" y="227" type="curve" smooth="yes"/>
      <point x="537" y="239"/>
      <point x="556" y="246"/>
      <point x="578" y="246" type="curve" smooth="yes"/>
      <point x="601" y="246"/>
      <point x="621" y="238"/>
      <point x="621" y="221" type="curve" smooth="yes"/>
      <point x="621" y="194"/>
      <point x="599" y="179"/>
      <point x="553" y="136" type="curve" smooth="yes"/>
      <point x="460" y="53" type="line" smooth="yes"/>
      <point x="445" y="40"/>
      <point x="445" y="18"/>
      <point x="458" y="4" type="curve" smooth="yes"/>
      <point x="471" y="-9"/>
      <point x="494" y="-10"/>
      <point x="509" y="2" type="curve" smooth="yes"/>
    </contour>
  </outline>
</glyph>
<glyph name="threequarters" format="1">
  <advance width="844"/>
  <unicode hex="00BE"/>
  <outline>
    <contour>
      <point x="305" y="-16"/>
      <point x="328" y="-10"/>
      <point x="338" y="5" type="curve" smooth="yes"/>
      <point x="635" y="494" type="line" smooth="yes"/>
      <point x="645" y="509"/>
      <point x="639" y="531"/>
      <point x="622" y="541" type="curve" smooth="yes"/>
      <point x="605" y="550"/>
      <point x="582" y="545"/>
      <point x="573" y="529" type="curve" smooth="yes"/>
      <point x="276" y="41" type="line" smooth="yes"/>
      <point x="265" y="25"/>
      <point x="271" y="3"/>
      <point x="288" y="-6" type="curve" smooth="yes"/>
    </contour>
    <contour>
      <point x="320" y="214"/>
      <point x="358" y="265"/>
      <point x="358" y="321" type="curve" smooth="yes"/>
      <point x="358" y="379"/>
      <point x="315" y="426"/>
      <point x="224" y="426" type="curve" smooth="yes"/>
      <point x="189" y="426"/>
      <point x="163" y="421"/>
      <point x="148" y="417" type="curve" smooth="yes"/>
      <point x="129" y="411"/>
      <point x="118" y="391"/>
      <point x="124" y="373" type="curve" smooth="yes"/>
      <point x="130" y="356"/>
      <point x="150" y="345"/>
      <point x="169" y="351" type="curve" smooth="yes"/>
      <point x="180" y="355"/>
      <point x="200" y="357"/>
      <point x="224" y="357" type="curve" smooth="yes"/>
      <point x="254" y="357"/>
      <point x="285" y="349"/>
      <point x="285" y="321" type="curve" smooth="yes"/>
      <point x="285" y="294"/>
      <point x="253" y="283"/>
      <point x="217" y="283" type="curve" smooth="yes"/>
      <point x="184" y="283"/>
      <point x="156" y="288"/>
      <point x="133" y="297" type="curve" smooth="yes"/>
      <point x="115" y="304"/>
      <point x="94" y="294"/>
      <point x="87" y="277" type="curve" smooth="yes"/>
      <point x="80" y="260"/>
      <point x="90" y="239"/>
      <point x="108" y="233" type="curve" smooth="yes"/>
      <point x="137" y="222"/>
      <point x="173" y="214"/>
      <point x="217" y="214" type="curve" smooth="yes"/>
    </contour>
    <contour>
      <point x="146" y="349"/>
      <point x="169" y="353"/>
      <point x="184" y="365" type="curve" smooth="yes"/>
      <point x="330" y="481" type="line" smooth="yes"/>
      <point x="345" y="493"/>
      <point x="347" y="516"/>
      <point x="333" y="530" type="curve" smooth="yes"/>
      <point x="321" y="544"/>
      <point x="300" y="542"/>
      <point x="285" y="530" type="curve" smooth="yes"/>
      <point x="137" y="411" type="line" smooth="yes"/>
      <point x="122" y="399"/>
      <point x="120" y="377"/>
      <point x="134" y="363" type="curve" smooth="yes"/>
    </contour>
    <contour>
      <point x="736" y="66" type="line" smooth="yes"/>
      <point x="755" y="66"/>
      <point x="772" y="80"/>
      <point x="772" y="98" type="curve" smooth="yes"/>
      <point x="772" y="117"/>
      <point x="755" y="130"/>
      <point x="736" y="130" type="curve" smooth="yes"/>
      <point x="510" y="130" type="line" smooth="yes"/>
      <point x="490" y="130"/>
      <point x="473" y="119"/>
      <point x="473" y="99" type="curve" smooth="yes"/>
      <point x="473" y="81"/>
      <point x="490" y="66"/>
      <point x="510" y="66" type="curve" smooth="yes"/>
    </contour>
    <contour>
      <point x="312" y="477" type="line" smooth="yes"/>
      <point x="331" y="477"/>
      <point x="348" y="493"/>
      <point x="348" y="511" type="curve" smooth="yes"/>
      <point x="348" y="530"/>
      <point x="331" y="546"/>
      <point x="312" y="546" type="curve" smooth="yes"/>
      <point x="132" y="546" type="line" smooth="yes"/>
      <point x="112" y="546"/>
      <point x="95" y="530"/>
      <point x="95" y="511" type="curve" smooth="yes"/>
      <point x="95" y="493"/>
      <point x="112" y="477"/>
      <point x="132" y="477" type="curve" smooth="yes"/>
    </contour>
    <contour>
      <point x="496" y="62"/>
      <point x="515" y="65"/>
      <point x="527" y="79" type="curve" smooth="yes"/>
      <point x="692" y="262" type="line" smooth="yes"/>
      <point x="704" y="276"/>
      <point x="704" y="295"/>
      <point x="689" y="308" type="curve" smooth="yes"/>
      <point x="674" y="319"/>
      <point x="651" y="318"/>
      <point x="638" y="304" type="curve" smooth="yes"/>
      <point x="477" y="122" type="line" smooth="yes"/>
      <point x="464" y="108"/>
      <point x="466" y="86"/>
      <point x="481" y="73" type="curve" smooth="yes"/>
    </contour>
    <contour>
      <point x="689" y="-10"/>
      <point x="706" y="5"/>
      <point x="706" y="25" type="curve" smooth="yes"/>
      <point x="706" y="286" type="line" smooth="yes"/>
      <point x="706" y="304"/>
      <point x="689" y="320"/>
      <point x="670" y="320" type="curve" smooth="yes"/>
      <point x="650" y="320"/>
      <point x="633" y="304"/>
      <point x="633" y="286" type="curve" smooth="yes"/>
      <point x="633" y="25" type="line" smooth="yes"/>
      <point x="633" y="5"/>
      <point x="650" y="-10"/>
      <point x="670" y="-10" type="curve" smooth="yes"/>
    </contour>
  </outline>
</glyph>
<glyph name="questiondown" format="1">
  <advance width="367"/>
  <unicode hex="00BF"/>
  <outline>
    <contour>
      <point x="252" y="-1"/>
      <point x="294" y="13"/>
      <point x="336" y="38" type="curve" smooth="yes"/>
      <point x="353" y="48"/>
      <point x="358" y="70"/>
      <point x="348" y="87" type="curve" smooth="yes"/>
      <point x="337" y="103"/>
      <point x="314" y="108"/>
      <point x="297" y="98" type="curve" smooth="yes"/>
      <point x="265" y="80"/>
      <point x="235" y="69"/>
      <point x="185" y="69" type="curve" smooth="yes"/>
      <point x="130" y="69"/>
      <point x="96" y="99"/>
      <point x="96" y="136" type="curve" smooth="yes"/>
      <point x="96" y="173"/>
      <point x="127" y="198"/>
      <point x="164" y="217" type="curve" smooth="yes"/>
      <point x="237" y="254"/>
      <point x="259" y="279"/>
      <point x="263" y="345" type="curve" smooth="yes"/>
      <point x="264" y="364"/>
      <point x="244" y="381"/>
      <point x="224" y="382" type="curve" smooth="yes"/>
      <point x="205" y="383"/>
      <point x="183" y="368"/>
      <point x="182" y="349" type="curve" smooth="yes"/>
      <point x="180" y="313"/>
      <point x="170" y="299"/>
      <point x="131" y="278" type="curve" smooth="yes"/>
      <point x="65" y="248"/>
      <point x="15" y="199"/>
      <point x="15" y="136" type="curve" smooth="yes"/>
      <point x="15" y="65"/>
      <point x="71" y="-1"/>
      <point x="185" y="-1" type="curve" smooth="yes"/>
    </contour>
    <contour>
      <point x="253" y="443"/>
      <point x="279" y="464"/>
      <point x="279" y="507" type="curve" smooth="yes"/>
      <point x="279" y="555"/>
      <point x="244" y="570"/>
      <point x="217" y="570" type="curve" smooth="yes"/>
      <point x="183" y="570"/>
      <point x="155" y="556"/>
      <point x="155" y="507" type="curve" smooth="yes"/>
      <point x="155" y="466"/>
      <point x="184" y="443"/>
      <point x="218" y="443" type="curve" smooth="yes"/>
    </contour>
  </outline>
</glyph>
<glyph name="Thorn" format="1">
  <advance width="507"/>
  <unicode hex="00DE"/>
  <outline>
    <contour>
      <point x="262" y="90" type="line" smooth="yes"/>
      <point x="410" y="90"/>
      <point x="478" y="172"/>
      <point x="478" y="268" type="curve" smooth="yes"/>
      <point x="478" y="375"/>
      <point x="393" y="451"/>
      <point x="262" y="451" type="curve" smooth="yes"/>
      <point x="130" y="451" type="line" smooth="yes"/>
      <point x="109" y="451"/>
      <point x="93" y="436"/>
      <point x="93" y="416" type="curve" smooth="yes"/>
      <point x="93" y="397"/>
      <point x="109" y="381"/>
      <point x="130" y="381" type="curve" smooth="yes"/>
      <point x="262" y="381" type="line" smooth="yes"/>
      <point x="342" y="381"/>
      <point x="397" y="335"/>
      <point x="397" y="268" type="curve" smooth="yes"/>
      <point x="397" y="208"/>
      <point x="351" y="159"/>
      <point x="262" y="159" type="curve" smooth="yes"/>
      <point x="145" y="159" type="line" smooth="yes"/>
      <point x="124" y="159"/>
      <point x="108" y="144"/>
      <point x="108" y="125" type="curve" smooth="yes"/>
      <point x="108" y="105"/>
      <point x="124" y="90"/>
      <point x="145" y="90" type="curve" smooth="yes"/>
    </contour>
    <contour>
      <point x="138" y="-12"/>
      <point x="158" y="4"/>
      <point x="158" y="24" type="curve" smooth="yes"/>
      <point x="158" y="511" type="line" smooth="yes"/>
      <point x="158" y="530"/>
      <point x="138" y="546"/>
      <point x="118" y="546" type="curve" smooth="yes"/>
      <point x="97" y="546"/>
      <point x="77" y="530"/>
      <point x="77" y="511" type="curve" smooth="yes"/>
      <point x="77" y="24" type="line" smooth="yes"/>
      <point x="77" y="4"/>
      <point x="97" y="-12"/>
      <point x="118" y="-12" type="curve" smooth="yes"/>
    </contour>
  </outline>
</glyph>
<glyph name="ae" format="1">
  <advance width="772"/>
  <unicode hex="00E6"/>
  <outline>
    <contour>
      <point x="609" y="-10"/>
      <point x="649" y="3"/>
      <point x="680" y="11" type="curve" smooth="yes"/>
      <point x="699" y="17"/>
      <point x="709" y="38"/>
      <point x="702" y="55" type="curve" smooth="yes"/>
      <point x="695" y="73"/>
      <point x="674" y="82"/>
      <point x="655" y="76" type="curve" smooth="yes"/>
      <point x="631" y="68"/>
      <point x="598" y="61"/>
      <point x="566" y="61" type="curve" smooth="yes"/>
      <point x="474" y="61"/>
      <point x="409" y="105"/>
      <point x="409" y="193" type="curve"/>
      <point x="409" y="274"/>
      <point x="466" y="336"/>
      <point x="545" y="336" type="curve" smooth="yes"/>
      <point x="604" y="336"/>
      <point x="647" y="294"/>
      <point x="647" y="259" type="curve" smooth="yes"/>
      <point x="647" y="238"/>
      <point x="629" y="232"/>
      <point x="602" y="232" type="curve" smooth="yes"/>
      <point x="382" y="232" type="line" smooth="yes"/>
      <point x="361" y="232"/>
      <point x="345" y="216"/>
      <point x="345" y="197" type="curve" smooth="yes"/>
      <point x="345" y="178"/>
      <point x="361" y="162"/>
      <point x="382" y="162" type="curve" smooth="yes"/>
      <point x="602" y="162" type="line" smooth="yes"/>
      <point x="700" y="162"/>
      <point x="728" y="203"/>
      <point x="728" y="259" type="curve" smooth="yes"/>
      <point x="728" y="321"/>
      <point x="659" y="405"/>
      <point x="545" y="405" type="curve" smooth="yes"/>
      <point x="427" y="405"/>
      <point x="328" y="323"/>
      <point x="328" y="193" type="curve" smooth="yes"/>
      <point x="328" y="62"/>
      <point x="425" y="-10"/>
      <point x="566" y="-10" type="curve" smooth="yes"/>
    </contour>
    <contour>
      <point x="258" y="-9"/>
      <point x="338" y="32"/>
      <point x="405" y="89" type="curve" smooth="yes"/>
      <point x="420" y="101"/>
      <point x="421" y="125"/>
      <point x="408" y="138" type="curve" smooth="yes"/>
      <point x="395" y="153"/>
      <point x="371" y="154"/>
      <point x="356" y="142" type="curve" smooth="yes"/>
      <point x="303" y="96"/>
      <point x="241" y="61"/>
      <point x="173" y="61" type="curve" smooth="yes"/>
      <point x="130" y="61"/>
      <point x="111" y="87"/>
      <point x="111" y="107" type="curve" smooth="yes"/>
      <point x="111" y="123"/>
      <point x="112" y="138"/>
      <point x="125" y="151" type="curve" smooth="yes"/>
      <point x="152" y="176"/>
      <point x="196" y="190"/>
      <point x="260" y="190" type="curve" smooth="yes"/>
      <point x="290" y="190"/>
      <point x="328" y="188"/>
      <point x="364" y="187" type="curve" smooth="yes"/>
      <point x="384" y="186"/>
      <point x="401" y="201"/>
      <point x="401" y="221" type="curve" smooth="yes"/>
      <point x="402" y="240"/>
      <point x="385" y="256"/>
      <point x="366" y="256" type="curve" smooth="yes"/>
      <point x="329" y="257"/>
      <point x="290" y="259"/>
      <point x="260" y="259" type="curve" smooth="yes"/>
      <point x="169" y="259"/>
      <point x="111" y="237"/>
      <point x="74" y="202" type="curve" smooth="yes"/>
      <point x="43" y="175"/>
      <point x="30" y="145"/>
      <point x="30" y="107" type="curve" smooth="yes"/>
      <point x="30" y="59"/>
      <point x="65" y="-9"/>
      <point x="173" y="-9" type="curve" smooth="yes"/>
    </contour>
    <contour>
      <point x="386" y="171"/>
      <point x="406" y="188"/>
      <point x="406" y="206" type="curve" smooth="yes"/>
      <point x="406" y="233" type="line" smooth="yes"/>
      <point x="406" y="337"/>
      <point x="338" y="406"/>
      <point x="218" y="406" type="curve" smooth="yes"/>
      <point x="178" y="406"/>
      <point x="133" y="396"/>
      <point x="109" y="388" type="curve" smooth="yes"/>
      <point x="90" y="383"/>
      <point x="79" y="362"/>
      <point x="84" y="345" type="curve" smooth="yes"/>
      <point x="90" y="326"/>
      <point x="112" y="316"/>
      <point x="130" y="322" type="curve" smooth="yes"/>
      <point x="150" y="328"/>
      <point x="187" y="336"/>
      <point x="218" y="336" type="curve" smooth="yes"/>
      <point x="289" y="336"/>
      <point x="325" y="293"/>
      <point x="325" y="233" type="curve" smooth="yes"/>
      <point x="325" y="206" type="line" smooth="yes"/>
      <point x="325" y="188"/>
      <point x="345" y="171"/>
      <point x="366" y="171" type="curve" smooth="yes"/>
    </contour>
  </outline>
</glyph>
<glyph name="oslash" format="1">
  <advance width="522"/>
  <unicode hex="00F8"/>
  <outline>
    <contour>
      <point x="393" y="-13"/>
      <point x="481" y="76"/>
      <point x="481" y="194" type="curve" smooth="yes"/>
      <point x="481" y="315"/>
      <point x="392" y="410"/>
      <point x="258" y="410" type="curve" smooth="yes"/>
      <point x="122" y="410"/>
      <point x="35" y="315"/>
      <point x="35" y="195" type="curve" smooth="yes"/>
      <point x="35" y="77"/>
      <point x="124" y="-13"/>
      <point x="258" y="-13" type="curve" smooth="yes"/>
    </contour>
    <contour>
      <point x="69" y="-12"/>
      <point x="93" y="-12"/>
      <point x="107" y="1" type="curve" smooth="yes"/>
      <point x="465" y="347" type="line" smooth="yes"/>
      <point x="479" y="360"/>
      <point x="479" y="382"/>
      <point x="464" y="396" type="curve" smooth="yes"/>
      <point x="450" y="409"/>
      <point x="427" y="409"/>
      <point x="413" y="395" type="curve" smooth="yes"/>
      <point x="55" y="50" type="line" smooth="yes"/>
      <point x="40" y="36"/>
      <point x="40" y="15"/>
      <point x="55" y="1" type="curve" smooth="yes"/>
    </contour>
    <contour>
      <point x="169" y="57"/>
      <point x="116" y="120"/>
      <point x="116" y="195" type="curve" smooth="yes"/>
      <point x="116" y="272"/>
      <point x="167" y="340"/>
      <point x="258" y="340" type="curve" smooth="yes"/>
      <point x="349" y="340"/>
      <point x="400" y="272"/>
      <point x="400" y="194" type="curve" smooth="yes"/>
      <point x="400" y="119"/>
      <point x="346" y="57"/>
      <point x="258" y="57" type="curve" smooth="yes"/>
    </contour>
  </outline>
</glyph>
<glyph name="dcaron" format="1">
  <advance width="650"/>
  <unicode hex="010F"/>
  <outline>
    <contour>
      <point x="326" y="-13"/>
      <point x="397" y="42"/>
      <point x="446" y="121" type="curve" smooth="yes"/>
      <point x="456" y="137"/>
      <point x="449" y="159"/>
      <point x="431" y="169" type="curve" smooth="yes"/>
      <point x="414" y="180"/>
      <point x="389" y="174"/>
      <point x="379" y="157" type="curve" smooth="yes"/>
      <point x="346" y="104"/>
      <point x="301" y="57"/>
      <point x="234" y="57" type="curve" smooth="yes"/>
      <point x="164" y="57"/>
      <point x="117" y="112"/>
      <point x="117" y="187" type="curve" smooth="yes"/>
      <point x="117" y="267"/>
      <point x="173" y="332"/>
      <point x="256" y="332" type="curve" smooth="yes"/>
      <point x="309" y="332"/>
      <point x="350" y="312"/>
      <point x="390" y="280" type="curve" smooth="yes"/>
      <point x="405" y="268"/>
      <point x="429" y="270"/>
      <point x="442" y="285" type="curve" smooth="yes"/>
      <point x="454" y="299"/>
      <point x="453" y="322"/>
      <point x="437" y="334" type="curve" smooth="yes"/>
      <point x="383" y="377"/>
      <point x="328" y="402"/>
      <point x="256" y="402" type="curve" smooth="yes"/>
      <point x="132" y="402"/>
      <point x="36" y="314"/>
      <point x="36" y="187" type="curve" smooth="yes"/>
      <point x="36" y="62"/>
      <point x="125" y="-13"/>
      <point x="234" y="-13" type="curve" smooth="yes"/>
    </contour>
    <contour>
      <point x="434" y="-13"/>
      <point x="454" y="3"/>
      <point x="454" y="23" type="curve" smooth="yes"/>
      <point x="454" y="536" type="line" smooth="yes"/>
      <point x="454" y="555"/>
      <point x="434" y="571"/>
      <point x="414" y="571" type="curve" smooth="yes"/>
      <point x="393" y="571"/>
      <point x="373" y="555"/>
      <point x="373" y="536" type="curve" smooth="yes"/>
      <point x="373" y="23" type="line" smooth="yes"/>
      <point x="373" y="3"/>
      <point x="393" y="-13"/>
      <point x="414" y="-13" type="curve" smooth="yes"/>
    </contour>
    <contour>
      <point x="607" y="387"/>
      <point x="629" y="399"/>
      <point x="632" y="418" type="curve" smooth="yes"/>
      <point x="653" y="558" type="line" smooth="yes"/>
      <point x="656" y="576"/>
      <point x="639" y="595"/>
      <point x="619" y="598" type="curve" smooth="yes"/>
      <point x="599" y="600"/>
      <point x="577" y="587"/>
      <point x="574" y="569" type="curve" smooth="yes"/>
      <point x="553" y="429" type="line" smooth="yes"/>
      <point x="550" y="411"/>
      <point x="567" y="392"/>
      <point x="587" y="389" type="curve" smooth="yes"/>
    </contour>
  </outline>
</glyph>
<glyph name="dcroat" format="1">
  <advance width="519"/>
  <unicode hex="0111"/>
  <outline>
    <contour>
      <point x="326" y="-13"/>
      <point x="397" y="43"/>
      <point x="446" y="122" type="curve" smooth="yes"/>
      <point x="456" y="138"/>
      <point x="449" y="160"/>
      <point x="431" y="170" type="curve" smooth="yes"/>
      <point x="414" y="181"/>
      <point x="389" y="175"/>
      <point x="379" y="158" type="curve" smooth="yes"/>
      <point x="346" y="105"/>
      <point x="301" y="57"/>
      <point x="234" y="57" type="curve" smooth="yes"/>
      <point x="164" y="57"/>
      <point x="117" y="112"/>
      <point x="117" y="187" type="curve" smooth="yes"/>
      <point x="117" y="268"/>
      <point x="173" y="332"/>
      <point x="256" y="332" type="curve" smooth="yes"/>
      <point x="309" y="332"/>
      <point x="350" y="312"/>
      <point x="390" y="280" type="curve" smooth="yes"/>
      <point x="405" y="268"/>
      <point x="429" y="270"/>
      <point x="442" y="285" type="curve" smooth="yes"/>
      <point x="454" y="299"/>
      <point x="453" y="322"/>
      <point x="437" y="334" type="curve" smooth="yes"/>
      <point x="383" y="377"/>
      <point x="328" y="402"/>
      <point x="256" y="402" type="curve" smooth="yes"/>
      <point x="132" y="402"/>
      <point x="36" y="315"/>
      <point x="36" y="187" type="curve" smooth="yes"/>
      <point x="36" y="62"/>
      <point x="125" y="-13"/>
      <point x="234" y="-13" type="curve" smooth="yes"/>
    </contour>
    <contour>
      <point x="434" y="-13"/>
      <point x="454" y="3"/>
      <point x="454" y="23" type="curve" smooth="yes"/>
      <point x="454" y="537" type="line" smooth="yes"/>
      <point x="454" y="556"/>
      <point x="434" y="572"/>
      <point x="414" y="572" type="curve" smooth="yes"/>
      <point x="393" y="572"/>
      <point x="373" y="556"/>
      <point x="373" y="537" type="curve" smooth="yes"/>
      <point x="373" y="23" type="line" smooth="yes"/>
      <point x="373" y="3"/>
      <point x="393" y="-13"/>
      <point x="414" y="-13" type="curve" smooth="yes"/>
    </contour>
    <contour>
      <point x="472" y="441" type="line" smooth="yes"/>
      <point x="492" y="441"/>
      <point x="508" y="457"/>
      <point x="508" y="476" type="curve" smooth="yes"/>
      <point x="508" y="495"/>
      <point x="492" y="511"/>
      <point x="472" y="511" type="curve" smooth="yes"/>
      <point x="299" y="511" type="line" smooth="yes"/>
      <point x="278" y="511"/>
      <point x="262" y="495"/>
      <point x="262" y="476" type="curve" smooth="yes"/>
      <point x="262" y="457"/>
      <point x="278" y="441"/>
      <point x="299" y="441" type="curve" smooth="yes"/>
    </contour>
  </outline>
</glyph>
<glyph name="Lcaron" format="1">
  <advance width="459"/>
  <unicode hex="013D"/>
  <outline>
    <contour>
      <point x="138" y="-12"/>
      <point x="158" y="4"/>
      <point x="158" y="24" type="curve" smooth="yes"/>
      <point x="158" y="511" type="line" smooth="yes"/>
      <point x="158" y="530"/>
      <point x="138" y="546"/>
      <point x="118" y="546" type="curve" smooth="yes"/>
      <point x="97" y="546"/>
      <point x="77" y="530"/>
      <point x="77" y="511" type="curve" smooth="yes"/>
      <point x="77" y="24" type="line" smooth="yes"/>
      <point x="77" y="4"/>
      <point x="97" y="-12"/>
      <point x="118" y="-12" type="curve" smooth="yes"/>
    </contour>
    <contour>
      <point x="403" y="-12" type="line" smooth="yes"/>
      <point x="423" y="-12"/>
      <point x="439" y="4"/>
      <point x="439" y="24" type="curve" smooth="yes"/>
      <point x="439" y="42"/>
      <point x="423" y="58"/>
      <point x="403" y="58" type="curve" smooth="yes"/>
      <point x="127" y="58" type="line" smooth="yes"/>
      <point x="106" y="58"/>
      <point x="90" y="42"/>
      <point x="90" y="24" type="curve" smooth="yes"/>
      <point x="90" y="4"/>
      <point x="106" y="-12"/>
      <point x="127" y="-12" type="curve" smooth="yes"/>
    </contour>
    <contour>
      <point x="319" y="347"/>
      <point x="341" y="360"/>
      <point x="344" y="379" type="curve" smooth="yes"/>
      <point x="365" y="518" type="line" smooth="yes"/>
      <point x="368" y="538"/>
      <point x="351" y="555"/>
      <point x="331" y="559" type="curve" smooth="yes"/>
      <point x="311" y="561"/>
      <point x="289" y="548"/>
      <point x="286" y="529" type="curve" smooth="yes"/>
      <point x="265" y="390" type="line" smooth="yes"/>
      <point x="262" y="371"/>
      <point x="279" y="353"/>
      <point x="299" y="350" type="curve" smooth="yes"/>
    </contour>
  </outline>
</glyph>
<glyph name="Lslash" format="1">
  <advance width="475"/>
  <unicode hex="0141"/>
  <outline>
    <contour>
      <point x="300" y="318" type="line" smooth="yes"/>
      <point x="316" y="328"/>
      <point x="321" y="350"/>
      <point x="311" y="366" type="curve" smooth="yes"/>
      <point x="300" y="382"/>
      <point x="275" y="387"/>
      <point x="259" y="377" type="curve" smooth="yes"/>
      <point x="33" y="234" type="line" smooth="yes"/>
      <point x="17" y="223"/>
      <point x="12" y="201"/>
      <point x="23" y="186" type="curve" smooth="yes"/>
      <point x="33" y="169"/>
      <point x="58" y="165"/>
      <point x="74" y="175" type="curve" smooth="yes"/>
    </contour>
    <contour>
      <point x="419" y="-12" type="line" smooth="yes"/>
      <point x="439" y="-12"/>
      <point x="455" y="4"/>
      <point x="455" y="24" type="curve" smooth="yes"/>
      <point x="455" y="42"/>
      <point x="439" y="58"/>
      <point x="419" y="58" type="curve" smooth="yes"/>
      <point x="143" y="58" type="line" smooth="yes"/>
      <point x="122" y="58"/>
      <point x="106" y="42"/>
      <point x="106" y="24" type="curve" smooth="yes"/>
      <point x="106" y="4"/>
      <point x="122" y="-12"/>
      <point x="143" y="-12" type="curve" smooth="yes"/>
    </contour>
    <contour>
      <point x="154" y="-12"/>
      <point x="174" y="4"/>
      <point x="174" y="24" type="curve" smooth="yes"/>
      <point x="174" y="511" type="line" smooth="yes"/>
      <point x="174" y="530"/>
      <point x="154" y="546"/>
      <point x="134" y="546" type="curve" smooth="yes"/>
      <point x="113" y="546"/>
      <point x="93" y="530"/>
      <point x="93" y="511" type="curve" smooth="yes"/>
      <point x="93" y="24" type="line" smooth="yes"/>
      <point x="93" y="4"/>
      <point x="113" y="-12"/>
      <point x="134" y="-12" type="curve" smooth="yes"/>
    </contour>
  </outline>
</glyph>
<glyph name="Eng" format="1">
  <advance width="644"/>
  <unicode hex="014A"/>
  <outline>
    <contour>
      <point x="557" y="6"/>
      <point x="562" y="29"/>
      <point x="550" y="45" type="curve" smooth="yes"/>
      <point x="438" y="188"/>
      <point x="233" y="432"/>
      <point x="154" y="533" type="curve" smooth="yes"/>
      <point x="142" y="548"/>
      <point x="118" y="550"/>
      <point x="102" y="539" type="curve" smooth="yes"/>
      <point x="86" y="528"/>
      <point x="81" y="505"/>
      <point x="94" y="490" type="curve" smooth="yes"/>
      <point x="173" y="389"/>
      <point x="377" y="146"/>
      <point x="489" y="1" type="curve" smooth="yes"/>
      <point x="501" y="-14"/>
      <point x="525" y="-16"/>
      <point x="541" y="-4" type="curve" smooth="yes"/>
    </contour>
    <contour>
      <point x="138" y="-12"/>
      <point x="158" y="4"/>
      <point x="158" y="24" type="curve" smooth="yes"/>
      <point x="158" y="511" type="line" smooth="yes"/>
      <point x="158" y="530"/>
      <point x="138" y="546"/>
      <point x="118" y="546" type="curve" smooth="yes"/>
      <point x="97" y="546"/>
      <point x="77" y="530"/>
      <point x="77" y="511" type="curve" smooth="yes"/>
      <point x="77" y="24" type="line" smooth="yes"/>
      <point x="77" y="4"/>
      <point x="97" y="-12"/>
      <point x="118" y="-12" type="curve" smooth="yes"/>
    </contour>
    <contour>
      <point x="520" y="-154"/>
      <point x="567" y="-95"/>
      <point x="567" y="-1" type="curve" smooth="yes"/>
      <point x="567" y="155" type="line" smooth="yes"/>
      <point x="567" y="174"/>
      <point x="547" y="191"/>
      <point x="527" y="191" type="curve" smooth="yes"/>
      <point x="506" y="191"/>
      <point x="486" y="174"/>
      <point x="486" y="155" type="curve" smooth="yes"/>
      <point x="486" y="-1" type="line" smooth="yes"/>
      <point x="486" y="-64"/>
      <point x="465" y="-99"/>
      <point x="415" y="-119" type="curve" smooth="yes"/>
      <point x="397" y="-127"/>
      <point x="386" y="-149"/>
      <point x="394" y="-166" type="curve" smooth="yes"/>
      <point x="401" y="-183"/>
      <point x="425" y="-193"/>
      <point x="443" y="-185" type="curve" smooth="yes"/>
    </contour>
    <contour>
      <point x="547" y="-12"/>
      <point x="567" y="4"/>
      <point x="567" y="24" type="curve" smooth="yes"/>
      <point x="567" y="511" type="line" smooth="yes"/>
      <point x="567" y="530"/>
      <point x="547" y="546"/>
      <point x="527" y="546" type="curve" smooth="yes"/>
      <point x="506" y="546"/>
      <point x="486" y="530"/>
      <point x="486" y="511" type="curve" smooth="yes"/>
      <point x="486" y="24" type="line" smooth="yes"/>
      <point x="486" y="4"/>
      <point x="506" y="-12"/>
      <point x="527" y="-12" type="curve" smooth="yes"/>
    </contour>
  </outline>
</glyph>
<glyph name="eng" format="1">
  <advance width="499"/>
  <unicode hex="014B"/>
  <outline>
    <contour>
      <point x="426" y="-9"/>
      <point x="446" y="7"/>
      <point x="446" y="27" type="curve" smooth="yes"/>
      <point x="446" y="227" type="line" smooth="yes"/>
      <point x="446" y="370"/>
      <point x="371" y="406"/>
      <point x="288" y="406" type="curve" smooth="yes"/>
      <point x="212" y="406"/>
      <point x="139" y="364"/>
      <point x="82" y="308" type="curve" smooth="yes"/>
      <point x="68" y="294"/>
      <point x="68" y="271"/>
      <point x="83" y="258" type="curve" smooth="yes"/>
      <point x="97" y="245"/>
      <point x="121" y="245"/>
      <point x="135" y="258" type="curve" smooth="yes"/>
      <point x="178" y="300"/>
      <point x="231" y="336"/>
      <point x="288" y="336" type="curve" smooth="yes"/>
      <point x="338" y="336"/>
      <point x="365" y="298"/>
      <point x="365" y="227" type="curve" smooth="yes"/>
      <point x="365" y="27" type="line" smooth="yes"/>
      <point x="365" y="7"/>
      <point x="385" y="-9"/>
      <point x="406" y="-9" type="curve" smooth="yes"/>
    </contour>
    <contour>
      <point x="125" y="-9"/>
      <point x="145" y="7"/>
      <point x="145" y="27" type="curve" smooth="yes"/>
      <point x="145" y="371" type="line" smooth="yes"/>
      <point x="145" y="390"/>
      <point x="125" y="406"/>
      <point x="105" y="406" type="curve" smooth="yes"/>
      <point x="84" y="406"/>
      <point x="64" y="390"/>
      <point x="64" y="371" type="curve" smooth="yes"/>
      <point x="64" y="27" type="line" smooth="yes"/>
      <point x="64" y="7"/>
      <point x="84" y="-9"/>
      <point x="105" y="-9" type="curve" smooth="yes"/>
    </contour>
    <contour>
      <point x="398" y="-137"/>
      <point x="446" y="-80"/>
      <point x="446" y="14" type="curve" smooth="yes"/>
      <point x="446" y="170" type="line" smooth="yes"/>
      <point x="446" y="189"/>
      <point x="426" y="206"/>
      <point x="406" y="206" type="curve" smooth="yes"/>
      <point x="385" y="206"/>
      <point x="365" y="189"/>
      <point x="365" y="170" type="curve" smooth="yes"/>
      <point x="365" y="14" type="line" smooth="yes"/>
      <point x="365" y="-49"/>
      <point x="344" y="-84"/>
      <point x="294" y="-104" type="curve" smooth="yes"/>
      <point x="276" y="-112"/>
      <point x="265" y="-132"/>
      <point x="273" y="-149" type="curve" smooth="yes"/>
      <point x="280" y="-166"/>
      <point x="302" y="-176"/>
      <point x="321" y="-169" type="curve" smooth="yes"/>
    </contour>
    <contour>
      <point x="262" y="410" type="move" name="top"/>
    </contour>
    <contour>
      <point x="244" y="33" type="move" name="bottom"/>
    </contour>
  </outline>
</glyph>
<glyph name="OE" format="1">
  <advance width="829"/>
  <unicode hex="0152"/>
  <outline>
    <contour>
      <point x="545" y="-12" type="line"/>
      <point x="545" y="58" type="line"/>
      <point x="327" y="58" type="line" smooth="yes"/>
      <point x="202" y="58"/>
      <point x="119" y="152"/>
      <point x="119" y="264" type="curve" smooth="yes"/>
      <point x="119" y="387"/>
      <point x="200" y="476"/>
      <point x="327" y="476" type="curve" smooth="yes"/>
      <point x="536" y="476" type="line"/>
      <point x="536" y="546" type="line"/>
      <point x="327" y="546" type="line" smooth="yes"/>
      <point x="157" y="546"/>
      <point x="38" y="434"/>
      <point x="38" y="264" type="curve" smooth="yes"/>
      <point x="38" y="108"/>
      <point x="159" y="-12"/>
      <point x="327" y="-12" type="curve" smooth="yes"/>
    </contour>
    <contour>
      <point x="751" y="-12" type="line" smooth="yes"/>
      <point x="771" y="-12"/>
      <point x="787" y="4"/>
      <point x="787" y="24" type="curve" smooth="yes"/>
      <point x="787" y="42"/>
      <point x="771" y="58"/>
      <point x="751" y="58" type="curve" smooth="yes"/>
      <point x="467" y="58" type="line"/>
      <point x="467" y="-12" type="line"/>
    </contour>
    <contour>
      <point x="478" y="-12"/>
      <point x="498" y="4"/>
      <point x="498" y="24" type="curve" smooth="yes"/>
      <point x="498" y="511" type="line" smooth="yes"/>
      <point x="498" y="530"/>
      <point x="478" y="546"/>
      <point x="458" y="546" type="curve" smooth="yes"/>
      <point x="437" y="546"/>
      <point x="417" y="530"/>
      <point x="417" y="511" type="curve" smooth="yes"/>
      <point x="417" y="24" type="line" smooth="yes"/>
      <point x="417" y="4"/>
      <point x="437" y="-12"/>
      <point x="458" y="-12" type="curve" smooth="yes"/>
    </contour>
    <contour>
      <point x="704" y="251" type="line" smooth="yes"/>
      <point x="724" y="251"/>
      <point x="740" y="266"/>
      <point x="740" y="286" type="curve" smooth="yes"/>
      <point x="740" y="305"/>
      <point x="724" y="320"/>
      <point x="704" y="320" type="curve" smooth="yes"/>
      <point x="467" y="320" type="line"/>
      <point x="467" y="251" type="line"/>
    </contour>
    <contour>
      <point x="749" y="476" type="line" smooth="yes"/>
      <point x="769" y="476"/>
      <point x="785" y="492"/>
      <point x="785" y="511" type="curve" smooth="yes"/>
      <point x="785" y="530"/>
      <point x="769" y="546"/>
      <point x="749" y="546" type="curve" smooth="yes"/>
      <point x="467" y="546" type="line"/>
      <point x="467" y="476" type="line"/>
    </contour>
  </outline>
</glyph>
<glyph name="oe" format="1">
  <advance width="844"/>
  <unicode hex="0153"/>
  <outline>
    <contour>
      <point x="393" y="-13"/>
      <point x="481" y="76"/>
      <point x="481" y="194" type="curve" smooth="yes"/>
      <point x="481" y="315"/>
      <point x="392" y="410"/>
      <point x="258" y="410" type="curve" smooth="yes"/>
      <point x="122" y="410"/>
      <point x="35" y="315"/>
      <point x="35" y="195" type="curve" smooth="yes"/>
      <point x="35" y="77"/>
      <point x="124" y="-13"/>
      <point x="258" y="-13" type="curve" smooth="yes"/>
    </contour>
    <contour>
      <point x="169" y="57"/>
      <point x="116" y="120"/>
      <point x="116" y="195" type="curve" smooth="yes"/>
      <point x="116" y="272"/>
      <point x="167" y="340"/>
      <point x="258" y="340" type="curve" smooth="yes"/>
      <point x="349" y="340"/>
      <point x="400" y="272"/>
      <point x="400" y="194" type="curve" smooth="yes"/>
      <point x="400" y="119"/>
      <point x="346" y="57"/>
      <point x="258" y="57" type="curve" smooth="yes"/>
    </contour>
    <contour>
      <point x="681" y="-9"/>
      <point x="722" y="0"/>
      <point x="752" y="11" type="curve" smooth="yes"/>
      <point x="771" y="18"/>
      <point x="781" y="38"/>
      <point x="774" y="57" type="curve" smooth="yes"/>
      <point x="767" y="75"/>
      <point x="744" y="83"/>
      <point x="726" y="76" type="curve" smooth="yes"/>
      <point x="702" y="67"/>
      <point x="670" y="61"/>
      <point x="638" y="61" type="curve" smooth="yes"/>
      <point x="546" y="61"/>
      <point x="481" y="107"/>
      <point x="481" y="194" type="curve" smooth="yes"/>
      <point x="481" y="275"/>
      <point x="539" y="336"/>
      <point x="617" y="336" type="curve" smooth="yes"/>
      <point x="677" y="336"/>
      <point x="719" y="295"/>
      <point x="719" y="260" type="curve" smooth="yes"/>
      <point x="719" y="240"/>
      <point x="701" y="231"/>
      <point x="674" y="231" type="curve" smooth="yes"/>
      <point x="455" y="231" type="line" smooth="yes"/>
      <point x="434" y="231"/>
      <point x="418" y="217"/>
      <point x="418" y="197" type="curve" smooth="yes"/>
      <point x="418" y="179"/>
      <point x="434" y="163"/>
      <point x="455" y="163" type="curve" smooth="yes"/>
      <point x="674" y="163" type="line" smooth="yes"/>
      <point x="772" y="163"/>
      <point x="800" y="203"/>
      <point x="800" y="260" type="curve" smooth="yes"/>
      <point x="800" y="321"/>
      <point x="732" y="405"/>
      <point x="617" y="405" type="curve" smooth="yes"/>
      <point x="500" y="405"/>
      <point x="400" y="323"/>
      <point x="400" y="194" type="curve" smooth="yes"/>
      <point x="400" y="63"/>
      <point x="497" y="-9"/>
      <point x="638" y="-9" type="curve" smooth="yes"/>
    </contour>
  </outline>
</glyph>
<glyph name="tcaron" format="1">
  <advance width="349"/>
  <unicode hex="0165"/>
  <outline>
    <contour>
      <point x="301" y="-12"/>
      <point x="318" y="3"/>
      <point x="318" y="23" type="curve" smooth="yes"/>
      <point x="318" y="41"/>
      <point x="302" y="58"/>
      <point x="282" y="58" type="curve" smooth="yes"/>
      <point x="208" y="59"/>
      <point x="170" y="86"/>
      <point x="170" y="141" type="curve" smooth="yes"/>
      <point x="170" y="495" type="line" smooth="yes"/>
      <point x="170" y="514"/>
      <point x="150" y="530"/>
      <point x="130" y="530" type="curve" smooth="yes"/>
      <point x="109" y="530"/>
      <point x="89" y="514"/>
      <point x="89" y="495" type="curve" smooth="yes"/>
      <point x="89" y="141" type="line" smooth="yes"/>
      <point x="89" y="47"/>
      <point x="143" y="-9"/>
      <point x="281" y="-12" type="curve" smooth="yes"/>
    </contour>
    <contour>
      <point x="296" y="333" type="line" smooth="yes"/>
      <point x="316" y="333"/>
      <point x="332" y="349"/>
      <point x="332" y="367" type="curve" smooth="yes"/>
      <point x="332" y="387"/>
      <point x="316" y="403"/>
      <point x="296" y="403" type="curve" smooth="yes"/>
      <point x="37" y="403" type="line" smooth="yes"/>
      <point x="16" y="403"/>
      <point x="0" y="387"/>
      <point x="0" y="367" type="curve" smooth="yes"/>
      <point x="0" y="349"/>
      <point x="16" y="333"/>
      <point x="37" y="333" type="curve" smooth="yes"/>
    </contour>
    <contour>
      <point x="294" y="477"/>
      <point x="315" y="490"/>
      <point x="318" y="508" type="curve" smooth="yes"/>
      <point x="341" y="635" type="line" smooth="yes"/>
      <point x="345" y="653"/>
      <point x="330" y="671"/>
      <point x="310" y="675" type="curve" smooth="yes"/>
      <point x="291" y="679"/>
      <point x="269" y="667"/>
      <point x="266" y="647" type="curve" smooth="yes"/>
      <point x="243" y="521" type="line" smooth="yes"/>
      <point x="239" y="503"/>
      <point x="256" y="484"/>
      <point x="274" y="481" type="curve" smooth="yes"/>
    </contour>
  </outline>
</glyph>
<glyph name="uogonek" format="1">
  <advance width="499"/>
  <unicode hex="0173"/>
  <outline>
    <contour>
      <point x="287" y="-9"/>
      <point x="370" y="45"/>
      <point x="421" y="113" type="curve" smooth="yes"/>
      <point x="433" y="129"/>
      <point x="428" y="152"/>
      <point x="412" y="163" type="curve" smooth="yes"/>
      <point x="396" y="175"/>
      <point x="371" y="171"/>
      <point x="360" y="156" type="curve" smooth="yes"/>
      <point x="323" y="107"/>
      <point x="268" y="61"/>
      <point x="212" y="61" type="curve" smooth="yes"/>
      <point x="160" y="61"/>
      <point x="134" y="99"/>
      <point x="134" y="170" type="curve" smooth="yes"/>
      <point x="134" y="371" type="line" smooth="yes"/>
      <point x="134" y="390"/>
      <point x="114" y="406"/>
      <point x="94" y="406" type="curve" smooth="yes"/>
      <point x="73" y="406"/>
      <point x="53" y="390"/>
      <point x="53" y="371" type="curve" smooth="yes"/>
      <point x="53" y="170" type="line" smooth="yes"/>
      <point x="53" y="28"/>
      <point x="127" y="-9"/>
      <point x="212" y="-9" type="curve" smooth="yes"/>
    </contour>
    <contour>
      <point x="455" y="-238"/>
      <point x="471" y="-222"/>
      <point x="471" y="-204" type="curve" smooth="yes"/>
      <point x="471" y="-186"/>
      <point x="455" y="-171"/>
      <point x="435" y="-171" type="curve" smooth="yes"/>
      <point x="378" y="-171"/>
      <point x="352" y="-158"/>
      <point x="352" y="-137" type="curve" smooth="yes"/>
      <point x="352" y="-118"/>
      <point x="368" y="-97"/>
      <point x="422" y="-43" type="curve" smooth="yes"/>
      <point x="429" y="-36"/>
      <point x="435" y="-25"/>
      <point x="435" y="-15" type="curve" smooth="yes"/>
      <point x="435" y="56" type="line"/>
      <point x="354" y="56" type="line"/>
      <point x="354" y="-34" type="line"/>
      <point x="376" y="10" type="line"/>
      <point x="286" y="-72"/>
      <point x="275" y="-112"/>
      <point x="275" y="-144" type="curve" smooth="yes"/>
      <point x="275" y="-196"/>
      <point x="320" y="-238"/>
      <point x="435" y="-238" type="curve" smooth="yes"/>
    </contour>
    <contour>
      <point x="435" y="27" type="line"/>
      <point x="435" y="371" type="line" smooth="yes"/>
      <point x="435" y="390"/>
      <point x="415" y="406"/>
      <point x="395" y="406" type="curve" smooth="yes"/>
      <point x="374" y="406"/>
      <point x="354" y="390"/>
      <point x="354" y="371" type="curve" smooth="yes"/>
      <point x="354" y="27" type="line"/>
    </contour>
    <contour>
      <point x="399" y="37" type="move" name="ogonek"/>
    </contour>
    <contour>
      <point x="239" y="401" type="move" name="top"/>
    </contour>
  </outline>
</glyph>
<glyph name="acutecomb" format="1">
  <advance width="0"/>
  <unicode hex="0301"/>
  <outline>
    <contour>
      <point x="-14" y="468"/>
      <point x="10" y="469"/>
      <point x="24" y="483" type="curve" smooth="yes"/>
      <point x="52" y="514"/>
      <point x="79" y="547"/>
      <point x="108" y="577" type="curve" smooth="yes"/>
      <point x="121" y="591"/>
      <point x="119" y="615"/>
      <point x="105" y="627" type="curve" smooth="yes"/>
      <point x="90" y="641"/>
      <point x="67" y="639"/>
      <point x="53" y="625" type="curve" smooth="yes"/>
      <point x="23" y="594"/>
      <point x="-5" y="561"/>
      <point x="-33" y="531" type="curve" smooth="yes"/>
      <point x="-46" y="517"/>
      <point x="-44" y="493"/>
      <point x="-29" y="480" type="curve" smooth="yes"/>
    </contour>
    <contour>
      <point x="0" y="394" type="move" name="_top"/>
    </contour>
  </outline>
</glyph>
<glyph name="uni0302" format="1">
  <advance width="0"/>
  <unicode hex="0302"/>
  <outline>
    <contour>
      <point x="82" y="471"/>
      <point x="107" y="471"/>
      <point x="120" y="485" type="curve" smooth="yes"/>
      <point x="134" y="499"/>
      <point x="134" y="522"/>
      <point x="120" y="535" type="curve" smooth="yes"/>
      <point x="91" y="560"/>
      <point x="60" y="594"/>
      <point x="27" y="623" type="curve" smooth="yes"/>
      <point x="12" y="636"/>
      <point x="-13" y="635"/>
      <point x="-26" y="621" type="curve" smooth="yes"/>
      <point x="-39" y="607"/>
      <point x="-40" y="584"/>
      <point x="-25" y="571" type="curve" smooth="yes"/>
      <point x="8" y="542"/>
      <point x="41" y="511"/>
      <point x="68" y="484" type="curve" smooth="yes"/>
    </contour>
    <contour>
      <point x="-58" y="500"/>
      <point x="-30" y="522"/>
      <point x="-6" y="545" type="curve" smooth="yes"/>
      <point x="14" y="564"/>
      <point x="23" y="593"/>
      <point x="21" y="613" type="curve" smooth="yes"/>
      <point x="11" y="627"/>
      <point x="-9" y="631"/>
      <point x="-23" y="622" type="curve" smooth="yes"/>
      <point x="-47" y="604"/>
      <point x="-75" y="583"/>
      <point x="-96" y="562" type="curve" smooth="yes"/>
      <point x="-117" y="542"/>
      <point x="-127" y="513"/>
      <point x="-123" y="494" type="curve" smooth="yes"/>
      <point x="-114" y="480"/>
      <point x="-93" y="475"/>
      <point x="-79" y="484" type="curve" smooth="yes"/>
    </contour>
    <contour>
      <point x="0" y="394" type="move" name="_top"/>
    </contour>
  </outline>
</glyph>
<glyph name="uni0306" format="1">
  <advance width="0"/>
  <unicode hex="0306"/>
  <outline>
    <contour>
      <point x="64" y="484"/>
      <point x="104" y="514"/>
      <point x="136" y="563" type="curve" smooth="yes"/>
      <point x="147" y="579"/>
      <point x="139" y="601"/>
      <point x="122" y="611" type="curve" smooth="yes"/>
      <point x="106" y="622"/>
      <point x="82" y="617"/>
      <point x="71" y="600" type="curve" smooth="yes"/>
      <point x="54" y="575"/>
      <point x="35" y="554"/>
      <point x="-1" y="554" type="curve" smooth="yes"/>
      <point x="-33" y="554"/>
      <point x="-59" y="576"/>
      <point x="-76" y="601" type="curve" smooth="yes"/>
      <point x="-87" y="617"/>
      <point x="-111" y="622"/>
      <point x="-128" y="611" type="curve" smooth="yes"/>
      <point x="-145" y="601"/>
      <point x="-150" y="578"/>
      <point x="-139" y="562" type="curve" smooth="yes"/>
      <point x="-107" y="514"/>
      <point x="-56" y="484"/>
      <point x="-1" y="484" type="curve" smooth="yes"/>
    </contour>
    <contour>
      <point x="0" y="394" type="move" name="_top"/>
    </contour>
  </outline>
</glyph>
<glyph name="uni0308" format="1">
  <advance width="0"/>
  <unicode hex="0308"/>
  <outline>
    <contour>
      <point x="124" y="486"/>
      <point x="154" y="501"/>
      <point x="154" y="545" type="curve" smooth="yes"/>
      <point x="154" y="590"/>
      <point x="123" y="606"/>
      <point x="97" y="606" type="curve" smooth="yes"/>
      <point x="71" y="606"/>
      <point x="40" y="590"/>
      <point x="40" y="545" type="curve" smooth="yes"/>
      <point x="40" y="501"/>
      <point x="70" y="486"/>
      <point x="97" y="486" type="curve" smooth="yes"/>
    </contour>
    <contour>
      <point x="-71" y="486"/>
      <point x="-40" y="498"/>
      <point x="-40" y="545" type="curve" smooth="yes"/>
      <point x="-40" y="593"/>
      <point x="-73" y="606"/>
      <point x="-96" y="606" type="curve" smooth="yes"/>
      <point x="-125" y="606"/>
      <point x="-154" y="589"/>
      <point x="-154" y="545" type="curve"/>
      <point x="-154" y="502"/>
      <point x="-126" y="486"/>
      <point x="-96" y="486" type="curve" smooth="yes"/>
    </contour>
    <contour>
      <point x="0" y="394" type="move" name="_top"/>
    </contour>
  </outline>
</glyph>
<glyph name="uni030A" format="1">
  <advance width="0"/>
  <unicode hex="030A"/>
  <outline>
    <contour>
      <point x="77" y="451"/>
      <point x="120" y="504"/>
      <point x="120" y="559" type="curve" smooth="yes"/>
      <point x="120" y="613"/>
      <point x="77" y="667"/>
      <point x="0" y="667" type="curve" smooth="yes"/>
      <point x="-75" y="667"/>
      <point x="-118" y="611"/>
      <point x="-118" y="559" type="curve" smooth="yes"/>
      <point x="-118" y="505"/>
      <point x="-75" y="451"/>
      <point x="0" y="451" type="curve" smooth="yes"/>
    </contour>
    <contour>
      <point x="-31" y="516"/>
      <point x="-49" y="535"/>
      <point x="-49" y="559" type="curve" smooth="yes"/>
      <point x="-49" y="580"/>
      <point x="-30" y="602"/>
      <point x="0" y="602" type="curve" smooth="yes"/>
      <point x="33" y="602"/>
      <point x="51" y="582"/>
      <point x="51" y="559" type="curve" smooth="yes"/>
      <point x="51" y="536"/>
      <point x="32" y="516"/>
      <point x="0" y="516" type="curve" smooth="yes"/>
    </contour>
    <contour>
      <point x="0" y="394" type="move" name="_top"/>
    </contour>
  </outline>
</glyph>
<glyph name="uni030B" format="1">
  <advance width="0"/>
  <unicode hex="030B"/>
  <outline>
    <contour>
      <point x="77" y="463"/>
      <point x="101" y="471"/>
      <point x="109" y="489" type="curve" smooth="yes"/>
      <point x="121" y="516"/>
      <point x="133" y="545"/>
      <point x="156" y="578" type="curve" smooth="yes"/>
      <point x="167" y="593"/>
      <point x="162" y="616"/>
      <point x="145" y="627" type="curve" smooth="yes"/>
      <point x="129" y="637"/>
      <point x="104" y="633"/>
      <point x="93" y="618" type="curve" smooth="yes"/>
      <point x="68" y="581"/>
      <point x="50" y="549"/>
      <point x="37" y="517" type="curve" smooth="yes"/>
      <point x="29" y="499"/>
      <point x="39" y="477"/>
      <point x="58" y="470" type="curve" smooth="yes"/>
    </contour>
    <contour>
      <point x="-95" y="463"/>
      <point x="-71" y="472"/>
      <point x="-64" y="490" type="curve" smooth="yes"/>
      <point x="-53" y="517"/>
      <point x="-39" y="546"/>
      <point x="-17" y="578" type="curve" smooth="yes"/>
      <point x="-6" y="594"/>
      <point x="-13" y="617"/>
      <point x="-29" y="627" type="curve" smooth="yes"/>
      <point x="-46" y="637"/>
      <point x="-71" y="633"/>
      <point x="-82" y="617" type="curve" smooth="yes"/>
      <point x="-106" y="580"/>
      <point x="-123" y="548"/>
      <point x="-137" y="516" type="curve" smooth="yes"/>
      <point x="-144" y="498"/>
      <point x="-132" y="477"/>
      <point x="-114" y="470" type="curve" smooth="yes"/>
    </contour>
    <contour>
      <point x="0" y="394" type="move" name="_top"/>
    </contour>
  </outline>
</glyph>
